<svg xmlns="http://www.w3.org/2000/svg" xmlns:xlink="http://www.w3.org/1999/xlink" viewBox="0 0 923.68 559.87"><defs><style>.cls-1{fill:none;stroke-linecap:round;stroke-miterlimit:10;stroke-width:33px;stroke:url(#linear-gradient);}</style><linearGradient id="linear-gradient" x1="461.84" y1="559.87" x2="461.84" gradientUnits="userSpaceOnUse"><stop offset="0" stop-color="#fff" stop-opacity="0.47"/><stop offset="0.05" stop-color="#fff" stop-opacity="0.54"/><stop offset="0.18" stop-color="#fff" stop-opacity="0.68"/><stop offset="0.32" stop-color="#fff" stop-opacity="0.79"/><stop offset="0.46" stop-color="#fff" stop-opacity="0.89"/><stop offset="0.61" stop-color="#fff" stop-opacity="0.95"/><stop offset="0.78" stop-color="#fff" stop-opacity="0.99"/><stop offset="1" stop-color="#fff"/></linearGradient></defs><g id="Layer_2" data-name="Layer 2"><g id="WeatherIcons"><path id="FewCloudNight" class="cls-1" d="M568.39,143.72A187.31,187.31,0,0,1,716,23.68,187.15,187.15,0,0,0,877.24,340a187,187,0,0,1-48.43,35.45,189.6,189.6,0,0,1-24.5,10.4M596.77,266.34A133.79,133.79,0,0,0,571,268.85C549.64,171.64,463,98.91,359.38,98.91c-111.63,0-203.54,84.41-215.42,192.88-2.34-.13-4.69-.22-7.05-.22-66.5,0-120.41,58.82-120.41,125.33S70.41,543.37,136.91,543.37H596.77c73.47,0,133-65.05,133-138.51S670.24,266.34,596.77,266.34Z"/></g></g></svg>