<svg xmlns="http://www.w3.org/2000/svg" xmlns:xlink="http://www.w3.org/1999/xlink" viewBox="0 0 916.47 567.91"><defs><style>.cls-1{fill:none;stroke-linecap:round;stroke-miterlimit:10;stroke-width:33px;stroke:url(#linear-gradient);}</style><linearGradient id="linear-gradient" x1="458.24" y1="567.91" x2="458.24" gradientUnits="userSpaceOnUse"><stop offset="0" stop-color="#fff" stop-opacity="0.47"/><stop offset="0.05" stop-color="#fff" stop-opacity="0.54"/><stop offset="0.18" stop-color="#fff" stop-opacity="0.68"/><stop offset="0.32" stop-color="#fff" stop-opacity="0.79"/><stop offset="0.46" stop-color="#fff" stop-opacity="0.89"/><stop offset="0.61" stop-color="#fff" stop-opacity="0.95"/><stop offset="0.78" stop-color="#fff" stop-opacity="0.99"/><stop offset="1" stop-color="#fff"/></linearGradient></defs><g id="Layer_2" data-name="Layer 2"><g id="WeatherIcons"><path id="BrokenClouds" class="cls-1" d="M139.22,455.31c-66.49,1.26-121.43-52.76-122.7-119.25A120.42,120.42,0,0,1,134.63,213.38c2.37,0,4.71,0,7,.09C151.5,104.79,241.79,18.65,353.4,16.54A215.85,215.85,0,0,1,495.12,65.79M767,277.59a134.67,134.67,0,0,0-25.73,2.5c-21.4-97.2-108-169.93-211.66-169.93C417.93,110.16,326,194.57,314.14,303c-2.33-.14-4.69-.22-7.05-.22-66.5,0-120.42,57.21-120.42,123.72s53.92,124.87,120.42,124.87H767c73.47,0,133-63.45,133-136.91S840.42,277.59,767,277.59Z"/></g></g></svg>