<svg xmlns="http://www.w3.org/2000/svg" xmlns:xlink="http://www.w3.org/1999/xlink" viewBox="0 0 1440 1755"><defs><style>.cls-1{fill:url(#radial-gradient);}.cls-2{fill:none;stroke-linecap:round;stroke-miterlimit:10;stroke-width:33px;stroke:url(#linear-gradient);}</style><radialGradient id="radial-gradient" cx="720" cy="1569.95" r="1163.79" gradientTransform="translate(0 -692.45)" gradientUnits="userSpaceOnUse"><stop offset="0" stop-opacity="0.35"/><stop offset="1" stop-color="#020202" stop-opacity="0"/></radialGradient><linearGradient id="linear-gradient" x1="636.45" y1="1016.5" x2="636.45" y2="448.59" gradientUnits="userSpaceOnUse"><stop offset="0" stop-color="#fff" stop-opacity="0.47"/><stop offset="0.05" stop-color="#fff" stop-opacity="0.54"/><stop offset="0.18" stop-color="#fff" stop-opacity="0.68"/><stop offset="0.32" stop-color="#fff" stop-opacity="0.79"/><stop offset="0.46" stop-color="#fff" stop-opacity="0.89"/><stop offset="0.61" stop-color="#fff" stop-opacity="0.95"/><stop offset="0.78" stop-color="#fff" stop-opacity="0.99"/><stop offset="1" stop-color="#fff"/></linearGradient></defs><g id="Layer_2" data-name="Layer 2"><g id="WeatherIcons"><rect class="cls-1" width="1440" height="1755"/><path id="BrokenClouds" class="cls-2" d="M317.43,903.91c-66.49,1.26-121.43-52.76-122.7-119.25A120.41,120.41,0,0,1,312.84,662c2.37,0,4.71,0,7,.09C329.71,553.39,420,467.25,531.61,465.13a215.85,215.85,0,0,1,141.72,49.25m271.83,211.8a133.87,133.87,0,0,0-25.73,2.51c-21.4-97.2-108-169.93-211.66-169.93-111.63,0-203.54,84.4-215.42,192.87-2.33-.13-4.69-.22-7.05-.22-66.5,0-120.42,57.22-120.42,123.72S418.8,1000,485.3,1000H945.16c73.47,0,133-63.44,133-136.91S1018.63,726.18,945.16,726.18Z"/></g></g></svg>