<svg xmlns="http://www.w3.org/2000/svg" xmlns:xlink="http://www.w3.org/1999/xlink" viewBox="0 0 620.33 686.98"><defs><style>.cls-1,.cls-2{fill:none;stroke-linecap:round;stroke-miterlimit:10;}.cls-1{stroke-width:33px;stroke:url(#linear-gradient);}.cls-2{stroke-width:14px;stroke:url(#linear-gradient-2);}</style><linearGradient id="linear-gradient" x1="310.17" y1="686.98" x2="310.17" gradientUnits="userSpaceOnUse"><stop offset="0" stop-color="#fff" stop-opacity="0.47"/><stop offset="0.05" stop-color="#fff" stop-opacity="0.54"/><stop offset="0.18" stop-color="#fff" stop-opacity="0.68"/><stop offset="0.32" stop-color="#fff" stop-opacity="0.79"/><stop offset="0.46" stop-color="#fff" stop-opacity="0.89"/><stop offset="0.61" stop-color="#fff" stop-opacity="0.95"/><stop offset="0.78" stop-color="#fff" stop-opacity="0.99"/><stop offset="1" stop-color="#fff"/></linearGradient><linearGradient id="linear-gradient-2" x1="-568.54" y1="-1596.62" x2="-370.23" y2="-1586" gradientTransform="matrix(0.05, -0.99, -0.98, -0.08, -1067.91, -305.96)" gradientUnits="userSpaceOnUse"><stop offset="0" stop-color="#fff" stop-opacity="0.8"/><stop offset="1" stop-color="#fff" stop-opacity="0.9"/></linearGradient></defs><g id="Layer_2" data-name="Layer 2"><g id="WeatherIcons"><g id="ClearSkyNight"><path id="Moon" class="cls-1" d="M34.41,233.22C60,164.46,111.9,113.5,111.9,113.5A328.11,328.11,0,0,1,292,23.68c-95.89,97.45-123.59,249-58.07,377.45s204.41,195,339.6,174.66A331.83,331.83,0,0,1,489,637.67h0a205.91,205.91,0,0,1-42.77,18.15c-166.74,48-291.47-37.15-291.47-37.15C18.8,525.87-6.71,343.94,34.41,233.22Z"/><g id="Star"><polygon class="cls-2" points="543.27 283 488.17 311.79 459.28 366.8 430.49 311.69 375.38 282.9 430.49 254.11 459.38 199.1 488.17 254.2 543.27 283"/></g></g></g></g></svg>