<svg xmlns="http://www.w3.org/2000/svg" xmlns:xlink="http://www.w3.org/1999/xlink" viewBox="0 0 1440 1755"><defs><style>.cls-1{fill:url(#radial-gradient);}.cls-2{stroke-miterlimit:10;fill:url(#linear-gradient);stroke:url(#linear-gradient-2);}</style><radialGradient id="radial-gradient" cx="720" cy="1529.09" r="1163.79" gradientTransform="translate(0 -651.59)" gradientUnits="userSpaceOnUse"><stop offset="0" stop-color="#fff" stop-opacity="0.1"/><stop offset="0.13" stop-color="#fff" stop-opacity="0.08"/><stop offset="0.61" stop-color="#fff" stop-opacity="0.02"/><stop offset="1" stop-color="#fff" stop-opacity="0"/></radialGradient><linearGradient id="linear-gradient" x1="716.95" y1="1256.48" x2="716.95" y2="501.78" gradientUnits="userSpaceOnUse"><stop offset="0" stop-color="#fff" stop-opacity="0"/><stop offset="0.05" stop-color="#fff" stop-opacity="0.04"/><stop offset="0.13" stop-color="#fff" stop-opacity="0.15"/><stop offset="0.23" stop-color="#fff" stop-opacity="0.32"/><stop offset="0.36" stop-color="#fff" stop-opacity="0.57"/><stop offset="0.49" stop-color="#fff" stop-opacity="0.87"/><stop offset="0.55" stop-color="#fff"/><stop offset="1" stop-color="#fff"/></linearGradient><linearGradient id="linear-gradient-2" x1="371.09" y1="879.13" x2="1062.8" y2="879.13" gradientUnits="userSpaceOnUse"><stop offset="0.01" stop-color="#fff" stop-opacity="0"/><stop offset="0.14" stop-color="#fff" stop-opacity="0.03"/><stop offset="0.34" stop-color="#fff" stop-opacity="0.12"/><stop offset="0.54" stop-color="#fff" stop-opacity="0.23"/><stop offset="0.68" stop-color="#fff" stop-opacity="0.3"/><stop offset="0.83" stop-color="#fff" stop-opacity="0.34"/><stop offset="1" stop-color="#fff" stop-opacity="0.35"/></linearGradient></defs><g id="Layer_2" data-name="Layer 2"><g id="WeatherIcons"><rect class="cls-1" width="1440" height="1755"/><path id="ClearSkyDay" class="cls-2" d="M715.52,665.09c119.33.34,212.13,96.3,213.65,210.83,1.55,117.06-92.14,216-212.63,216.47S503.39,995.51,502.09,881.26C500.77,764.8,594.18,665.58,715.52,665.09ZM889.68,878.87c-.12-96.38-78-174.25-174.15-174.17-96.36.08-173.28,77.95-173.9,172.82-.64,97.88,78.82,175.21,173.72,175.37C809.64,1053.05,889.38,976.84,889.68,878.87ZM695.36,1114.31q0,70.41,0,140.81a2.93,2.93,0,0,0,.16.77c0,.11.16.19.25.29l.26.3h38.59v-145H695.5C695.43,1112.78,695.36,1113.54,695.36,1114.31ZM1053.2,1050,927.29,977.23l-19.76,34.27,125.89,72.71C1040.07,1072.69,1046.56,1061.44,1053.2,1050ZM504.61,779.39l19.76-34.25L398.48,672.43c-6.67,11.54-13.06,22.62-19.77,34.25C420.84,731,462.6,755.17,504.61,779.39Zm547.8-72.71c-6.72-11.65-13.18-22.81-19.79-34.25L906.74,745.15l19.77,34.26ZM522.8,1009.12c-6.68-11.56-13.18-22.83-19.78-34.26l-125.89,72.73,19.77,34.25ZM696.15,646.68h39V501.78h-39ZM906.2,587.85l-34.31-19.66L837.63,628l34.3,19.69Zm88.29,309.53,67.81-.82c0-13.42,0-26.27-.53-39.45l-67.28.65Zm-91.57,272c-2.21-5.54-31.14-56.36-33.21-58.36l-33.85,19.12c11.07,19.66,21.89,38.87,32.93,58.49ZM525.06,590.15,558.68,648l34.18-19.89c-11.31-19.45-22.38-38.49-33.61-57.82Zm-153.47,267v39.43c22.09.16,44,.83,66.15.65V857.75ZM593,1128.56l-34.26-19.75L525.76,1166,560,1185.72Z"/></g></g></svg>