<svg xmlns="http://www.w3.org/2000/svg" xmlns:xlink="http://www.w3.org/1999/xlink" viewBox="0 0 1440 1755"><defs><style>.cls-1{fill:url(#radial-gradient);}.cls-2,.cls-3{fill:none;stroke-linecap:round;stroke-miterlimit:10;}.cls-2{stroke-width:33px;stroke:url(#linear-gradient);}.cls-3{stroke-width:14px;stroke:url(#linear-gradient-2);}</style><radialGradient id="radial-gradient" cx="720" cy="1529.09" r="1163.79" gradientTransform="translate(0 -651.59)" gradientUnits="userSpaceOnUse"><stop offset="0" stop-color="#fff" stop-opacity="0.1"/><stop offset="0.13" stop-color="#fff" stop-opacity="0.08"/><stop offset="0.61" stop-color="#fff" stop-opacity="0.02"/><stop offset="1" stop-color="#fff" stop-opacity="0"/></radialGradient><linearGradient id="linear-gradient" x1="736.51" y1="1214.32" x2="736.51" y2="527.34" gradientUnits="userSpaceOnUse"><stop offset="0" stop-color="#fff" stop-opacity="0.47"/><stop offset="0.05" stop-color="#fff" stop-opacity="0.54"/><stop offset="0.18" stop-color="#fff" stop-opacity="0.68"/><stop offset="0.32" stop-color="#fff" stop-opacity="0.79"/><stop offset="0.46" stop-color="#fff" stop-opacity="0.89"/><stop offset="0.61" stop-color="#fff" stop-opacity="0.95"/><stop offset="0.78" stop-color="#fff" stop-opacity="0.99"/><stop offset="1" stop-color="#fff"/></linearGradient><linearGradient id="linear-gradient-2" x1="-142.2" y1="-1069.28" x2="56.12" y2="-1058.66" gradientTransform="matrix(0.05, -0.99, -0.98, -0.08, -149.59, 684.79)" gradientUnits="userSpaceOnUse"><stop offset="0" stop-color="#fff" stop-opacity="0.8"/><stop offset="1" stop-color="#fff" stop-opacity="0.9"/></linearGradient></defs><g id="Layer_2" data-name="Layer 2"><g id="WeatherIcons"><rect class="cls-1" width="1440" height="1755"/><g id="ClearSkyNight"><path id="Moon" class="cls-2" d="M460.76,760.56c25.54-68.76,77.49-119.72,77.49-119.72A328.29,328.29,0,0,1,718.37,551c-95.9,97.46-123.6,249-58.08,377.45s204.41,195,339.6,174.66A331.75,331.75,0,0,1,915.36,1165h0a205.67,205.67,0,0,1-42.76,18.15c-166.74,48-291.47-37.15-291.47-37.15C445.15,1053.21,419.63,871.28,460.76,760.56Z"/><g id="Star"><polygon class="cls-3" points="969.62 810.34 914.51 839.13 885.63 894.14 856.84 839.03 801.73 810.24 856.84 781.45 885.72 726.44 914.51 781.54 969.62 810.34"/></g></g></g></g></svg>