<svg xmlns="http://www.w3.org/2000/svg" xmlns:xlink="http://www.w3.org/1999/xlink" viewBox="0 0 691.7 755.69"><defs><style>.cls-1{stroke-miterlimit:10;fill:url(#linear-gradient);stroke:url(#linear-gradient-2);}</style><linearGradient id="linear-gradient" x1="345.85" y1="755.19" x2="345.85" y2="0.5" gradientUnits="userSpaceOnUse"><stop offset="0" stop-color="#fff" stop-opacity="0"/><stop offset="0.05" stop-color="#fff" stop-opacity="0.04"/><stop offset="0.13" stop-color="#fff" stop-opacity="0.15"/><stop offset="0.23" stop-color="#fff" stop-opacity="0.32"/><stop offset="0.36" stop-color="#fff" stop-opacity="0.57"/><stop offset="0.49" stop-color="#fff" stop-opacity="0.87"/><stop offset="0.55" stop-color="#fff"/><stop offset="1" stop-color="#fff"/></linearGradient><linearGradient id="linear-gradient-2" y1="377.85" x2="691.7" y2="377.85" gradientUnits="userSpaceOnUse"><stop offset="0.01" stop-color="#fff" stop-opacity="0"/><stop offset="0.14" stop-color="#fff" stop-opacity="0.03"/><stop offset="0.34" stop-color="#fff" stop-opacity="0.12"/><stop offset="0.54" stop-color="#fff" stop-opacity="0.23"/><stop offset="0.68" stop-color="#fff" stop-opacity="0.3"/><stop offset="0.83" stop-color="#fff" stop-opacity="0.34"/><stop offset="1" stop-color="#fff" stop-opacity="0.35"/></linearGradient></defs><g id="Layer_2" data-name="Layer 2"><g id="WeatherIcons"><path id="ClearSkyDay" class="cls-1" d="M344.42,163.81c119.33.34,212.14,96.3,213.66,210.83,1.55,117.06-92.15,216-212.64,216.47S132.29,494.22,131,380C129.67,263.51,223.09,164.29,344.42,163.81ZM518.59,377.59c-.13-96.39-78-174.26-174.16-174.17-96.36.08-173.27,78-173.89,172.81-.64,97.89,78.81,175.22,173.71,175.38C438.55,551.77,518.28,475.55,518.59,377.59ZM324.26,613q0,70.41,0,140.81a2.52,2.52,0,0,0,.16.76c0,.12.16.2.24.3l.27.29h38.59V610.25H324.4C324.34,611.49,324.26,612.26,324.26,613ZM682.1,548.66,556.2,475.94l-19.76,34.28,125.89,72.71ZM133.52,278.11c6.72-11.66,13.16-22.81,19.76-34.25-42.11-24.33-83.91-48.46-125.9-72.71-6.66,11.54-13,22.62-19.77,34.24C49.75,229.75,91.51,253.89,133.52,278.11Zm547.8-72.72-19.79-34.24L535.64,243.87c6.67,11.55,13.07,22.62,19.78,34.26ZM151.7,507.84C145,496.27,138.52,485,131.92,473.57L6,546.3l19.78,34.26ZM325.06,145.4h39V.5h-39ZM535.11,86.57,500.8,66.9l-34.27,59.83,34.3,19.69ZM623.4,396.09l67.8-.82c0-13.41,0-26.26-.52-39.44l-67.28.65Zm-91.57,272c-2.21-5.54-31.14-56.37-33.21-58.36l-33.85,19.12,32.92,58.49ZM154,88.87l33.61,57.83,34.18-19.9L188.15,69ZM.5,355.84v39.43c22.09.17,43.94.83,66.14.66V356.47ZM221.86,627.28l-34.27-19.75c-11.11,19.29-22,38.14-32.92,57.16l34.26,19.74Z"/></g></g></svg>