<svg xmlns="http://www.w3.org/2000/svg" xmlns:xlink="http://www.w3.org/1999/xlink" viewBox="0 0 949.27 710.16"><defs><style>.cls-1{fill:none;stroke-linecap:round;stroke-miterlimit:10;stroke-width:33px;stroke:url(#linear-gradient);}</style><linearGradient id="linear-gradient" x1="474.64" y1="710.16" x2="474.64" gradientUnits="userSpaceOnUse"><stop offset="0" stop-color="#fff" stop-opacity="0.47"/><stop offset="0.05" stop-color="#fff" stop-opacity="0.54"/><stop offset="0.18" stop-color="#fff" stop-opacity="0.68"/><stop offset="0.32" stop-color="#fff" stop-opacity="0.79"/><stop offset="0.46" stop-color="#fff" stop-opacity="0.89"/><stop offset="0.61" stop-color="#fff" stop-opacity="0.95"/><stop offset="0.78" stop-color="#fff" stop-opacity="0.99"/><stop offset="1" stop-color="#fff"/></linearGradient></defs><g id="Layer_2" data-name="Layer 2"><g id="WeatherIcons"><path id="FewCloudsDay" class="cls-1" d="M212.53,426.51A161.47,161.47,0,1,1,449.77,214.62M321.73,16.5l1.17,55M16.5,335l55-1.16M105.1,112.15l39.74,38.09m361.44-14.57,38.09-39.74M114.3,544.68l38.09-39.74m647.36-88.48A133.76,133.76,0,0,0,774,419C752.62,321.77,666,249,562.37,249c-111.64,0-203.55,84.4-215.43,192.88-2.33-.14-4.68-.22-7.05-.22-66.5,0-120.41,58.9-120.41,125.4s53.91,126.56,120.41,126.56H799.75c73.47,0,133-65.13,133-138.6S873.22,416.46,799.75,416.46Z"/></g></g></svg>