<svg xmlns="http://www.w3.org/2000/svg" xmlns:xlink="http://www.w3.org/1999/xlink" viewBox="0 0 1440 1755"><defs><style>.cls-1{fill:url(#radial-gradient);}.cls-2{fill:none;stroke-linecap:round;stroke-miterlimit:10;stroke-width:33px;stroke:url(#linear-gradient);}</style><radialGradient id="radial-gradient" cx="720" cy="1529.09" r="1163.79" gradientTransform="translate(0 -651.59)" gradientUnits="userSpaceOnUse"><stop offset="0" stop-color="#fff" stop-opacity="0.1"/><stop offset="0.13" stop-color="#fff" stop-opacity="0.08"/><stop offset="0.61" stop-color="#fff" stop-opacity="0.02"/><stop offset="1" stop-color="#fff" stop-opacity="0"/></radialGradient><linearGradient id="linear-gradient" x1="800.95" y1="1075" x2="800.95" y2="515.13" gradientUnits="userSpaceOnUse"><stop offset="0" stop-color="#fff" stop-opacity="0.47"/><stop offset="0.05" stop-color="#fff" stop-opacity="0.54"/><stop offset="0.18" stop-color="#fff" stop-opacity="0.68"/><stop offset="0.32" stop-color="#fff" stop-opacity="0.79"/><stop offset="0.46" stop-color="#fff" stop-opacity="0.89"/><stop offset="0.61" stop-color="#fff" stop-opacity="0.95"/><stop offset="0.78" stop-color="#fff" stop-opacity="0.99"/><stop offset="1" stop-color="#fff"/></linearGradient></defs><g id="Layer_2" data-name="Layer 2"><g id="WeatherIcons"><rect class="cls-1" width="1440" height="1755"/><path id="FewCloudNight" class="cls-2" d="M907.5,658.85a187.32,187.32,0,0,1,147.57-120,187.15,187.15,0,0,0,161.27,316.28,188.2,188.2,0,0,1-72.92,45.84M935.87,781.47A133.79,133.79,0,0,0,910.14,784C888.74,686.77,802.12,614,698.49,614c-111.64,0-203.55,84.41-215.43,192.88-2.33-.13-4.68-.23-7.05-.23-66.5,0-120.41,58.83-120.41,125.34S409.51,1058.5,476,1058.5H935.87c73.47,0,133-65,133-138.51S1009.34,781.47,935.87,781.47Z"/></g></g></svg>