<svg xmlns="http://www.w3.org/2000/svg" xmlns:xlink="http://www.w3.org/1999/xlink" viewBox="0 0 1440 1755"><defs><style>.cls-1{fill:url(#radial-gradient);}.cls-2{fill:none;stroke-linecap:round;stroke-miterlimit:10;stroke-width:33px;stroke:url(#linear-gradient);}</style><radialGradient id="radial-gradient" cx="720" cy="1529.09" r="1163.79" gradientTransform="translate(0 -651.59)" gradientUnits="userSpaceOnUse"><stop offset="0" stop-color="#fff" stop-opacity="0.1"/><stop offset="0.13" stop-color="#fff" stop-opacity="0.08"/><stop offset="0.61" stop-color="#fff" stop-opacity="0.02"/><stop offset="1" stop-color="#fff" stop-opacity="0"/></radialGradient><linearGradient id="linear-gradient" x1="613.95" y1="1075" x2="613.95" y2="364.84" gradientUnits="userSpaceOnUse"><stop offset="0" stop-color="#fff" stop-opacity="0.47"/><stop offset="0.05" stop-color="#fff" stop-opacity="0.54"/><stop offset="0.18" stop-color="#fff" stop-opacity="0.68"/><stop offset="0.32" stop-color="#fff" stop-opacity="0.79"/><stop offset="0.46" stop-color="#fff" stop-opacity="0.89"/><stop offset="0.61" stop-color="#fff" stop-opacity="0.95"/><stop offset="0.78" stop-color="#fff" stop-opacity="0.99"/><stop offset="1" stop-color="#fff"/></linearGradient></defs><g id="Layer_2" data-name="Layer 2"><g id="WeatherIcons"><rect class="cls-1" width="1440" height="1755"/><path id="FewCloudsDay" class="cls-2" d="M351.83,791.35A161.47,161.47,0,1,1,589.08,579.47M461,381.34l1.17,55M155.81,699.82l55-1.16M244.41,477l39.74,38.09m361.44-14.56,38.08-39.75M253.6,909.52l38.1-39.74m647.36-88.47a132.9,132.9,0,0,0-25.72,2.51c-21.41-97.21-108-169.94-211.67-169.94-111.63,0-203.54,84.4-215.42,192.88-2.33-.14-4.69-.22-7.05-.22-66.5,0-120.42,58.9-120.42,125.4S412.7,1058.5,479.2,1058.5H939.06c73.47,0,133-65.13,133-138.6S1012.53,781.31,939.06,781.31Z"/></g></g></svg>