<svg xmlns="http://www.w3.org/2000/svg" xmlns:xlink="http://www.w3.org/1999/xlink" viewBox="0 0 746.3 641.31"><defs><style>.cls-1,.cls-2{fill:none;stroke-miterlimit:10;}.cls-1{stroke-width:33px;stroke:url(#linear-gradient);}.cls-2{stroke-linecap:round;stroke-width:27px;stroke:url(#linear-gradient-2);}</style><linearGradient id="linear-gradient" x1="373.15" y1="475.31" x2="373.15" gradientUnits="userSpaceOnUse"><stop offset="0" stop-color="#fff" stop-opacity="0.75"/><stop offset="0.08" stop-color="#fff" stop-opacity="0.8"/><stop offset="0.27" stop-color="#fff" stop-opacity="0.89"/><stop offset="0.47" stop-color="#fff" stop-opacity="0.95"/><stop offset="0.7" stop-color="#fff" stop-opacity="0.99"/><stop offset="1" stop-color="#fff"/></linearGradient><linearGradient id="linear-gradient-2" x1="373.63" y1="641.31" x2="373.63" y2="512.31" gradientUnits="userSpaceOnUse"><stop offset="0.01" stop-color="#fff" stop-opacity="0.4"/><stop offset="0.04" stop-color="#fff" stop-opacity="0.42"/><stop offset="0.32" stop-color="#fff" stop-opacity="0.56"/><stop offset="0.58" stop-color="#fff" stop-opacity="0.66"/><stop offset="0.81" stop-color="#fff" stop-opacity="0.72"/><stop offset="1" stop-color="#fff" stop-opacity="0.74"/></linearGradient></defs><g id="Layer_2" data-name="Layer 2"><g id="WeatherIcons"><g id="Mist"><path class="cls-1" d="M729.8,321.37c0,73.47-59.56,137.44-133,137.44H136.92c-66.51,0-120.42-58.9-120.42-125.4S70.41,209.16,136.92,209.16c2.36,0,4.71.08,7,.22C155.84,100.9,247.75,16.5,359.39,16.5,463,16.5,549.65,89.24,571.05,186.44a133.69,133.69,0,0,1,25.72-2.51C670.24,183.93,729.8,247.9,729.8,321.37Z"/><path class="cls-2" d="M143.63,525.81h460m-502,50h544m-502,52h460"/></g></g></g></svg>