<svg xmlns="http://www.w3.org/2000/svg" xmlns:xlink="http://www.w3.org/1999/xlink" viewBox="0 0 1440 1755"><defs><style>.cls-1{fill:url(#radial-gradient);}.cls-2,.cls-3{fill:none;stroke-miterlimit:10;}.cls-2{stroke-width:33px;stroke:url(#linear-gradient);}.cls-3{stroke-linecap:round;stroke-width:27px;stroke:url(#linear-gradient-2);}</style><radialGradient id="radial-gradient" cx="720" cy="1569.95" r="1163.79" gradientTransform="translate(0 -692.45)" gradientUnits="userSpaceOnUse"><stop offset="0" stop-opacity="0.35"/><stop offset="1" stop-color="#020202" stop-opacity="0"/></radialGradient><linearGradient id="linear-gradient" x1="717.45" y1="977.28" x2="717.45" y2="501.98" gradientUnits="userSpaceOnUse"><stop offset="0" stop-color="#fff" stop-opacity="0.75"/><stop offset="0.08" stop-color="#fff" stop-opacity="0.8"/><stop offset="0.27" stop-color="#fff" stop-opacity="0.89"/><stop offset="0.47" stop-color="#fff" stop-opacity="0.95"/><stop offset="0.7" stop-color="#fff" stop-opacity="0.99"/><stop offset="1" stop-color="#fff"/></linearGradient><linearGradient id="linear-gradient-2" x1="717.92" y1="1143.28" x2="717.92" y2="1014.28" gradientUnits="userSpaceOnUse"><stop offset="0.01" stop-color="#fff" stop-opacity="0.4"/><stop offset="0.04" stop-color="#fff" stop-opacity="0.42"/><stop offset="0.32" stop-color="#fff" stop-opacity="0.56"/><stop offset="0.58" stop-color="#fff" stop-opacity="0.66"/><stop offset="0.81" stop-color="#fff" stop-opacity="0.72"/><stop offset="1" stop-color="#fff" stop-opacity="0.74"/></linearGradient></defs><g id="Layer_2" data-name="Layer 2"><g id="WeatherIcons"><rect class="cls-1" width="1440" height="1755"/><g id="Mist"><path class="cls-2" d="M1074.09,823.35c0,73.47-59.55,137.43-133,137.43H481.21c-66.5,0-120.41-58.9-120.41-125.39s53.91-124.25,120.41-124.25c2.37,0,4.71.08,7.05.22,11.88-108.48,103.79-192.88,215.43-192.88,103.63,0,190.25,72.73,211.65,169.93a133.79,133.79,0,0,1,25.73-2.5C1014.54,685.91,1074.09,749.88,1074.09,823.35Z"/><path class="cls-3" d="M487.92,1027.78h460m-502,50h544m-502,52h460"/></g></g></g></svg>