<svg xmlns="http://www.w3.org/2000/svg" xmlns:xlink="http://www.w3.org/1999/xlink" viewBox="0 0 1440 1755"><defs><style>.cls-1{fill:url(#radial-gradient);}.cls-2{stroke-linecap:round;stroke-width:11px;fill:url(#linear-gradient);stroke:url(#linear-gradient-2);}.cls-2,.cls-3{stroke-miterlimit:10;}.cls-3{fill:none;stroke-width:33px;stroke:url(#linear-gradient-3);}</style><radialGradient id="radial-gradient" cx="720" cy="1569.95" r="1163.79" gradientTransform="translate(0 -692.45)" gradientUnits="userSpaceOnUse"><stop offset="0" stop-opacity="0.35"/><stop offset="1" stop-color="#020202" stop-opacity="0"/></radialGradient><linearGradient id="linear-gradient" x1="729.42" y1="1566.52" x2="729.42" y2="262.41" gradientUnits="userSpaceOnUse"><stop offset="0.01" stop-color="#fff" stop-opacity="0"/><stop offset="1" stop-color="#fff"/></linearGradient><linearGradient id="linear-gradient-2" x1="729.42" y1="1572.02" x2="729.42" y2="256.91" gradientUnits="userSpaceOnUse"><stop offset="0.01" stop-color="#fff" stop-opacity="0"/><stop offset="0.14" stop-color="#fff" stop-opacity="0.03"/><stop offset="0.34" stop-color="#fff" stop-opacity="0.12"/><stop offset="0.54" stop-color="#fff" stop-opacity="0.23"/><stop offset="0.68" stop-color="#fff" stop-opacity="0.3"/><stop offset="0.83" stop-color="#fff" stop-opacity="0.34"/><stop offset="1" stop-color="#fff" stop-opacity="0.35"/></linearGradient><linearGradient id="linear-gradient-3" x1="717.85" y1="1147.88" x2="717.85" y2="501.6" gradientUnits="userSpaceOnUse"><stop offset="0" stop-color="#fff" stop-opacity="0.47"/><stop offset="0.05" stop-color="#fff" stop-opacity="0.54"/><stop offset="0.18" stop-color="#fff" stop-opacity="0.68"/><stop offset="0.32" stop-color="#fff" stop-opacity="0.79"/><stop offset="0.46" stop-color="#fff" stop-opacity="0.89"/><stop offset="0.61" stop-color="#fff" stop-opacity="0.95"/><stop offset="0.78" stop-color="#fff" stop-opacity="0.99"/><stop offset="1" stop-color="#fff"/></linearGradient></defs><g id="Layer_2" data-name="Layer 2"><g id="WeatherIcons"><rect class="cls-1" width="1440" height="1755"/><path id="BackRain" class="cls-2" d="M1281.49,315.55,1048.26,560.84M396.63,355.08,163.4,600.36M405,561.17,171.75,806.46m1008.16,314.79L946.69,1366.53m-482.92-45.29L230.55,1566.52m-52.27-388.11,164.36-172.93m697.26-612L916.7,523m69-260.61L899,353.62M738.5,343.28,615.29,472.86m-71.87-132L420.21,470.46m873.32,441.47-123.21,129.58M247.23,359.3l-61.65,64.85m124.86,415L187.23,968.69M1218.1,607.63l-106.54,112M832.74,1233.41,709.53,1363M429.37,1184.17l-90.64,95.34m-63.85-12.58L143,1405.61m431.17-33.17L451,1502m99.45-193.18,123.21-129.58m540.57-324.42L1091,984.42m224.82-341.77-123.2,129.58m39.46,527.43-123.2,129.58m-14.12-374L964.84,1191.92"/><path id="Rain" class="cls-3" d="M1074.5,821.76c0,73.48-59.56,136.24-133,136.24H481.62c-66.51,0-120.41-57.7-120.41-124.19s53.9-123,120.41-123c2.37,0,4.71.08,7,.22C500.54,602.51,592.46,518.1,704.1,518.1c103.62,0,190.25,72.73,211.65,169.94a133.76,133.76,0,0,1,25.72-2.51C1014.94,685.53,1074.5,748.29,1074.5,821.76ZM526.35,1020.39l-58.49,58.49M586,1077.73l-58.48,58.48m177.75-115.82-58.49,58.49m108.94-1.15-58.48,58.48m128.44-57.33,58.49-58.49m43.57,57.34-58.48,58.48"/></g></g></svg>