<svg xmlns="http://www.w3.org/2000/svg" xmlns:xlink="http://www.w3.org/1999/xlink" viewBox="0 0 746.29 646.28"><defs><style>.cls-1{fill:none;stroke-miterlimit:10;stroke-width:33px;stroke:url(#linear-gradient);}</style><linearGradient id="linear-gradient" x1="373.15" y1="646.28" x2="373.15" gradientUnits="userSpaceOnUse"><stop offset="0" stop-color="#fff" stop-opacity="0.47"/><stop offset="0.05" stop-color="#fff" stop-opacity="0.54"/><stop offset="0.18" stop-color="#fff" stop-opacity="0.68"/><stop offset="0.32" stop-color="#fff" stop-opacity="0.79"/><stop offset="0.46" stop-color="#fff" stop-opacity="0.89"/><stop offset="0.61" stop-color="#fff" stop-opacity="0.95"/><stop offset="0.78" stop-color="#fff" stop-opacity="0.99"/><stop offset="1" stop-color="#fff"/></linearGradient></defs><g id="Layer_2" data-name="Layer 2"><g id="WeatherIcons"><path id="Rain" class="cls-1" d="M729.79,320.16c0,73.48-59.55,136.24-133,136.24H136.91c-66.5,0-120.41-57.7-120.41-124.19s53.91-123,120.41-123c2.37,0,4.72.08,7.05.22C155.84,100.91,247.75,16.5,359.39,16.5,463,16.5,549.65,89.23,571.05,186.44a133.61,133.61,0,0,1,25.72-2.51C670.24,183.93,729.79,246.69,729.79,320.16ZM181.64,518.79l-58.49,58.49m118.12-1.15-58.49,58.48M360.53,518.79,302,577.28m109-1.15L352.5,634.61m128.44-57.33,58.49-58.49M583,576.13l-58.49,58.48"/></g></g></svg>