<svg xmlns="http://www.w3.org/2000/svg" xmlns:xlink="http://www.w3.org/1999/xlink" viewBox="0 0 1440 1755"><defs><style>.cls-1{fill:url(#radial-gradient);}.cls-2,.cls-3{stroke-linecap:round;stroke-miterlimit:10;}.cls-2{stroke-width:11px;fill:url(#linear-gradient);stroke:url(#linear-gradient-2);}.cls-3{fill:none;stroke-width:33px;stroke:url(#linear-gradient-3);}</style><radialGradient id="radial-gradient" cx="720" cy="1569.95" r="1163.79" gradientTransform="translate(0 -692.45)" gradientUnits="userSpaceOnUse"><stop offset="0" stop-opacity="0.35"/><stop offset="1" stop-color="#020202" stop-opacity="0"/></radialGradient><linearGradient id="linear-gradient" x1="736.45" y1="1562.69" x2="736.45" y2="307.57" gradientUnits="userSpaceOnUse"><stop offset="0.01" stop-color="#fff" stop-opacity="0"/><stop offset="1" stop-color="#fff"/></linearGradient><linearGradient id="linear-gradient-2" x1="736.45" y1="1568.19" x2="736.45" y2="302.07" gradientUnits="userSpaceOnUse"><stop offset="0.01" stop-color="#fff" stop-opacity="0"/><stop offset="0.14" stop-color="#fff" stop-opacity="0.03"/><stop offset="0.34" stop-color="#fff" stop-opacity="0.12"/><stop offset="0.54" stop-color="#fff" stop-opacity="0.23"/><stop offset="0.68" stop-color="#fff" stop-opacity="0.3"/><stop offset="0.83" stop-color="#fff" stop-opacity="0.34"/><stop offset="1" stop-color="#fff" stop-opacity="0.35"/></linearGradient><linearGradient id="linear-gradient-3" x1="641.45" y1="1159.17" x2="641.45" y2="411.59" gradientUnits="userSpaceOnUse"><stop offset="0" stop-color="#fff" stop-opacity="0.47"/><stop offset="0.05" stop-color="#fff" stop-opacity="0.54"/><stop offset="0.18" stop-color="#fff" stop-opacity="0.68"/><stop offset="0.32" stop-color="#fff" stop-opacity="0.79"/><stop offset="0.46" stop-color="#fff" stop-opacity="0.89"/><stop offset="0.61" stop-color="#fff" stop-opacity="0.95"/><stop offset="0.78" stop-color="#fff" stop-opacity="0.99"/><stop offset="1" stop-color="#fff"/></linearGradient></defs><g id="Layer_2" data-name="Layer 2"><g id="WeatherIcons"><rect class="cls-1" width="1440" height="1755"/><path id="BackShowerRain" class="cls-2" d="M1288.51,311.72,1055.29,557M403.65,351.25,170.43,596.53m1016.5,520.89L953.71,1362.7M470.8,1317.4,237.58,1562.69m-52.27-388.11,164.35-172.93m697.27-612L923.72,519.19m22-211.62L829.32,430m-83.8-90.58-59.26,62.33m471,161.85,123.21-129.58m20.11,474-123.2,129.58M254.26,355.47,192.6,420.31M165.26,984.85l73.87-77.69m986-303.37L1118.58,715.85M839.76,1229.57,716.55,1359.15M436.4,1180.34l-90.64,95.33M281.9,1263.1,150,1401.78m431.18-33.17L458,1498.19M557.46,1305l123.21-129.58M1221.24,851,1098,980.59m224.82-341.77L1199.64,768.4m39.47,527.43L1115.9,1425.41m-14.12-374L971.86,1188.09"/><path id="ShowerRain" class="cls-3" d="M322.43,866.91c-66.49,1.26-121.43-52.76-122.7-119.25A120.41,120.41,0,0,1,317.84,625c2.37,0,4.71,0,7,.09C334.71,516.39,425,430.25,536.61,428.13a215.85,215.85,0,0,1,141.72,49.25m271.83,211.8a133.87,133.87,0,0,0-25.73,2.51c-21.4-97.2-108-169.93-211.66-169.93-111.63,0-203.54,84.4-215.42,192.87-2.33-.13-4.69-.22-7.05-.22-66.5,0-120.42,57.22-120.42,123.72S423.8,963,490.3,963H950.16c73.47,0,133-63.44,133-136.91S1023.63,689.18,950.16,689.18Zm-422,337.67-58.49,58.48m118.12-1.15-58.49,58.49m177.75-115.82-58.49,58.48m109-1.15L699,1142.67M886,1026.85l-58.49,58.48m102.07-1.15L871,1142.67"/></g></g></svg>