<svg xmlns="http://www.w3.org/2000/svg" xmlns:xlink="http://www.w3.org/1999/xlink" viewBox="0 0 1126.48 938.39"><defs><style>.cls-1{fill:url(#linear-gradient);}.cls-2{opacity:0.29;fill:url(#linear-gradient-2);}</style><linearGradient id="linear-gradient" x1="562.12" y1="858.44" x2="562.12" y2="58.81" gradientUnits="userSpaceOnUse"><stop offset="0" stop-color="#fff" stop-opacity="0"/><stop offset="0.05" stop-color="#fff" stop-opacity="0.04"/><stop offset="0.13" stop-color="#fff" stop-opacity="0.15"/><stop offset="0.23" stop-color="#fff" stop-opacity="0.33"/><stop offset="0.35" stop-color="#fff" stop-opacity="0.57"/><stop offset="0.49" stop-color="#fff" stop-opacity="0.88"/><stop offset="0.54" stop-color="#fff"/><stop offset="1" stop-color="#fff"/></linearGradient><linearGradient id="linear-gradient-2" x1="563.24" y1="938.39" x2="563.24" gradientUnits="userSpaceOnUse"><stop offset="0" stop-color="#fff" stop-opacity="0.07"/><stop offset="0" stop-color="#fff" stop-opacity="0.15"/><stop offset="1" stop-color="#fff" stop-opacity="0.6"/></linearGradient></defs><g id="Layer_2" data-name="Layer 2"><g id="WeatherIcons"><g id="Snow"><path class="cls-1" d="M311.34,586.43c-.91.47-1.5.76-2.07,1.09q-22.87,13.2-45.76,26.4c-6.66,3.83-14.09,2.47-18.35-3.24a13.53,13.53,0,0,1,4.33-20q23.58-13.65,47.18-27.26c.58-.34,1.14-.71,2-1.27l-13.25-6.36c-8-3.82-15.94-7.62-23.89-11.47-5.91-2.86-9-8.74-7.88-14.78a13.19,13.19,0,0,1,12.47-11.06,15.94,15.94,0,0,1,7.36,1.52c17.42,8.21,34.75,16.59,52.09,25a2.87,2.87,0,0,0,3.06,0q42.12-24.39,84.29-48.71c.24-.13.45-.3.88-.6-.45-.27-.75-.47-1.07-.63L293.65,438c-5.38-2.57-8.33-6.82-8.22-12.77s3.21-10,8.6-12.53c19-9,38-18.07,57-27.12l59.24-28.24,3.16-1.54c-.68-.42-1.18-.77-1.71-1.07Q369.86,330.52,328,306.3a3.33,3.33,0,0,0-3.59-.11Q299.23,318.34,274,330.37A13.56,13.56,0,1,1,262.24,306c10.73-5.22,21.52-10.34,32.28-15.5,1-.47,1.93-.95,3.18-1.58l-14.54-8.41Q266.3,270.73,249.43,261a13.47,13.47,0,0,1-6.84-13.58c.92-5.91,4.82-10.29,10.46-11.49a13.85,13.85,0,0,1,10.17,1.66q23.29,13.53,46.64,26.95c.76.44,1.53.85,2.53,1.4-.74-9.76-1.46-19.18-2.18-28.61-.34-4.4-.79-8.81-1-13.22-.37-7.75,5.21-13.8,13-14.29a13.38,13.38,0,0,1,14,12.44c1.29,15.9,2.46,31.82,3.69,47.73.28,3.72.47,7.45.94,11.14a3.92,3.92,0,0,0,1.9,2.33q22.92,13.33,45.9,26.55l36.78,21.24c.59.34,1.19.66,2.17,1.2-.27-3.74-.5-7.19-.76-10.65q-1.77-23.25-3.57-46.49T419.71,229c-.79-10.33-1.74-20.65-2.33-31-.3-5.32,2.2-9.51,6.89-12.1a13.13,13.13,0,0,1,14.62.79q22.32,15.3,44.56,30.68l63,43.33c.55.38,1.13.73,1.93,1.24.05-.8.11-1.38.11-2q0-48.42.06-96.86a3.35,3.35,0,0,0-1.85-3.08q-22.85-15.6-45.67-31.24c-6.71-4.6-8.43-12.87-4.07-19.22s12.6-7.78,19.39-3.17c9.78,6.62,19.51,13.33,29.26,20,.84.58,1.7,1.14,2.89,1.94v-2.47q0-26.44,0-52.89c0-6.55,3.72-11.77,9.55-13.56,8.95-2.75,17.57,3.78,17.6,13.45,0,17.91,0,35.82,0,53.72v2.8c.77-.43,1.29-.68,1.75-1q16.09-11,32.17-22c9.07-6.22,20.52-1.12,21.65,9.8.54,5.21-1.66,9.42-6,12.4q-23.6,16.17-47.24,32.26a4.75,4.75,0,0,0-2.36,4.52q.09,47.08,0,94.17v3.09c2.56-1.74,4.71-3.19,6.85-4.66q50.63-34.63,101.23-69.31c3.63-2.49,7.19-4.5,11.8-4a13.55,13.55,0,0,1,12.08,14.5c-.82,11.23-1.83,22.45-2.74,33.67q-1.6,19.93-3.15,39.87-1.75,22.2-3.49,44.42c-.38,4.88-.77,9.76-1.18,14.91.67-.31,1.16-.48,1.61-.74Q740.88,307,783,282.65a2.84,2.84,0,0,0,1.55-2.62q2.05-27.9,4.22-55.79c.55-7.07,5.72-12.38,12.35-12.93a13.43,13.43,0,0,1,14.25,9.89,17.67,17.67,0,0,1,.4,5.53c-.88,12.47-1.86,24.93-2.81,37.4,0,.27,0,.54,0,1.16l2.08-1.18c15.37-8.87,30.71-17.78,46.12-26.59A13.57,13.57,0,1,1,874.82,261c-7,4.11-14.1,8.15-21.16,12.22l-26.55,15.33c-.47.27-.92.58-1.59,1l14.34,6.87c7.65,3.68,15.31,7.34,22.95,11.05a13.56,13.56,0,1,1-11.7,24.46q-25.79-12.32-51.5-24.75a4.76,4.76,0,0,0-5.1.14Q753.32,331.23,712,355c-.46.27-.9.57-1.67,1.06,3.2,1.56,6.14,3,9.09,4.42q54.6,26.17,109.23,52.32c3.78,1.8,7.19,3.81,9,7.8a13.64,13.64,0,0,1-6.79,18.11q-59.64,28.37-119.25,56.77a6.47,6.47,0,0,0-.66.48c.48.32.87.62,1.3.87q42.06,24.3,84.11,48.62a3.22,3.22,0,0,0,3.42.1q24.88-12,49.81-24c8.38-4,17.23-.4,19.74,8,2,6.58-1.07,13.17-7.6,16.32-10.5,5.07-21,10.08-31.56,15.12-1.11.53-2.21,1.1-3.54,1.76.7.44,1.25.79,1.81,1.12q23.22,13.43,46.44,26.86a12.9,12.9,0,0,1,6.73,13.61,12.75,12.75,0,0,1-9.1,11A13.42,13.42,0,0,1,861,614.06q-23.3-13.5-46.64-26.93c-.7-.41-1.42-.78-2.44-1.32.37,5,.71,9.6,1.06,14.26.7,9.16,1.48,18.31,2.08,27.48a13.43,13.43,0,0,1-12.15,14.26c-7.89.58-14.31-4.77-14.91-12.55-1.46-18.8-2.91-37.61-4.22-56.42a5.94,5.94,0,0,0-3.41-5.41q-40.55-23.22-80.94-46.67c-.82-.47-1.65-.91-2.74-1.52.33,4.52.62,8.69.94,12.87q1.8,23.65,3.61,47.32,2,25.83,4,51.65c.57,7.23,1.26,14.45,1.72,21.68.37,5.66-1.93,10.17-6.87,13a13,13,0,0,1-14.64-.71q-53.62-36.87-107.22-73.79c-.67-.47-1.35-.92-2.38-1.61,0,1-.11,1.76-.11,2.48q0,48,0,96a3.77,3.77,0,0,0,1.88,3.52q22.88,15.55,45.69,31.22c6.69,4.59,8.38,12.85,4,19.23s-12.59,7.74-19.23,3.24c-10.12-6.86-20.19-13.8-30.29-20.69-.55-.38-1.12-.73-2-1.3v2.75q0,26.24,0,52.48c0,6.86-4,12.25-10,13.8a13.59,13.59,0,0,1-17.11-12.66c0-.69,0-1.38,0-2.07V722.23c-.78.46-1.36.77-1.9,1.14l-32,21.87c-6.69,4.57-15,3.19-19.39-3.21s-2.63-14.63,4.08-19.22q23.85-16.34,47.74-32.62a2.85,2.85,0,0,0,1.49-2.65q-.06-48.43,0-96.86c0-.4,0-.81-.07-1.56-2.12,1.42-4.05,2.7-6,4q-50.64,34.64-101.27,69.26a32.49,32.49,0,0,1-6.14,3.79c-9.87,3.87-19.49-4.09-18.45-15,.94-9.83,1.66-19.69,2.45-29.53q1.78-22.32,3.53-44.62l3.12-39.67c.35-4.41.71-8.81,1.05-13.22.11-1.42.18-2.84.29-4.6-1.22.67-2.12,1.14-3,1.65q-41,23.65-82,47.28a4.42,4.42,0,0,0-2.51,4c-.94,13.3-2,26.58-3,39.87-.41,5.37-.77,10.75-1.26,16.11A13.44,13.44,0,0,1,321,640.36c-7-.36-12.89-6.2-12.62-13.12.34-8.63,1.17-17.23,1.8-25.84C310.56,596.53,310.94,591.66,311.34,586.43Zm366.28,40.2c-.82-10.78-1.59-21-2.38-31.29q-1.74-22.74-3.5-45.46c-1.15-15.15-2.25-30.31-3.48-45.46a3.72,3.72,0,0,0-1.64-2.49c-7.78-4.61-15.65-9.07-23.44-13.66a3,3,0,0,0-3.56.05q-31,18.53-62.15,36.94a3.12,3.12,0,0,0-1.81,3.09q.12,13.06,0,26.13a3.55,3.55,0,0,0,1.82,3.35q41.88,28.71,83.7,57.51Zm.64-401c-.52.26-.77.35-1,.49q-50.19,34.32-100.36,68.7a3.31,3.31,0,0,0-1.17,2.36q-.12,13.79,0,27.57a3.24,3.24,0,0,0,1.34,2.4q32,18.08,64.13,35.94a2.8,2.8,0,0,0,2.35,0q11.8-6.68,23.49-13.58a3.86,3.86,0,0,0,1.61-2.51c.4-3.15.52-6.33.77-9.5q1.75-22.31,3.53-44.61,1.37-17.34,2.74-34.7C676.57,247.44,677.4,236.7,678.26,225.63ZM330.5,425.46l25.93,12.45L441,478.48a2.61,2.61,0,0,0,2.83,0q12.06-7.08,24.22-14a2.22,2.22,0,0,0,1.29-2.29q-.26-9.11-.36-18.23-.31-27.25-.52-54.52a3.28,3.28,0,0,0-2-3.22q-11.26-6.39-22.42-12.95a3.71,3.71,0,0,0-4-.17q-44.16,21.14-88.36,42.18Zm463.15.82c-.92-.49-1.62-.9-2.34-1.25q-8.4-4-16.81-8Q729,395.15,683.44,373.27a3.17,3.17,0,0,0-3.4.14q-11.61,6.81-23.32,13.46a2.87,2.87,0,0,0-1.68,2.92c.19,12.85.3,25.7.45,38.55.14,11.4.34,22.8.44,34.2a2.74,2.74,0,0,0,1.6,2.74c7.51,4.25,15,8.54,22.41,13a4.21,4.21,0,0,0,4.55.11Q720.71,461,757,443.77ZM446.76,225.14c0,.74,0,1.07,0,1.4q1.56,20.86,3.13,41.72,3,39.56,6.16,79.1a3.45,3.45,0,0,0,1.47,2.35c7.91,4.67,15.9,9.2,23.82,13.84a2.51,2.51,0,0,0,3,0Q515.6,344.85,547,326.29a2.74,2.74,0,0,0,1.59-2.75q-.09-13.28,0-26.54a3.17,3.17,0,0,0-1.59-3q-36.32-24.9-72.56-49.86C465.31,237.87,456.21,231.63,446.76,225.14ZM446,626.2c1.27-.84,2.13-1.4,3-2l31.13-21.29Q513.6,580,547.13,557.09a2.65,2.65,0,0,0,1.43-2.45c-.06-9.33,0-18.67-.08-28a2.83,2.83,0,0,0-1.19-2.06Q515.17,506.48,483,488.52a2.68,2.68,0,0,0-2.2,0q-12,6.79-23.84,13.79a3.32,3.32,0,0,0-1.31,2.23c-.43,4-.68,8-1,12q-1.78,22.41-3.58,44.82-1.8,22.83-3.59,45.65C447,613.26,446.49,619.52,446,626.2ZM575.8,402.27,615,379.61l-39.22-22Zm38.66,69.46-38.58-22.26v45.19Zm-25.17-45.89,38.9,22.45v-44.9Zm-54.32,0L496.1,403.41v44.87Zm13.49,23.57-39.23,22.65,39.23,22Zm0-92.45L509.8,380l38.67,22.32Zm195.9,380.61c-6.13-5.26-11.87-10.24-17.7-15.1a3.37,3.37,0,0,0-2.61-.38c-4.09,1-8.14,2.15-12.22,3.2-2.74.7-5-.45-5.65-2.74-.73-2.65.59-4.82,3.46-5.61,2.45-.68,4.92-1.34,7.38-2a3.22,3.22,0,0,0,.53-.33c-3.17-2.72-6.31-5.39-9.42-8.09-2.39-2.07-2.55-4.94-.44-6.83,1.72-1.54,4-1.51,6,.17,3.21,2.71,6.39,5.46,9.91,8.47.28-2.33.53-4.34.77-6.34.12-1,.19-2.07.37-3.09a4.27,4.27,0,0,1,8.48,1.05c-.31,3.64-.57,7.31-1.19,10.91-.52,3,0,5.07,2.58,7.07,5.23,4.05,10.12,8.54,15.47,13.12.43-3.79.85-7.24,1.22-10.69q1.18-11,2.32-22.06c.21-2.11,1.06-3.71,3.16-4.39s3.57.22,5,1.65q10.79,10.92,21.63,21.78c.37.38.8.7,1.4,1.22,1.47-7.81,2.92-15.37,4.25-22.95a3,3,0,0,0-.91-2.09c-2.93-3-5.95-6-8.92-9-2.09-2.11-2.27-4.57-.51-6.42s4.41-1.83,6.59.3c1.83,1.78,3.64,3.6,5.46,5.39,0,.05.12.05.48.19.53-2.77,1.06-5.48,1.58-8.2.29-1.49.53-3,.86-4.48a4.2,4.2,0,0,1,5.1-3.37,4.09,4.09,0,0,1,3.35,4.74c-.57,3.75-1.34,7.47-2,11.21-.11.6-.18,1.21-.35,2.28l6.22-2.74c.75-.33,1.51-.67,2.28-1a4.31,4.31,0,1,1,3.34,7.95c-4.14,1.88-8.34,3.66-12.47,5.57a2.88,2.88,0,0,0-1.57,1.65c-1.47,7.43-2.82,14.89-4.24,22.61a15.51,15.51,0,0,0,1.64-.52q14.29-6.32,28.58-12.66a4.44,4.44,0,0,1,5,.46c1.6,1.36,1.86,3,1.3,5.05-2.8,10.1-5.52,20.23-8.26,30.36-.09.32-.11.66-.21,1.31l7.88-2.76c4.5-1.58,9-3.17,13.49-4.71a2.81,2.81,0,0,0,2.08-2.23c1-4,2.1-8,3.18-12,.82-3,2.81-4.38,5.43-3.72s3.71,2.85,2.95,5.86c-.64,2.53-1.31,5-2.08,8,4.14-1.45,7.92-2.85,11.75-4.07a6.7,6.7,0,0,1,3.6-.17,3.8,3.8,0,0,1,2.79,3.92,4,4,0,0,1-2.87,4.12c-3.43,1.25-6.89,2.45-10.33,3.67-.64.23-1.27.49-2.32.89,2.6,1.9,5,3.6,7.29,5.35a4.32,4.32,0,0,1,1.78,5.07c-1,2.91-4.26,3.82-7,1.88-3.66-2.61-7.24-5.32-10.9-7.92a2.71,2.71,0,0,0-2-.6c-7.23,2.47-14.43,5-21.92,7.68a14.78,14.78,0,0,0,1.32,1.19q12.63,9.24,25.28,18.45a4.41,4.41,0,0,1,2.08,4.61c-.39,2-1.8,3.12-3.79,3.63q-15.33,4-30.63,8.06a7.79,7.79,0,0,0-1,.43c4.76,4.08,9.65,7.83,14,12.14,3.16,3.16,6.17,3.9,10.24,2.23a60.65,60.65,0,0,1,8.38-2.31c2.56-.63,4.81.6,5.4,2.87a4.28,4.28,0,0,1-3.11,5.47c-1.32.4-2.67.7-4,1.06L844,811.53c1.18,1,2.12,1.87,3.07,2.68,2.15,1.85,4.32,3.67,6.45,5.54s2.57,4.58.81,6.55-4.23,1.89-6.48,0c-2.49-2.09-4.93-4.23-7.39-6.35-.72-.61-1.46-1.21-2.44-2-.32,3.08-.59,5.82-.9,8.55-.29,2.52-1.48,4.07-3.35,4.48a4.17,4.17,0,0,1-5.3-4.6c.36-4.61,1-9.21,1.4-13.81a2.91,2.91,0,0,0-.65-2.15c-5.67-5-11.41-9.84-17.14-14.73-.09-.08-.25-.06-.54-.13-.71,6.39-1.43,12.74-2.11,19.1-.48,4.46-.89,8.94-1.35,13.4-.22,2.08-1.11,3.7-3.25,4.34s-3.57-.3-5-1.72q-10.85-11-21.75-22c-.28-.28-.61-.53-1.18-1-.65,3.31-1.26,6.38-1.85,9.46-.82,4.34-1.68,8.67-2.37,13a3.39,3.39,0,0,0,.81,2.49c2.9,3.06,5.93,6,8.9,9,2.14,2.15,2.3,4.74.44,6.57s-4.39,1.69-6.58-.47c-1.86-1.84-3.69-3.71-5.79-5.83-.85,4.49-1.65,8.6-2.41,12.72a4.28,4.28,0,1,1-8.48-1.14c.49-3.55,1.24-7.07,1.87-10.6.15-.8.27-1.61.47-2.81-3,1.3-5.63,2.52-8.33,3.64s-5.21,0-6.07-2.49c-.76-2.24.15-4.31,2.54-5.39q6.12-2.79,12.31-5.43a2.82,2.82,0,0,0,1.9-2.39c1.28-7.26,2.69-14.5,4.12-22-.77.25-1.33.38-1.84.61q-14.21,6.27-28.39,12.57c-1.78.8-3.48.92-5-.4s-1.92-3.11-1.33-5.22c2.83-10.1,5.53-20.23,8.28-30.36a9,9,0,0,0,.13-1c-.65.18-1.21.28-1.74.47-6.45,2.27-12.87,4.59-19.34,6.78a3.26,3.26,0,0,0-2.42,2.66c-.94,4-2.07,7.88-3.14,11.8-.78,2.86-2.86,4.25-5.33,3.6s-3.7-2.73-3-5.64c.3-1.34.67-2.67,1-4s.68-2.52,1.13-4.19c-1.56.52-2.88,1-4.19,1.41-2.73,1-5.45,2-8.21,2.86a4.29,4.29,0,1,1-2.87-8.08c2.05-.81,4.15-1.51,6.23-2.25l6.41-2.27c-2.57-1.9-4.84-3.63-7.15-5.29-1.39-1-2.49-2.33-2.09-4a6.9,6.9,0,0,1,2.33-3.59c1.41-1.08,3.17-.69,4.64.38,3.68,2.68,7.32,5.42,11.06,8a3.09,3.09,0,0,0,2.4.45c6.93-2.34,13.82-4.8,20.71-7.23a3.82,3.82,0,0,0,.67-.42,12.5,12.5,0,0,0-1-1q-12.63-9.22-25.28-18.45c-1.64-1.19-2.64-2.69-2.23-4.75s1.92-3.1,4-3.63C723.25,743.21,733.64,740.41,744.37,737.57Zm55.72,81c.21-.45.26-.51.27-.57,1.07-9.53,2.16-19.06,3.15-28.6a2.86,2.86,0,0,0-1.07-2c-5.73-5-11.51-9.92-17.28-14.85a17.94,17.94,0,0,0-1.47-1c-1.57,8.45-3.11,16.64-4.54,24.86a3,3,0,0,0,1,2c3.85,4,7.76,7.87,11.64,11.79Zm-57.6-10.84c1-.42,1.68-.66,2.31-.94,7.89-3.47,15.76-7,23.68-10.38a3.51,3.51,0,0,0,2.36-3c.88-5.1,1.89-10.17,2.83-15.26.5-2.68,1-5.37,1.46-8.12a2.62,2.62,0,0,0-.69,0c-7.68,2.68-15.37,5.35-23,8.1a2.73,2.73,0,0,0-1.32,1.6c-.7,2.16-1.24,4.37-1.84,6.57C746.38,793.29,744.5,800.27,742.49,807.7Zm76.68-88.89a4.91,4.91,0,0,0-.83.13c-8.66,3.8-17.32,7.58-26,11.45a2.82,2.82,0,0,0-1.27,1.84c-.86,4-1.6,8.13-2.36,12.2s-1.44,7.83-2.19,11.9a7.3,7.3,0,0,0,1-.14c7.55-2.65,15.11-5.28,22.62-8a3.38,3.38,0,0,0,1.6-2.1c1.49-5.24,2.87-10.51,4.28-15.78C817.11,726.5,818.12,722.73,819.17,718.81ZM778,755c1.63-8.67,3.19-16.85,4.65-25.06a2.73,2.73,0,0,0-.94-1.87q-9.47-9.6-19-19.11c-.36-.36-.79-.66-1.32-1.09-1,9-1.84,17.69-3,26.38a6,6,0,0,0,2.54,6.26C766.66,745,772.11,749.91,778,755Zm60.42,19.2c-.2-.3-.24-.45-.35-.53-7.61-5.6-15.22-11.22-22.9-16.74a3.33,3.33,0,0,0-2.62-.23c-5.16,1.72-10.29,3.57-15.42,5.38l-7.7,2.72c6.56,5.63,12.82,11,19.16,16.36a3.21,3.21,0,0,0,2.46.3c5.34-1.35,10.66-2.81,16-4.23Zm-66.15-12.58c-.71-.64-1.25-1.15-1.81-1.64-5.54-4.76-11.12-9.49-16.62-14.32a3.19,3.19,0,0,0-3.36-.73c-5.59,1.53-11.19,3-16.79,4.47-3.43.91-6.85,1.85-10.63,2.88,8.17,6,16,11.73,23.87,17.42a2.37,2.37,0,0,0,1.91.15C756.51,767.15,764.16,764.43,772.26,761.57Z"/><path class="cls-2" d="M172.06,95.82a1.94,1.94,0,0,1,1.8-.67c2.14.18,3.4-1,3.66-3.13a3.3,3.3,0,0,0-3-3.51c-2-.13-3.77,1.19-3.65,3.11a3.14,3.14,0,0,1-1.27,2.71c-1.06,1-2.07,2-3.11,3-.18.18-.4.32-.77.62.46-2,.85-3.69,1.28-5.4.21-.83.13-1.55-.77-1.78s-1.38.36-1.58,1.24c-.57,2.53-1.27,5-1.75,7.56a5.47,5.47,0,0,1-2.48,3.53c.45-1.89.88-3.64,1.3-5.39.19-.79.14-1.57-.78-1.79s-1.39.4-1.59,1.26c-.59,2.56-1.29,5.09-1.77,7.67a5.4,5.4,0,0,1-2.52,3.46c.44-1.89.82-3.62,1.26-5.33.21-.83.16-1.55-.75-1.78s-1.39.3-1.6,1.22q-.94,4.22-2,8.41a3,3,0,0,1-.78,1.4c-2.36,2.36-4.76,4.67-7.15,7a1.3,1.3,0,0,1-2.25-.61c-.68-2.69-1.25-5.41-2.07-8a7.53,7.53,0,0,1,.18-5.25c.85-2.16,1.45-4.42,2.19-6.63a1.15,1.15,0,0,0-.65-1.64c-.81-.3-1.36.1-1.64.89-.13.38-.24.77-.37,1.15L138,103.42a5.87,5.87,0,0,1-.19-4.72c.9-2.34,1.61-4.76,2.38-7.15.26-.79.17-1.53-.73-1.81s-1.3.28-1.54,1l-.24.74c-.5,1.5-1,3-1.53,4.63-.81-2.11-.82-2.43-.21-4.3q1.2-3.69,2.39-7.38c.22-.67.28-1.32-.42-1.77s-1.48-.08-1.84,1c-.58,1.72-1.13,3.45-1.7,5.18a53.88,53.88,0,0,1-1.7-6.13,1.79,1.79,0,0,1,.26-1.25,3.56,3.56,0,0,0,.65-3A3.42,3.42,0,0,0,130,76a3.37,3.37,0,0,0-1.1,6.4c.31.15.78.32.85.58.6,2.12,1.13,4.26,1.68,6.39a35.16,35.16,0,0,1-4-3.41c-.63-.61-1.3-1-2-.26s-.27,1.41.36,2c1.9,1.77,3.7,3.65,5.68,5.32,1.22,1,1.54,2.29,1.84,3.9-1.45-1.36-2.75-2.56-4-3.79-.63-.6-1.32-.94-2-.24s-.26,1.39.36,2c1.92,1.8,3.76,3.69,5.75,5.4a5.69,5.69,0,0,1,1.76,3.9l-1-.95c-1.1-1-2.2-2.1-3.32-3.11-.55-.49-1.26-.56-1.65.07a2.71,2.71,0,0,0,0,1.58c0,.2.33.38.52.56,2,1.93,4.11,3.84,6.14,5.8a2.75,2.75,0,0,1,.72,1.19c.89,3.35,1.75,6.72,2.6,10.08a1.22,1.22,0,0,1-1.64,1.52c-3.17-.89-6.34-1.74-9.48-2.69a4.54,4.54,0,0,1-1.89-1.22c-1.93-2-3.77-4.18-5.67-6.25-.73-.8-1.68-.82-2,0a2,2,0,0,0,.35,1.65c1.11,1.4,2.35,2.7,3.63,4.13a5.29,5.29,0,0,1-4.12-2.14c-.85-1.11-1.85-2.11-2.79-3.16s-1.62-1.83-2.47-2.71a1,1,0,0,0-1.65,0,2.12,2.12,0,0,0-.12,1.56c.09.39.54.69.84,1l3.08,3.45a5.35,5.35,0,0,1-4.09-2.2c-1.12-1.42-2.4-2.71-3.61-4.06-.5-.55-1-1.11-1.49-1.65a1.15,1.15,0,0,0-1.77-.14,1.11,1.11,0,0,0,0,1.68c.38.45.79.88,1.18,1.33l2.84,3.19c-2.28-.63-4.23-1.19-6.19-1.72a1.61,1.61,0,0,1-1.22-1.08,3.32,3.32,0,0,0-5.2-1.28,3.37,3.37,0,0,0,4,5.43c.36-.22.82-.57,1.15-.49,2.15.53,4.28,1.17,6.69,1.85-2,.61-3.75,1.14-5.49,1.65-.81.23-1.42.66-1.16,1.56s1,1,1.88.73c2.54-.8,5.13-1.42,7.64-2.32,1.46-.52,2.66-.1,4.16.4-1.94.59-3.66,1.12-5.4,1.63-.79.23-1.43.65-1.17,1.56s1,1,1.89.73c2.36-.74,4.78-1.31,7.1-2.16a6,6,0,0,1,4.75.29c-1.86.56-3.58,1.1-5.31,1.6-.86.25-1.46.69-1.14,1.66s1,.89,1.84.64c2.71-.83,5.44-1.66,8.17-2.43a3.43,3.43,0,0,1,1.71-.06c3.28.88,6.55,1.82,9.82,2.75a1.27,1.27,0,0,1,.56,2.3c-2.3,2.26-4.58,4.54-6.93,6.75a4.38,4.38,0,0,1-1.89,1c-2.74.65-5.49,1.2-8.24,1.77-.83.17-1.45.52-1.26,1.46s.87,1.07,1.71.88c1.79-.39,3.58-.74,5.42-1.12-1,1.76-2.66,2.3-4.47,2.62-2.29.39-4.57.89-6.83,1.44a2,2,0,0,0-1.16,1,1.19,1.19,0,0,0,.39,1.12,2.35,2.35,0,0,0,1.47.17c1.7-.31,3.39-.71,5.29-1.11-1,1.1-1.72,2-3.09,2.28-2.62.46-5.22,1-7.82,1.6-.84.18-1.76.36-1.59,1.56.11.83.79,1.08,2.06.82.15,0,.29-.09.43-.12l4.31-.88c-1.28,1.38-2.67,2.86-4,4.37a1.45,1.45,0,0,1-1.52.53,3.26,3.26,0,0,0-3.73,2.95,3.32,3.32,0,0,0,3.11,3.72,3.22,3.22,0,0,0,3.54-3.28,2.6,2.6,0,0,1,1.08-2.4c1.08-1,2.07-2,3.1-3,.24-.23.5-.45.92-.82l-.3,1.33c-.34,1.48-.69,2.95-1,4.43a1.09,1.09,0,0,0,.79,1.47,1.12,1.12,0,0,0,1.5-.92c.07-.25.14-.5.2-.75.58-2.41,1.25-4.8,1.7-7.23a5,5,0,0,1,2.38-3.35c-.43,1.9-.82,3.64-1.24,5.38-.21.83-.1,1.52.83,1.72s1.31-.39,1.5-1.22c.63-2.7,1.37-5.37,1.91-8.09.28-1.39,1.22-2.09,2.34-3.08-.1.57-.15.88-.22,1.19-.34,1.52-.75,3-1,4.55a1.55,1.55,0,0,0,.66,1.28,1.64,1.64,0,0,0,1.34-.3c.27-.2.35-.72.44-1.11.62-2.62,1.19-5.26,1.87-7.87a4.35,4.35,0,0,1,1.06-1.85c2.24-2.27,4.53-4.48,6.81-6.71,1.17-1.14,2-.89,2.43.73.77,3,1.56,6,2.27,9a3.91,3.91,0,0,1-.08,1.92c-.84,2.75-1.76,5.48-2.66,8.22-.26.78-.14,1.46.69,1.72s1.33-.2,1.59-1c.11-.36.21-.71.33-1.06.45-1.37.91-2.73,1.44-4.3a5.56,5.56,0,0,1,.28,4.39c-.93,2.49-1.66,5-2.49,7.57a1.16,1.16,0,0,0,.78,1.67c.79.24,1.25-.23,1.49-.95.29-.88.59-1.75.88-2.63s.59-1.78.95-2.88c.8,2.52.8,2.52.1,4.66-.76,2.31-1.53,4.62-2.29,6.94-.36,1.1-.12,1.86.65,2,1,.22,1.39-.42,1.65-1.24.53-1.68,1.09-3.35,1.73-5.33.63,2.47,1.2,4.63,1.71,6.8.06.25-.22.56-.31.86a8.24,8.24,0,0,0-.72,2.68,3.23,3.23,0,0,0,3.28,2.88,3.42,3.42,0,0,0,3.26-2.55,3.37,3.37,0,0,0-1.94-3.94c-.3-.15-.7-.38-.78-.65-.6-2.13-1.13-4.28-1.68-6.43a5.34,5.34,0,0,1,1.3,1c1.05,1,2.05,2,3.19,2.92a1.72,1.72,0,0,0,1.55-.11,1,1,0,0,0,0-1.54c-.21-.2-.38-.45-.6-.65-1.82-1.74-3.57-3.56-5.5-5.17-1.21-1-1.46-2.25-1.75-3.82,1.47,1.39,2.8,2.62,4.1,3.87.63.59,1.31.81,1.94.16s.31-1.34-.3-1.91c-2-1.88-3.91-3.85-6-5.63-1.15-1-1.23-2.22-1.47-3.5,1.37,1.16,2.67,2.36,3.95,3.59.61.57,1.27.9,1.93.2s.33-1.38-.33-2c-2.09-1.94-4.17-3.89-6.2-5.89a3.58,3.58,0,0,1-.92-1.57c-.84-3.1-1.6-6.23-2.39-9.34a1.33,1.33,0,0,1,1.78-1.71c2.88.8,5.74,1.67,8.64,2.4a5.44,5.44,0,0,1,3,1.91c1.71,2,3.5,3.92,5.27,5.87a1.12,1.12,0,0,0,1.75.18,1.16,1.16,0,0,0,0-1.77c-.43-.51-.89-1-1.33-1.5l-2.39-2.71c2.19-.07,3.34,1.26,4.52,2.63q2.24,2.61,4.6,5.12a1.82,1.82,0,0,0,1.34.49,1.23,1.23,0,0,0,.83-.88,2.21,2.21,0,0,0-.56-1.35c-1.13-1.35-2.34-2.64-3.55-4,2.15-.1,3.28,1.27,4.45,2.62,1.51,1.74,3,3.46,4.61,5.12a1.85,1.85,0,0,0,1.34.5,1.26,1.26,0,0,0,.83-.89,2.27,2.27,0,0,0-.56-1.35c-1.14-1.35-2.34-2.64-3.52-4a60.83,60.83,0,0,1,6.48,1.66c.27.08.49.48.63.79a3.36,3.36,0,0,0,6.2.2,3.31,3.31,0,0,0-.83-3.94,3.35,3.35,0,0,0-4.3-.14,1.51,1.51,0,0,1-1,.33c-2.11-.55-4.2-1.17-6.62-1.86l5.39-1.62c.78-.24,1.55-.6,1.23-1.61s-1.06-.95-1.91-.69c-2.4.73-4.85,1.33-7.21,2.18a5.61,5.61,0,0,1-4.47-.3c1.74-.53,3.33-1,4.91-1.49.84-.26,1.84-.44,1.58-1.7-.18-.82-.92-1-2.24-.62l-7.1,2.15c-1.79.55-2.41.5-4.27-.42l5.27-1.57c.75-.23,1.31-.64,1.08-1.52s-1-1-1.86-.76c-2.72.81-5.44,1.64-8.17,2.42a3.47,3.47,0,0,1-1.72.07c-3.29-.88-6.55-1.83-9.81-2.77-1.17-.33-1.37-1.14-.51-2,2.27-2.23,4.53-4.48,6.86-6.65a5.16,5.16,0,0,1,2.18-1.15c2.72-.66,5.49-1.17,8.22-1.81a1.93,1.93,0,0,0,1.06-.93,1.11,1.11,0,0,0-.33-1,2.21,2.21,0,0,0-1.43-.25c-1.76.31-3.51.71-5.43,1.11a6,6,0,0,1,3.81-2.49c2.56-.37,5.07-1,7.6-1.56.76-.16,1.38-.57,1.23-1.42s-.88-1.11-1.71-1c-.51.1-1,.24-1.51.34l-4,.8a4.91,4.91,0,0,1,3.61-2.33,26.64,26.64,0,0,0,3.15-.64c1.59-.35,3.18-.69,4.76-1a1.1,1.1,0,0,0,.94-1.39,1.08,1.08,0,0,0-1.31-.91,8.74,8.74,0,0,0-.87.14l-4.84,1C169.37,98.66,170.73,97.25,172.06,95.82ZM1035.84,36.4a1.67,1.67,0,0,1,1.59.5,2.73,2.73,0,0,0,4.15-.18,2.84,2.84,0,0,0-.16-4,2.72,2.72,0,0,0-4.14.17,2.66,2.66,0,0,1-2.3,1.16c-1.25.11-2.49.27-3.73.4a7.27,7.27,0,0,1-.85,0c1.36-1.09,2.54-2.06,3.75-3,.58-.45.91-1,.42-1.62s-1.13-.49-1.74,0c-1.73,1.42-3.53,2.74-5.22,4.21a4.73,4.73,0,0,1-3.57,1.08l3.76-3c.55-.44.94-1,.43-1.63s-1.16-.47-1.76,0c-1.76,1.43-3.59,2.77-5.29,4.27a4.69,4.69,0,0,1-3.56,1c1.31-1.05,2.49-2,3.7-3,.59-.45.93-1,.44-1.61s-1.11-.54-1.74,0q-2.89,2.35-5.85,4.64a2.61,2.61,0,0,1-1.28.54c-2.86.34-5.73.64-8.59.94a1.12,1.12,0,0,1-1.2-1.61c1-2.19,2-4.34,2.87-6.58a6.54,6.54,0,0,1,2.93-3.47c1.73-1,3.35-2.23,5-3.34a1,1,0,0,0,.43-1.47,1,1,0,0,0-1.58-.26c-.29.18-.58.39-.87.58l-3.25,2.18A5,5,0,0,1,1011,20.1c1.86-1.11,3.63-2.38,5.44-3.59.59-.41.92-1,.46-1.63s-1-.5-1.6-.11l-.55.37-3.51,2.33c.57-1.86.74-2.08,2.15-3l5.56-3.75c.51-.34.9-.75.66-1.43s-1-.84-1.76-.32c-1.32.86-2.61,1.74-3.92,2.61a48.79,48.79,0,0,1,2.11-5.08,1.5,1.5,0,0,1,.84-.7A3.05,3.05,0,0,0,1019,4.05a3,3,0,0,0-1.13-3.59,2.91,2.91,0,0,0-4.16,3.76c.13.28.35.64.27.85-.72,1.76-1.51,3.5-2.28,5.24a31,31,0,0,1-.89-4.45c-.11-.74-.35-1.38-1.23-1.25s-.94.81-.82,1.56c.34,2.21.56,4.45,1,6.64a5.08,5.08,0,0,1-.83,3.64c-.26-1.7-.51-3.21-.72-4.73-.1-.75-.39-1.35-1.24-1.25s-.92.82-.81,1.55c.34,2.24.59,4.51,1,6.73a5,5,0,0,1-.89,3.6l-.18-1.19c-.2-1.3-.38-2.6-.6-3.89-.11-.63-.56-1.05-1.16-.83-.37.14-.63.66-.86,1.06-.09.15,0,.43,0,.65.36,2.41.74,4.81,1.08,7.22a2.33,2.33,0,0,1-.14,1.2c-1.18,2.75-2.39,5.5-3.61,8.24a1.06,1.06,0,0,1-1.93.15c-1.68-2.28-3.38-4.56-5-6.88a4,4,0,0,1-.63-1.84c-.22-2.42-.34-4.85-.53-7.27-.07-.93-.7-1.45-1.37-1a1.78,1.78,0,0,0-.64,1.31c0,1.54.16,3.08.27,4.74a4.58,4.58,0,0,1-1.66-3.65c0-1.21-.13-2.42-.21-3.64-.07-1-.13-2.11-.24-3.16-.06-.63-.49-1.08-1.09-.91a1.79,1.79,0,0,0-.92,1,2.56,2.56,0,0,0,0,1.13c.08,1.3.17,2.6.25,4a4.6,4.6,0,0,1-1.6-3.67c0-1.57-.19-3.13-.3-4.69,0-.64-.07-1.28-.13-1.92a1,1,0,0,0-1.12-1,1,1,0,0,0-.94,1.11c0,.51.07,1,.1,1.53.07,1.14.14,2.29.23,3.69-1.22-1.65-2.24-3.07-3.3-4.47a1.41,1.41,0,0,1-.25-1.39A2.86,2.86,0,0,0,977,4.25a2.91,2.91,0,0,0-.19,5.81c.36,0,.86,0,1,.28,1.18,1.51,2.29,3.08,3.56,4.83-1.7-.67-3.16-1.23-4.6-1.81-.68-.27-1.33-.31-1.63.44s.14,1.22.89,1.5c2.15.82,4.25,1.77,6.43,2.5a5.09,5.09,0,0,1,2.61,2.49c-1.62-.63-3.08-1.19-4.53-1.77-.67-.26-1.33-.32-1.63.44s.15,1.22.9,1.5c2,.75,4,1.66,6,2.32a5.15,5.15,0,0,1,3.07,2.73c-1.57-.61-3-1.16-4.46-1.74-.72-.29-1.37-.31-1.66.52s.23,1.15.9,1.41c2.29.89,4.59,1.78,6.86,2.71a2.88,2.88,0,0,1,1.19.87c1.77,2.35,3.48,4.73,5.21,7.11a1.1,1.1,0,0,1-.85,1.86c-2.76.31-5.53.64-8.3.89a3.62,3.62,0,0,1-1.83-.33c-2.2-1-4.37-2.1-6.54-3.19-.65-.32-1.26-.41-1.64.33s0,1.18.7,1.51c1.42.68,2.83,1.4,4.28,2.12a5,5,0,0,1-4.44-.6c-1.76-1-3.58-1.83-5.41-2.66a1.75,1.75,0,0,0-1.31,0,1.06,1.06,0,0,0-.34,1,2,2,0,0,0,.92.89c1.32.7,2.68,1.33,4.19,2.07-1.25.23-2.25.47-3.32-.1-2-1.08-4.11-2.07-6.17-3.08-.67-.33-1.39-.69-1.92.21-.36.63,0,1.16,1,1.66l.35.15,3.4,1.7c-1.6.26-3.34.52-5.07.82a1.26,1.26,0,0,1-1.32-.46,2.82,2.82,0,0,0-4.11,0,2.87,2.87,0,0,0,.13,4.19,2.79,2.79,0,0,0,4.16-.34,2.25,2.25,0,0,1,2-1.06c1.25-.08,2.49-.27,3.73-.4.29,0,.58,0,1.06-.07l-.91.74c-1,.83-2,1.64-3,2.47a.94.94,0,0,0-.25,1.43,1,1,0,0,0,1.51.17l.54-.41c1.67-1.32,3.4-2.59,5-4a4.34,4.34,0,0,1,3.41-1c-1.3,1.06-2.49,2-3.71,3-.59.46-.88,1-.35,1.62s1.1.43,1.67,0C976,46,978,44.59,979.77,43c.93-.8,1.94-.77,3.23-.85l-.78.7c-1,.84-2.12,1.64-3.1,2.55a1.37,1.37,0,0,0-.23,1.24c.12.28.69.48,1.07.5s.62-.3.89-.52c1.82-1.45,3.61-2.94,5.47-4.35a3.73,3.73,0,0,1,1.71-.69c2.73-.36,5.47-.63,8.21-.94,1.4-.15,1.84.48,1.26,1.8-1.08,2.45-2.14,4.91-3.27,7.34a3.28,3.28,0,0,1-1.08,1.26c-2,1.42-4.12,2.79-6.19,4.17-.59.4-.87.92-.45,1.54a1.06,1.06,0,0,0,1.6.19c.26-.17.52-.37.79-.54,1-.69,2.08-1.37,3.27-2.15A4.87,4.87,0,0,1,990,57.42c-2,1.19-3.83,2.54-5.74,3.81a1,1,0,0,0-.35,1.56c.4.58,1,.5,1.52.14l2-1.32,2.18-1.45c-.8,2.14-.8,2.14-2.42,3.22L982,66.88c-.84.56-1.08,1.2-.65,1.73.56.68,1.17.45,1.78,0l4-2.7c-.89,2-1.66,3.79-2.47,5.54-.09.2-.45.26-.67.42a7.05,7.05,0,0,0-1.92,1.44,2.79,2.79,0,0,0,.7,3.7,2.92,2.92,0,0,0,4.36-3.71,1.26,1.26,0,0,1-.19-.85c.73-1.77,1.52-3.52,2.29-5.27a4.61,4.61,0,0,1,.36,1.35,37.37,37.37,0,0,0,.62,3.69,1.44,1.44,0,0,0,1.1.76c.55,0,.91-.41.83-1.05,0-.25,0-.51-.06-.76-.32-2.15-.54-4.33-1-6.45a5,5,0,0,1,.85-3.53c.26,1.73.51,3.27.73,4.82.1.73.45,1.24,1.23,1.14s.92-.75.82-1.46c-.36-2.34-.61-4.7-1.08-7a4.52,4.52,0,0,1,.87-3.16c.31,1.52.56,3,.77,4.54.11.72.39,1.29,1.2,1.17s1-.77.85-1.54c-.39-2.43-.76-4.87-1.08-7.31a3.19,3.19,0,0,1,.21-1.56c1.09-2.56,2.24-5.08,3.36-7.62a1.15,1.15,0,0,1,2.12-.22c1.53,2.08,3,4.2,4.6,6.24a4.7,4.7,0,0,1,1,2.9c.09,2.26.28,4.53.45,6.8,0,.66.38,1.11,1.09,1.06a1,1,0,0,0,1-1.2c0-.58-.07-1.15-.11-1.73-.06-1-.12-2-.18-3.12,1.53,1.12,1.6,2.65,1.67,4.2.09,2,.22,4,.41,5.94a1.54,1.54,0,0,0,.64,1,1.06,1.06,0,0,0,1-.16,1.92,1.92,0,0,0,.35-1.21c-.06-1.53-.18-3.05-.29-4.62,1.52,1.08,1.56,2.61,1.63,4.16.1,2,.22,4,.41,5.93a1.6,1.6,0,0,0,.65,1.06,1.09,1.09,0,0,0,1-.16,2,2,0,0,0,.34-1.22c0-1.52-.18-3-.28-4.57a55.3,55.3,0,0,1,3.52,4.58,1.23,1.23,0,0,1,0,.87,2.94,2.94,0,0,0,.47,2.64,2.91,2.91,0,0,0,3.64.81,2.85,2.85,0,0,0,1.53-3.12,2.88,2.88,0,0,0-2.84-2.39,1.26,1.26,0,0,1-.84-.29c-1.14-1.5-2.23-3-3.5-4.79l4.52,1.77c.67.25,1.37.42,1.7-.44s-.22-1.21-.93-1.49c-2-.78-4-1.68-6.06-2.36a4.82,4.82,0,0,1-2.88-2.59l4.12,1.61c.72.27,1.49.68,2-.31.33-.66-.08-1.18-1.18-1.62l-6-2.33a3.88,3.88,0,0,1-2.68-2.56l4.42,1.74c.63.25,1.24.27,1.55-.45s-.16-1.24-.86-1.51c-2.28-.9-4.58-1.79-6.85-2.72a2.94,2.94,0,0,1-1.21-.87c-1.76-2.35-3.47-4.73-5.19-7.11-.61-.85-.32-1.51.71-1.62,2.74-.3,5.47-.63,8.21-.86a4.28,4.28,0,0,1,2.09.38c2.21,1,4.36,2.13,6.56,3.15a1.57,1.57,0,0,0,1.22-.07,1,1,0,0,0,.34-.89,2,2,0,0,0-.84-.93c-1.37-.73-2.77-1.39-4.29-2.14a5.19,5.19,0,0,1,3.92.34c1.94,1.11,4,2,6,3,.6.3,1.24.35,1.6-.31s0-1.22-.66-1.56c-.4-.2-.81-.37-1.21-.57l-3.13-1.58a4.27,4.27,0,0,1,3.7.34,19.78,19.78,0,0,0,2.48,1.24c1.26.62,2.53,1.23,3.79,1.83a1,1,0,0,0,1.38-.44.93.93,0,0,0-.4-1.32,5.44,5.44,0,0,0-.67-.37c-1.27-.64-2.55-1.26-3.82-1.89C1032.5,36.89,1034.18,36.66,1035.84,36.4Zm-20.28,753.46a1.49,1.49,0,0,1,1.44.37,2.45,2.45,0,0,0,3.71-.34,2.55,2.55,0,0,0-.32-3.56,2.44,2.44,0,0,0-3.7.34,2.41,2.41,0,0,1-2,1.14c-1.11.15-2.21.35-3.32.53-.19,0-.39,0-.76,0,1.17-1,2.18-2,3.22-2.84.51-.43.78-.92.31-1.47s-1-.39-1.55.08c-1.49,1.34-3.05,2.61-4.49,4a4.24,4.24,0,0,1-3.15,1.12l3.23-2.83c.48-.42.8-.93.31-1.48s-1.06-.36-1.57.09c-1.51,1.35-3.09,2.64-4.55,4.05a4.2,4.2,0,0,1-3.13,1.07c1.12-1,2.14-1.92,3.18-2.81.5-.43.79-.91.32-1.46s-1-.43-1.56.06c-1.65,1.49-3.33,3-5,4.42a2.44,2.44,0,0,1-1.12.54c-2.54.43-5.1.82-7.65,1.22a1,1,0,0,1-1.14-1.39c.76-2,1.62-4,2.28-6A5.77,5.77,0,0,1,991,781.5c1.5-1,2.9-2.15,4.35-3.21a.89.89,0,0,0,.32-1.33.92.92,0,0,0-1.43-.17l-.75.56-2.82,2.09a4.51,4.51,0,0,1,2-3.06c1.62-1.09,3.14-2.3,4.7-3.46.52-.39.79-.89.35-1.48s-.95-.4-1.44,0l-.48.36-3,2.24c.43-1.69.57-1.9,1.79-2.81,1.61-1.19,3.21-2.4,4.81-3.6.45-.33.78-.71.53-1.31s-.9-.71-1.59-.21c-1.14.83-2.26,1.68-3.39,2.51a45.25,45.25,0,0,1,1.66-4.63,1.39,1.39,0,0,1,.72-.67,2.74,2.74,0,0,0,1.77-1.63,2.66,2.66,0,0,0-1.17-3.17,2.61,2.61,0,0,0-3.56,3.56c.13.24.35.55.28.75-.57,1.61-1.19,3.19-1.8,4.79a26.59,26.59,0,0,1-1-4c-.13-.66-.38-1.22-1.16-1.06s-.8.77-.66,1.43c.4,2,.7,4,1.21,5.9a4.56,4.56,0,0,1-.58,3.29c-.31-1.51-.6-2.85-.86-4.2-.12-.66-.41-1.19-1.16-1.06s-.79.77-.66,1.42c.41,2,.73,4,1.22,6a4.44,4.44,0,0,1-.63,3.26c-.09-.46-.16-.76-.22-1.06-.23-1.15-.45-2.31-.71-3.46-.13-.55-.55-.91-1.07-.69-.33.14-.54.63-.73,1-.07.14,0,.39.08.59.43,2.13.88,4.26,1.29,6.4a2.19,2.19,0,0,1-.08,1.08c-.93,2.52-1.89,5-2.86,7.54a1,1,0,0,1-1.72.22c-1.6-2-3.23-3.93-4.79-5.94a3.57,3.57,0,0,1-.65-1.61c-.3-2.16-.52-4.32-.79-6.49-.1-.83-.69-1.26-1.27-.87a1.58,1.58,0,0,0-.52,1.2c.08,1.38.28,2.75.45,4.23a4.12,4.12,0,0,1-1.65-3.19c0-1.09-.22-2.17-.35-3.25s-.21-1.88-.35-2.82c-.08-.56-.49-.94-1-.77a1.69,1.69,0,0,0-.78.94,2.38,2.38,0,0,0,.08,1c.13,1.16.27,2.32.41,3.56a4.14,4.14,0,0,1-1.61-3.21c-.07-1.4-.3-2.8-.47-4.19-.06-.57-.12-1.14-.2-1.71a.89.89,0,0,0-1.05-.88.86.86,0,0,0-.79,1c0,.46.11.91.16,1.37.11,1,.23,2,.36,3.29-1.16-1.42-2.14-2.65-3.14-3.85a1.26,1.26,0,0,1-.29-1.24,2.57,2.57,0,0,0-2.71-3.13,2.61,2.61,0,0,0,.09,5.21c.32,0,.77,0,.94.21,1.12,1.3,2.18,2.65,3.4,4.16l-4.2-1.41c-.62-.22-1.2-.22-1.44.46s.18,1.08.87,1.31c2,.63,3.88,1.39,5.86,2a4.53,4.53,0,0,1,2.45,2.11l-4.13-1.38c-.61-.21-1.21-.23-1.44.46s.18,1.08.86,1.3c1.83.59,3.61,1.31,5.46,1.81a4.62,4.62,0,0,1,2.87,2.31L969,780.84c-.65-.23-1.23-.22-1.46.54s.25,1,.87,1.22c2.09.69,4.18,1.39,6.26,2.12a2.66,2.66,0,0,1,1.1.73c1.69,2,3.33,4.08,5,6.12a1,1,0,0,1-.67,1.71c-2.47.4-4.93.82-7.4,1.17a3.41,3.41,0,0,1-1.64-.21c-2-.82-4-1.7-6-2.57-.6-.26-1.15-.31-1.45.37s.07,1.05.69,1.31c1.3.55,2.59,1.13,3.93,1.72a4.47,4.47,0,0,1-4-.35c-1.63-.77-3.29-1.47-5-2.14a1.62,1.62,0,0,0-1.18.1.92.92,0,0,0-.25.89,1.76,1.76,0,0,0,.85.76c1.22.56,2.46,1.07,3.85,1.66a4.2,4.2,0,0,1-3,.06c-1.86-.87-3.77-1.67-5.66-2.48-.61-.26-1.27-.56-1.7.28-.3.57,0,1,.94,1.43l.32.13,3.12,1.36c-1.43.3-3,.62-4.51,1a1.12,1.12,0,0,1-1.2-.35,2.52,2.52,0,0,0-3.67.2,2.57,2.57,0,0,0,.3,3.75,2.49,2.49,0,0,0,3.7-.5,2,2,0,0,1,1.76-1c1.11-.13,2.21-.35,3.31-.53l1-.11-.78.71c-.88.78-1.76,1.56-2.62,2.34a.84.84,0,0,0-.16,1.29.87.87,0,0,0,1.36.09l.46-.39c1.44-1.26,2.94-2.47,4.3-3.81a3.91,3.91,0,0,1,3-1c-1.12,1-2.14,1.94-3.19,2.84-.5.44-.74.92-.24,1.47s1,.33,1.49-.11c1.61-1.42,3.27-2.78,4.82-4.25a4.38,4.38,0,0,1,2.86-.91l-.67.66c-.89.8-1.83,1.57-2.66,2.43a1.21,1.21,0,0,0-.15,1.11c.12.24.64.4,1,.4s.54-.29.77-.5c1.57-1.38,3.1-2.79,4.7-4.14a3.23,3.23,0,0,1,1.5-.69c2.43-.44,4.87-.81,7.3-1.2,1.25-.21,1.68.34,1.21,1.54-.85,2.25-1.69,4.5-2.59,6.72a3,3,0,0,1-.91,1.18c-1.76,1.36-3.57,2.68-5.36,4-.51.38-.73.87-.33,1.4a.94.94,0,0,0,1.43.1c.24-.17.46-.35.69-.52l2.83-2.07a4.34,4.34,0,0,1-1.78,2.9c-1.71,1.16-3.31,2.45-5,3.67a.91.91,0,0,0-.25,1.41c.39.5.9.41,1.37.06s1.16-.84,1.73-1.27l1.89-1.39c-.62,2-.62,2-2,3s-3,2.24-4.55,3.37c-.72.54-.91,1.12-.5,1.58s1.07.35,1.6-.05l3.48-2.6c-.71,1.85-1.31,3.47-2,5.07-.07.18-.39.25-.58.4a6.28,6.28,0,0,0-1.65,1.38,2.49,2.49,0,0,0,.78,3.28,2.66,2.66,0,0,0,3.2-.15,2.61,2.61,0,0,0,.54-3.36c-.12-.23-.28-.55-.21-.76.58-1.62,1.2-3.21,1.81-4.82a4,4,0,0,1,.39,1.2c.22,1.1.39,2.21.71,3.27a1.34,1.34,0,0,0,1,.63c.49,0,.79-.4.69-1,0-.23,0-.46-.09-.68-.37-1.92-.67-3.85-1.17-5.73a4.48,4.48,0,0,1,.6-3.2c.31,1.54.6,2.91.87,4.28.13.65.46,1.1,1.16,1s.79-.71.66-1.34c-.42-2.08-.75-4.18-1.27-6.24a4,4,0,0,1,.63-2.87c.35,1.35.63,2.69.9,4,.12.64.4,1.14,1.12,1s.83-.72.69-1.41c-.45-2.16-.89-4.32-1.29-6.49a2.82,2.82,0,0,1,.12-1.41c.86-2.33,1.78-4.65,2.67-7a1,1,0,0,1,1.89-.29c1.46,1.8,2.88,3.63,4.39,5.38a4.29,4.29,0,0,1,1,2.55c.18,2,.45,4,.7,6.06.07.6.4,1,1,.9a.89.89,0,0,0,.8-1.11c0-.52-.11-1-.17-1.54-.1-.91-.2-1.82-.3-2.78,1.42.93,1.55,2.29,1.68,3.68.17,1.77.37,3.53.63,5.29a1.37,1.37,0,0,0,.62.91,1,1,0,0,0,.92-.18,1.73,1.73,0,0,0,.25-1.1c-.11-1.37-.3-2.72-.46-4.12,1.4.89,1.51,2.27,1.65,3.65.17,1.76.37,3.53.62,5.29a1.38,1.38,0,0,0,.63.91,1,1,0,0,0,.91-.19,1.65,1.65,0,0,0,.26-1.1c-.12-1.36-.3-2.72-.46-4.08a51.3,51.3,0,0,1,3.36,3.95,1.13,1.13,0,0,1,0,.78,2.61,2.61,0,0,0,3.84,2.9,2.57,2.57,0,0,0,1.23-2.86,2.6,2.6,0,0,0-2.65-2,1.09,1.09,0,0,1-.76-.22c-1.09-1.29-2.14-2.62-3.35-4.13l4.12,1.38c.61.2,1.25.32,1.51-.46s-.26-1.08-.9-1.29c-1.85-.61-3.67-1.33-5.54-1.85a4.37,4.37,0,0,1-2.69-2.19l3.77,1.26c.65.21,1.36.54,1.75-.37.26-.6-.12-1.05-1.13-1.39-1.82-.62-3.64-1.22-5.45-1.82a3.49,3.49,0,0,1-2.51-2.18l4,1.37c.57.19,1.12.18,1.36-.48s-.19-1.1-.83-1.31c-2.08-.71-4.18-1.39-6.25-2.13a2.55,2.55,0,0,1-1.12-.72c-1.68-2-3.32-4.08-5-6.14-.58-.73-.35-1.33.57-1.48,2.43-.39,4.87-.81,7.31-1.13a4.07,4.07,0,0,1,1.89.24c2,.8,4,1.72,6,2.53a1.42,1.42,0,0,0,1.08-.11.86.86,0,0,0,.27-.81,1.77,1.77,0,0,0-.8-.8c-1.25-.59-2.53-1.12-3.92-1.72a4.6,4.6,0,0,1,3.52.13c1.78.9,3.66,1.62,5.5,2.41.55.23,1.12.25,1.41-.35s-.06-1.1-.66-1.37c-.36-.16-.74-.3-1.11-.46l-2.87-1.28a3.82,3.82,0,0,1,3.33.15,17.88,17.88,0,0,0,2.28,1c1.15.49,2.31,1,3.47,1.47a.86.86,0,0,0,1.22-.46.83.83,0,0,0-.42-1.16,5,5,0,0,0-.61-.31l-3.51-1.52Zm90.6-461.32a1.52,1.52,0,0,1,1.25-.86,2.48,2.48,0,0,0,2.2-3.07,2.6,2.6,0,0,0-2.94-2.11,2.47,2.47,0,0,0-2.2,3.06,2.44,2.44,0,0,1-.45,2.29c-.62.95-1.2,1.93-1.8,2.89-.11.17-.25.32-.47.61,0-1.57,0-3,0-4.35,0-.67-.19-1.2-.92-1.21s-1,.54-1,1.25c0,2,0,4.06.08,6.08a4.26,4.26,0,0,1-1.22,3.15c0-1.52,0-2.93,0-4.34,0-.64-.18-1.23-.93-1.22s-1,.57-1,1.26c0,2.06,0,4.12.09,6.17a4.28,4.28,0,0,1-1.26,3.11c0-1.53-.06-2.91,0-4.3,0-.67-.18-1.21-.91-1.22s-1,.5-1,1.23q.08,3.39,0,6.78a2.48,2.48,0,0,1-.33,1.22c-1.35,2.24-2.75,4.45-4.13,6.67a1,1,0,0,1-1.82,0c-1-1.92-2-3.88-3.1-5.74a5.9,5.9,0,0,1-.84-4c.23-1.81.27-3.64.42-5.46,0-.63-.2-1.05-.81-1.12s-1,.33-1.07,1c0,.31,0,.63-.07.95-.08,1.13-.17,2.26-.26,3.54a4.54,4.54,0,0,1-1-3.56c.24-1.95.32-3.92.46-5.89.05-.65-.16-1.19-.9-1.24s-.93.46-1,1.08c0,.2,0,.4,0,.6-.09,1.24-.19,2.47-.29,3.81-1-1.45-1.08-1.69-1-3.23.15-2,.29-4,.44-6.06,0-.56,0-1.07-.66-1.27s-1.14.21-1.21,1.07c-.13,1.42-.22,2.84-.33,4.26a47,47,0,0,1-2.45-4.34,1.38,1.38,0,0,1,0-1,2.8,2.8,0,0,0-.08-2.43,2.68,2.68,0,0,0-3.2-1.2,2.64,2.64,0,0,0,.37,5.08c.26.06.65.1.76.28.85,1.5,1.65,3,2.47,4.55a26.36,26.36,0,0,1-3.68-1.85c-.6-.34-1.19-.52-1.58.19s0,1.12.65,1.45c1.77,1,3.5,2.09,5.32,3a4.66,4.66,0,0,1,2.13,2.63c-1.35-.76-2.57-1.43-3.78-2.13-.59-.34-1.18-.47-1.58.19s.06,1.11.65,1.44c1.79,1,3.55,2.11,5.39,3a4.51,4.51,0,0,1,2.07,2.65l-.95-.54c-1-.58-2.07-1.18-3.12-1.74-.51-.27-1.06-.19-1.24.36a2.08,2.08,0,0,0,.28,1.21c.06.15.32.23.49.33,1.93,1.08,3.86,2.15,5.77,3.26a2.18,2.18,0,0,1,.77.77q2,3.58,3.87,7.19a1,1,0,0,1-1,1.46c-2.58-.08-5.15-.13-7.73-.27a3.59,3.59,0,0,1-1.66-.57c-1.85-1.19-3.66-2.47-5.49-3.69-.71-.47-1.43-.31-1.52.39a1.61,1.61,0,0,0,.58,1.19c1.11.86,2.29,1.61,3.53,2.46a4.13,4.13,0,0,1-3.53-.85c-.86-.69-1.81-1.26-2.72-1.88s-1.58-1.09-2.39-1.6a.8.8,0,0,0-1.26.26,1.64,1.64,0,0,0,.2,1.22c.14.28.54.42.82.62l3,2a4.15,4.15,0,0,1-3.52-.9c-1.13-.87-2.35-1.62-3.52-2.42-.48-.32-1-.66-1.44-1a.9.9,0,0,0-1.37.22.86.86,0,0,0,.27,1.29c.38.28.77.53,1.15.79l2.76,1.9c-1.86-.06-3.45-.11-5-.14a1.29,1.29,0,0,1-1.13-.6,2.6,2.6,0,0,0-4.19,0,2.64,2.64,0,0,0,4,3.38c.23-.23.52-.58.79-.58,1.73,0,3.47.09,5.44.15-1.43.84-2.64,1.57-3.87,2.28-.57.33-1,.78-.59,1.41s1,.58,1.57.2c1.78-1.08,3.64-2,5.38-3.19a4.65,4.65,0,0,1,3.24-.48c-1.36.81-2.58,1.54-3.8,2.25-.56.33-1,.77-.6,1.41s.95.58,1.57.2c1.66-1,3.4-1.9,5-3a4.76,4.76,0,0,1,3.67-.67c-1.31.78-2.52,1.51-3.74,2.22-.6.35-1,.8-.55,1.47s1,.49,1.51.15c1.92-1.14,3.83-2.28,5.77-3.39a2.7,2.7,0,0,1,1.29-.36c2.67.05,5.33.15,8,.25a1,1,0,0,1,.86,1.64c-1.33,2.15-2.64,4.32-4,6.44a3.29,3.29,0,0,1-1.25,1.12c-2,1-4,1.94-5.94,2.89-.6.29-1,.67-.68,1.35s.86.65,1.47.35c1.28-.64,2.58-1.24,3.91-1.87a4.55,4.55,0,0,1-2.91,2.83c-1.68.73-3.31,1.54-4.93,2.38a1.56,1.56,0,0,0-.7,1,1,1,0,0,0,.5.79,1.85,1.85,0,0,0,1.15-.15c1.24-.56,2.45-1.17,3.83-1.84a4.26,4.26,0,0,1-1.93,2.31c-1.9.85-3.77,1.78-5.65,2.69-.61.3-1.27.61-.92,1.49.24.61.8.67,1.73.23l.3-.16,3.11-1.48c-.71,1.29-1.49,2.68-2.25,4.08a1.14,1.14,0,0,1-1.06.69,2.55,2.55,0,0,0-2.28,2.94,2.6,2.6,0,0,0,3.07,2.25,2.52,2.52,0,0,0,2.07-3.16,2,2,0,0,1,.37-2c.64-.93,1.2-1.92,1.8-2.89.14-.22.29-.43.54-.79,0,.49,0,.78,0,1.07,0,1.18,0,2.37.06,3.56,0,.56.28,1,.88,1a.88.88,0,0,0,1-1c0-.21,0-.41,0-.61,0-1.94,0-3.89-.06-5.82a3.91,3.91,0,0,1,1.18-3c0,1.52.06,2.92.07,4.32,0,.68.21,1.18,1,1.16s.92-.54.91-1.21c0-2.17,0-4.35-.07-6.52a4.42,4.42,0,0,1,1.2-2.78c0,.45.06.7.06,1,0,1.21,0,2.43.1,3.64a1.24,1.24,0,0,0,.75.86c.26.07.73-.23,1-.49s.13-.61.13-.92c0-2.11-.09-4.23-.06-6.34a3.52,3.52,0,0,1,.46-1.61c1.28-2.15,2.61-4.26,3.92-6.39.68-1.09,1.37-1.06,2,.1,1.15,2.14,2.32,4.28,3.42,6.44a3,3,0,0,1,.3,1.47c-.12,2.26-.31,4.51-.48,6.76,0,.65.17,1.14.85,1.18s1-.4,1-1c0-.29,0-.58,0-.87.09-1.12.19-2.25.29-3.54a4.38,4.38,0,0,1,1,3.29c-.24,2.07-.32,4.16-.48,6.23a.92.92,0,0,0,.92,1.13c.64,0,.9-.41,1-1s.12-1.44.17-2.17.12-1.46.18-2.36c1.09,1.76,1.09,1.77,1,3.52q-.23,2.86-.44,5.71c-.07.91.25,1.44.87,1.43.8,0,1-.58,1-1.25.1-1.38.21-2.76.33-4.39.94,1.76,1.78,3.3,2.57,4.86.09.18-.06.47-.07.71a6.17,6.17,0,0,0,0,2.18,2.51,2.51,0,0,0,3,1.57,2.65,2.65,0,0,0-.21-5.19c-.26-.05-.61-.15-.72-.34-.85-1.51-1.66-3.05-2.49-4.58a4.08,4.08,0,0,1,1.18.5,32.94,32.94,0,0,0,3,1.62,1.31,1.31,0,0,0,1.15-.37.74.74,0,0,0-.28-1.17c-.2-.12-.38-.27-.58-.38-1.72-1-3.39-2-5.16-2.91a4.46,4.46,0,0,1-2.05-2.57c1.38.77,2.62,1.46,3.85,2.17.58.33,1.14.37,1.51-.25s0-1.07-.59-1.39c-1.87-1.06-3.7-2.2-5.62-3.16a4.15,4.15,0,0,1-1.78-2.39c1.27.62,2.48,1.3,3.68,2,.57.32,1.14.45,1.51-.21s0-1.12-.62-1.46c-2-1.09-3.91-2.18-5.83-3.32a2.87,2.87,0,0,1-1-1c-1.22-2.21-2.38-4.44-3.57-6.66a1,1,0,0,1,1-1.64c2.34.07,4.69.19,7,.2a4.37,4.37,0,0,1,2.64.89c1.67,1.21,3.4,2.33,5.11,3.49a.89.89,0,0,0,1.37-.2.91.91,0,0,0-.32-1.35l-1.29-.89c-.77-.52-1.53-1.05-2.33-1.61,1.65-.47,2.78.33,3.93,1.15,1.47,1,3,2.06,4.47,3a1.44,1.44,0,0,0,1.11.13,1,1,0,0,0,.46-.83,1.73,1.73,0,0,0-.67-.92c-1.12-.82-2.28-1.58-3.46-2.38,1.62-.48,2.74.35,3.88,1.16,1.47,1,3,2.06,4.47,3a1.41,1.41,0,0,0,1.12.12,1,1,0,0,0,.46-.82,1.73,1.73,0,0,0-.68-.93c-1.12-.81-2.28-1.57-3.42-2.35a50.78,50.78,0,0,1,5.24,0c.22,0,.47.28.63.48a2.64,2.64,0,0,0,4.76-1,2.65,2.65,0,0,0-4.67-2.14c-.18.19-.45.44-.67.44-1.71,0-3.42-.11-5.39-.18,1.41-.83,2.61-1.53,3.79-2.24.56-.34,1.07-.75.64-1.46s-1-.52-1.58-.17c-1.69,1-3.44,1.93-5.08,3a4.44,4.44,0,0,1-3.46.61l3.45-2.06c.6-.35,1.33-.68.89-1.59-.29-.59-.89-.6-1.82-.05l-5,3a3.51,3.51,0,0,1-3.32.48l3.71-2.18c.53-.32.88-.74.55-1.36s-1-.58-1.57-.24c-1.92,1.13-3.83,2.28-5.77,3.38a2.61,2.61,0,0,1-1.29.38c-2.67-.06-5.33-.16-8-.27-.95,0-1.25-.61-.76-1.41,1.31-2.12,2.61-4.26,4-6.35a4,4,0,0,1,1.44-1.28c2-1,4-1.92,5.92-2.93a1.47,1.47,0,0,0,.63-.91.87.87,0,0,0-.45-.73,1.69,1.69,0,0,0-1.13.08c-1.29.56-2.54,1.2-3.93,1.86A4.71,4.71,0,0,1,1100,340c1.87-.76,3.66-1.73,5.49-2.61.55-.27.94-.7.67-1.32s-.88-.68-1.49-.4c-.36.17-.72.37-1.08.55l-2.88,1.35a3.84,3.84,0,0,1,2.31-2.45,20.57,20.57,0,0,0,2.28-1.08l3.43-1.69a.87.87,0,0,0,.45-1.24.84.84,0,0,0-1.16-.44,5.18,5.18,0,0,0-.65.26l-3.49,1.68C1104.65,331.2,1105.42,329.87,1106.16,328.54ZM65.72,520.15a1.63,1.63,0,0,1,1.54-.5,2.64,2.64,0,0,0,3.18-2.47,2.75,2.75,0,0,0-2.37-3.06,2.63,2.63,0,0,0-3.18,2.46,2.64,2.64,0,0,1-1.16,2.22c-.93.78-1.82,1.61-2.72,2.41-.17.14-.35.25-.68.48.47-1.62.86-3.05,1.29-4.47.21-.69.17-1.29-.58-1.52s-1.17.25-1.37,1c-.58,2.09-1.26,4.16-1.77,6.26a4.5,4.5,0,0,1-2.21,2.86c.46-1.56.88-3,1.3-4.46.19-.66.18-1.31-.58-1.53s-1.18.28-1.38,1c-.6,2.11-1.29,4.21-1.79,6.35A4.56,4.56,0,0,1,51,530c.44-1.57.83-3,1.26-4.42.21-.69.19-1.29-.55-1.52s-1.18.2-1.39,1q-1,3.49-2,7a2.62,2.62,0,0,1-.72,1.15c-2.06,1.88-4.16,3.73-6.26,5.58a1.09,1.09,0,0,1-1.86-.6c-.47-2.28-.84-4.58-1.42-6.82a6.27,6.27,0,0,1,.36-4.39c.79-1.78,1.39-3.65,2.09-5.47A1,1,0,0,0,40,520a1,1,0,0,0-1.4.68c-.13.31-.24.64-.36,1l-1.35,3.55a4.83,4.83,0,0,1,0-4c.84-1.93,1.53-3.93,2.27-5.9.25-.66.2-1.27-.55-1.55s-1.1.18-1.33.81c-.07.2-.15.4-.22.61-.48,1.23-1,2.47-1.47,3.81-.59-1.79-.59-2.06,0-3.6l2.29-6.09c.21-.56.29-1.1-.29-1.5s-1.23-.13-1.57.73c-.56,1.42-1.09,2.85-1.63,4.27a49.82,49.82,0,0,1-1.19-5.2,1.47,1.47,0,0,1,.27-1,3,3,0,0,0,.66-2.52,2.87,2.87,0,0,0-2.91-2.2,2.82,2.82,0,0,0-1.17,5.31c.25.15.64.31.69.53.42,1.79.77,3.61,1.15,5.42a30,30,0,0,1-3.22-3c-.5-.53-1-.89-1.67-.29s-.28,1.16.23,1.69c1.51,1.56,2.95,3.2,4.54,4.67a5,5,0,0,1,1.39,3.35c-1.16-1.2-2.2-2.26-3.23-3.34-.5-.53-1.07-.84-1.68-.28s-.27,1.16.23,1.67c1.53,1.59,3,3.24,4.6,4.75a4.79,4.79,0,0,1,1.32,3.34l-.81-.84c-.89-.91-1.77-1.84-2.67-2.74-.44-.43-1-.51-1.38,0a2.31,2.31,0,0,0-.08,1.32c0,.18.25.34.4.49,1.65,1.7,3.3,3.38,4.92,5.1a2.26,2.26,0,0,1,.56,1q.93,4.26,1.78,8.54a1,1,0,0,1-1.43,1.21c-2.62-.87-5.24-1.7-7.84-2.63a3.85,3.85,0,0,1-1.53-1.09c-1.54-1.79-3-3.65-4.51-5.46-.58-.69-1.37-.75-1.67-.06a1.68,1.68,0,0,0,.23,1.4c.87,1.21,1.86,2.35,2.87,3.6a4.49,4.49,0,0,1-3.36-1.95c-.67-1-1.47-1.85-2.22-2.76s-1.28-1.6-2-2.37a.86.86,0,0,0-1.38-.11,1.81,1.81,0,0,0-.16,1.31c.06.32.43.59.66.88l2.45,3a4.47,4.47,0,0,1-3.34-2c-.89-1.23-1.91-2.37-2.87-3.54-.39-.48-.78-1-1.18-1.44a1,1,0,0,0-1.47-.19.93.93,0,0,0-.12,1.41c.31.39.63.77.94,1.15l2.26,2.79C9.65,531.1,8,530.56,6.42,530a1.36,1.36,0,0,1-1-1,2.81,2.81,0,1,0-5,2.55,2.82,2.82,0,0,0,3.78.88c.31-.17.71-.44,1-.36,1.78.53,3.54,1.14,5.54,1.81-1.72.43-3.19.81-4.66,1.16-.69.17-1.22.5-1,1.27s.8.88,1.55.68c2.16-.56,4.35-1,6.48-1.64a5,5,0,0,1,3.47.5L12,537.08c-.67.17-1.23.49-1,1.26s.8.89,1.55.69c2-.53,4.06-.91,6-1.54a5,5,0,0,1,4,.44L18,539.06c-.73.17-1.25.52-1,1.34s.83.79,1.51.61c2.31-.59,4.63-1.17,7-1.71a2.77,2.77,0,0,1,1.43,0c2.72.86,5.42,1.78,8.12,2.68a1.07,1.07,0,0,1,.37,2c-2,1.8-4,3.62-6.06,5.38a3.62,3.62,0,0,1-1.63.77c-2.31.43-4.64.79-7,1.15-.71.11-1.24.39-1.12,1.18s.69.93,1.4.8c1.51-.26,3-.48,4.59-.72a4.85,4.85,0,0,1-3.85,2c-1.94.24-3.87.57-5.78.94a1.74,1.74,0,0,0-1,.78,1,1,0,0,0,.28,1,2,2,0,0,0,1.22.19c1.44-.19,2.87-.45,4.49-.72a4.68,4.68,0,0,1-2.69,1.79c-2.21.29-4.41.67-6.61,1-.71.12-1.48.23-1.39,1.25.06.7.62.93,1.69.76l.37-.07,3.64-.58c-1.12,1.11-2.35,2.3-3.55,3.5a1.23,1.23,0,0,1-1.3.39,2.74,2.74,0,0,0-3.24,2.32,2.78,2.78,0,0,0,2.46,3.24,2.69,2.69,0,0,0,3.09-2.6,2.22,2.22,0,0,1,1-2c.94-.76,1.82-1.6,2.72-2.41.21-.18.44-.35.81-.65-.15.51-.23.81-.31,1.1-.34,1.23-.69,2.45-1,3.67a.9.9,0,0,0,.61,1.26.93.93,0,0,0,1.29-.71c.06-.2.13-.41.19-.62.58-2,1.24-4,1.71-6a4.12,4.12,0,0,1,2.13-2.72c-.44,1.57-.83,3-1.26,4.45-.2.7-.14,1.28.64,1.48s1.1-.27,1.3-1c.63-2.24,1.36-4.45,1.91-6.7.29-1.16,1.11-1.71,2.08-2.49-.1.47-.15.73-.23,1-.34,1.25-.75,2.5-1,3.77a1.37,1.37,0,0,0,.51,1.1,1.33,1.33,0,0,0,1.13-.2c.24-.16.32-.59.42-.91.62-2.17,1.2-4.36,1.87-6.52a3.72,3.72,0,0,1,1-1.51c2-1.81,4-3.57,6-5.35,1-.91,1.72-.67,2,.7.52,2.55,1.06,5.09,1.54,7.65a3.23,3.23,0,0,1-.14,1.6c-.81,2.27-1.69,4.52-2.55,6.78-.25.65-.17,1.22.51,1.47s1.12-.11,1.37-.74c.11-.29.2-.59.32-.88.43-1.13.87-2.25,1.38-3.54a4.73,4.73,0,0,1,.06,3.69c-.88,2-1.59,4.16-2.39,6.24a1,1,0,0,0,.59,1.43c.65.24,1.06-.14,1.29-.74l.84-2.17c.28-.73.56-1.46.9-2.37.57,2.14.58,2.14-.09,3.9s-1.47,3.82-2.19,5.73c-.35.91-.18,1.55.46,1.73.83.22,1.18-.31,1.43-1,.51-1.38,1-2.76,1.66-4.4.43,2.1.82,3.93,1.17,5.77,0,.21-.21.46-.3.7a6.65,6.65,0,0,0-.7,2.22,2.69,2.69,0,0,0,2.63,2.54,2.88,2.88,0,0,0,2.83-2A2.83,2.83,0,0,0,48,576.76c-.25-.14-.58-.34-.63-.57-.42-1.81-.78-3.64-1.16-5.46a4.39,4.39,0,0,1,1,.87c.85.87,1.65,1.79,2.56,2.57a1.42,1.42,0,0,0,1.3,0,.79.79,0,0,0,.07-1.29c-.17-.19-.31-.39-.48-.57-1.46-1.53-2.85-3.13-4.41-4.55A4.83,4.83,0,0,1,45,564.47c1.19,1.22,2.25,2.3,3.3,3.4.49.52,1,.73,1.61.21s.31-1.11-.17-1.61c-1.6-1.65-3.13-3.38-4.8-5a4.35,4.35,0,0,1-1.1-3c1.11,1,2.15,2.08,3.17,3.15.49.51,1,.81,1.61.25s.33-1.15-.2-1.69c-1.67-1.71-3.34-3.42-5-5.18a2.94,2.94,0,0,1-.71-1.35c-.58-2.63-1.09-5.28-1.63-7.92a1.11,1.11,0,0,1,1.55-1.36c2.38.79,4.74,1.63,7.15,2.35a4.64,4.64,0,0,1,2.43,1.71c1.34,1.75,2.77,3.43,4.18,5.13a.94.94,0,0,0,1.46.22,1,1,0,0,0,.08-1.48c-.34-.45-.7-.87-1.05-1.31L55,548.7c1.84,0,2.75,1.19,3.68,2.37,1.19,1.52,2.4,3,3.66,4.47a1.54,1.54,0,0,0,1.1.47,1,1,0,0,0,.73-.71,1.88,1.88,0,0,0-.41-1.15c-.9-1.17-1.86-2.31-2.82-3.49,1.8,0,2.7,1.19,3.63,2.37,1.19,1.51,2.4,3,3.65,4.47a1.56,1.56,0,0,0,1.11.47,1,1,0,0,0,.72-.71,1.8,1.8,0,0,0-.41-1.15c-.9-1.18-1.86-2.31-2.79-3.46a53,53,0,0,1,5.36,1.64c.22.08.39.43.5.69a2.82,2.82,0,0,0,5.19.41,2.83,2.83,0,0,0-4.14-3.62,1.27,1.27,0,0,1-.82.24c-1.75-.54-3.48-1.15-5.47-1.82L72,549.05c.67-.17,1.32-.44,1.1-1.3s-.86-.84-1.57-.66c-2,.52-4.12.93-6.13,1.55a4.7,4.7,0,0,1-3.73-.43c1.48-.37,2.82-.7,4.17-1.05.71-.19,1.56-.3,1.39-1.36-.12-.7-.73-.89-1.85-.61l-6,1.52a3.75,3.75,0,0,1-3.55-.52l4.47-1.11c.64-.16,1.13-.48,1-1.23s-.82-.89-1.53-.71c-2.31.57-4.62,1.17-6.94,1.71a3,3,0,0,1-1.45,0c-2.71-.87-5.41-1.79-8.11-2.71-1-.32-1.1-1-.34-1.68,2-1.77,4-3.57,6-5.29a4.16,4.16,0,0,1,1.86-.88c2.31-.45,4.65-.77,7-1.2a1.52,1.52,0,0,0,.92-.74.89.89,0,0,0-.23-.89,1.89,1.89,0,0,0-1.19-.26c-1.49.19-3,.45-4.59.72A5,5,0,0,1,55.9,530c2.16-.21,4.29-.66,6.43-1,.64-.11,1.17-.43,1.08-1.14s-.69-1-1.39-.87c-.43.07-.86.17-1.28.23l-3.37.51a4.08,4.08,0,0,1,3.12-1.8,22,22,0,0,0,2.66-.42c1.35-.23,2.69-.45,4-.69a.93.93,0,0,0,.84-1.13.9.9,0,0,0-1.06-.81,6,6,0,0,0-.73.08c-1.37.21-2.73.44-4.09.66C63.35,522.41,64.55,521.29,65.72,520.15ZM257.74,871a1.56,1.56,0,0,1,1.09-1.11,2.54,2.54,0,0,0,1.6-3.51,2.64,2.64,0,0,0-3.37-1.55,2.53,2.53,0,0,0-1.61,3.5,2.49,2.49,0,0,1,0,2.4c-.44,1.08-.83,2.18-1.24,3.26a6.77,6.77,0,0,1-.36.71c-.32-1.58-.63-3-.89-4.37-.13-.67-.43-1.17-1.17-1s-.88.73-.72,1.44c.43,2,.77,4.09,1.28,6.1a4.35,4.35,0,0,1-.61,3.41c-.31-1.53-.6-2.94-.88-4.36-.13-.65-.43-1.2-1.18-1s-.87.77-.73,1.47c.44,2.06.78,4.14,1.31,6.18a4.38,4.38,0,0,1-.66,3.38c-.32-1.53-.63-2.92-.89-4.32-.13-.67-.41-1.18-1.15-1s-.91.7-.75,1.43q.74,3.39,1.38,6.81a2.57,2.57,0,0,1-.09,1.29c-.92,2.52-1.89,5-2.84,7.52a1,1,0,0,1-1.85.32c-1.4-1.73-2.74-3.52-4.24-5.16a6.1,6.1,0,0,1-1.64-3.89c-.12-1.87-.44-3.72-.65-5.58-.07-.64-.41-1-1-1s-1,.54-.89,1.2c0,.32.08.65.12,1,.14,1.15.27,2.31.43,3.61a4.65,4.65,0,0,1-1.74-3.37c-.14-2-.44-4-.69-6-.08-.66-.39-1.17-1.15-1.07s-.85.64-.77,1.28c0,.2.05.41.08.61.14,1.26.29,2.53.45,3.9-1.3-1.26-1.42-1.5-1.6-3.06-.25-2.07-.51-4.13-.76-6.19-.07-.57-.25-1.07-.91-1.15s-1.11.44-1,1.32c.15,1.45.34,2.9.51,4.35a44.66,44.66,0,0,1-3.32-3.89,1.44,1.44,0,0,1-.23-1,2.89,2.89,0,0,0-.55-2.43,2.76,2.76,0,0,0-3.46-.58,2.7,2.7,0,0,0,1.37,5c.28,0,.68,0,.81.14,1.16,1.34,2.27,2.72,3.39,4.09a27.34,27.34,0,0,1-4.07-1.13c-.66-.23-1.29-.29-1.55.49s.28,1.12.94,1.34c2,.65,3.93,1.41,5.94,1.95a4.73,4.73,0,0,1,2.66,2.22c-1.51-.5-2.87-.93-4.22-1.4-.66-.22-1.28-.24-1.55.51s.28,1.1.93,1.32c2,.66,4,1.42,6,2a4.61,4.61,0,0,1,2.61,2.25l-1.07-.35c-1.16-.39-2.31-.78-3.48-1.14-.56-.18-1.1,0-1.17.6a2.2,2.2,0,0,0,.51,1.17c.09.14.37.17.57.23,2.15.71,4.3,1.41,6.44,2.15a2.09,2.09,0,0,1,.93.62c1.79,2.14,3.55,4.3,5.31,6.47A1,1,0,0,1,241,901c-2.61.43-5.21.88-7.83,1.25a3.63,3.63,0,0,1-1.78-.25c-2.1-.84-4.17-1.76-6.26-2.63-.8-.34-1.49,0-1.44.69a1.64,1.64,0,0,0,.81,1.09c1.29.64,2.63,1.16,4,1.77a4.24,4.24,0,0,1-3.72-.16c-1-.52-2.07-.91-3.1-1.36s-1.81-.78-2.72-1.14c-.55-.21-1.11,0-1.22.52a1.67,1.67,0,0,0,.44,1.19c.2.25.62.31.95.45l3.42,1.47a4.3,4.3,0,0,1-3.73-.21c-1.3-.65-2.67-1.17-4-1.74-.55-.23-1.09-.48-1.64-.7a.92.92,0,0,0-1.33.5.88.88,0,0,0,.53,1.24c.43.21.87.38,1.31.57l3.15,1.37c-1.88.31-3.49.56-5.1.84a1.3,1.3,0,0,1-1.25-.38,2.67,2.67,0,0,0-4.22.83,2.71,2.71,0,0,0,4.73,2.61c.19-.28.41-.69.68-.74,1.74-.34,3.51-.6,5.5-.92l-3.44,3.06c-.51.44-.82,1-.32,1.53s1.07.39,1.62-.11c1.58-1.44,3.26-2.77,4.78-4.27a4.74,4.74,0,0,1,3.17-1.12c-1.21,1.08-2.29,2-3.38,3-.5.44-.83,1-.33,1.54s1.07.39,1.62-.11c1.47-1.34,3-2.58,4.45-4a4.82,4.82,0,0,1,3.56-1.4c-1.17,1-2.24,2-3.33,3-.54.48-.83,1-.27,1.6s1.06.3,1.56-.15c1.7-1.53,3.4-3.05,5.13-4.54a2.57,2.57,0,0,1,1.23-.62c2.69-.48,5.39-.9,8.08-1.33,1-.15,1.54.54,1.19,1.49-.91,2.42-1.8,4.86-2.76,7.26a3.43,3.43,0,0,1-1,1.37c-1.77,1.4-3.59,2.74-5.41,4.08-.54.41-.87.88-.42,1.5s1,.48,1.55.06c1.16-.89,2.35-1.76,3.57-2.66a4.67,4.67,0,0,1-2.38,3.43c-1.53,1.06-3,2.2-4.49,3.36a1.63,1.63,0,0,0-.51,1.11c0,.23.41.66.66.69a1.92,1.92,0,0,0,1.13-.38c1.14-.8,2.23-1.66,3.49-2.61a4.39,4.39,0,0,1-1.49,2.71c-1.75,1.23-3.44,2.54-5.15,3.82-.56.42-1.16.86-.63,1.68.36.56.94.52,1.78-.11l.27-.22,2.84-2.11c-.46,1.44-1,3-1.46,4.55a1.18,1.18,0,0,1-.93.91,2.61,2.61,0,0,0-1.72,3.41A2.67,2.67,0,0,0,233,938.2a2.6,2.6,0,0,0,1.47-3.59,2.07,2.07,0,0,1,0-2.12c.46-1.06.83-2.17,1.24-3.25.09-.26.21-.5.39-.92.11.5.17.79.23,1.08.25,1.19.5,2.38.76,3.57.13.56.47.92,1.08.8a.9.9,0,0,0,.78-1.18c0-.2-.07-.41-.11-.61-.4-2-.71-3.92-1.21-5.84a4,4,0,0,1,.6-3.25c.32,1.52.64,2.93.92,4.33.13.68.44,1.15,1.19,1s.82-.73.68-1.4c-.46-2.18-.82-4.38-1.35-6.54a4.48,4.48,0,0,1,.66-3c.11.44.19.69.24.94.27,1.21.47,2.45.82,3.64a1.24,1.24,0,0,0,.92.71c.28,0,.7-.36.87-.67s0-.64-.05-1c-.44-2.13-.92-4.24-1.31-6.37a3.42,3.42,0,0,1,.15-1.71c.86-2.42,1.78-4.8,2.69-7.2.46-1.23,1.17-1.33,2-.29,1.57,1.93,3.17,3.85,4.71,5.8a3.23,3.23,0,0,1,.59,1.43c.31,2.29.57,4.59.84,6.89.08.66.4,1.11,1.09,1s.9-.59.83-1.24c0-.3-.09-.59-.12-.88-.13-1.15-.25-2.3-.4-3.63a4.52,4.52,0,0,1,1.69,3.11c.16,2.13.5,4.24.75,6.36a.93.93,0,0,0,1.14.95c.65-.09.83-.59.76-1.2s-.17-1.47-.25-2.21-.18-1.49-.29-2.42c1.44,1.57,1.44,1.57,1.65,3.36.23,1.94.45,3.89.69,5.83.11.93.54,1.4,1.16,1.26.8-.17.87-.77.78-1.45-.18-1.41-.34-2.82-.54-4.48,1.29,1.59,2.44,3,3.55,4.38.12.16,0,.48.06.73a6.51,6.51,0,0,0,.39,2.2,2.59,2.59,0,0,0,3.36,1,2.74,2.74,0,0,0,1.51-3,2.7,2.7,0,0,0-2.74-2.21,1.23,1.23,0,0,1-.79-.21c-1.16-1.35-2.28-2.74-3.41-4.12a4.46,4.46,0,0,1,1.28.27,32.76,32.76,0,0,0,3.32,1.05,1.36,1.36,0,0,0,1.09-.6c.26-.44,0-.92-.52-1.12-.22-.08-.43-.2-.66-.28-1.92-.64-3.81-1.38-5.76-1.9a4.54,4.54,0,0,1-2.57-2.19c1.54.51,2.93,1,4.3,1.43.66.22,1.23.15,1.47-.54s-.23-1.08-.87-1.29c-2.09-.7-4.15-1.48-6.27-2.07-1.17-.33-1.65-1.2-2.26-2,1.4.37,2.75.81,4.1,1.27.63.21,1.23.23,1.47-.5s-.23-1.13-.91-1.35c-2.19-.71-4.36-1.43-6.52-2.19a2.91,2.91,0,0,1-1.21-.84c-1.66-2-3.27-4-4.9-6a1.07,1.07,0,0,1,.71-1.85c2.38-.39,4.76-.73,7.12-1.18a4.45,4.45,0,0,1,2.83.37c1.91.89,3.88,1.68,5.82,2.5a.91.91,0,0,0,1.34-.46.93.93,0,0,0-.59-1.3c-.48-.22-1-.42-1.47-.64L261.3,900c1.57-.8,2.86-.22,4.18.38,1.68.76,3.38,1.49,5.09,2.17a1.46,1.46,0,0,0,1.14-.09,1,1,0,0,0,.31-.93,1.79,1.79,0,0,0-.86-.79c-1.29-.6-2.61-1.14-4-1.71,1.53-.8,2.82-.19,4.14.4,1.68.75,3.37,1.49,5.09,2.17a1.46,1.46,0,0,0,1.14-.1,1,1,0,0,0,.3-.92,1.75,1.75,0,0,0-.86-.79c-1.29-.6-2.6-1.14-3.91-1.7a52.77,52.77,0,0,1,5.29-1c.22,0,.52.19.72.36a2.7,2.7,0,0,0,4.59-2,2.66,2.66,0,0,0-1.94-2.59,2.7,2.7,0,0,0-3.18,1.35c-.14.23-.36.53-.59.57-1.73.32-3.46.57-5.45.89,1.25-1.12,2.32-2.06,3.37-3,.5-.44.93-1,.36-1.59s-1.1-.33-1.63.15c-1.5,1.34-3.08,2.61-4.51,4a4.48,4.48,0,0,1-3.36,1.29l3.07-2.74c.52-.48,1.19-1,.57-1.77-.4-.55-1-.43-1.84.3l-4.45,4a3.58,3.58,0,0,1-3.25,1.14l3.31-2.93c.47-.42.74-.91.28-1.47s-1.1-.39-1.62.07c-1.71,1.52-3.41,3-5.14,4.53a2.7,2.7,0,0,1-1.23.64c-2.69.47-5.39.89-8.08,1.31-1,.15-1.39-.37-1.05-1.28.91-2.39,1.79-4.8,2.75-7.17a4.2,4.2,0,0,1,1.2-1.57c1.76-1.41,3.6-2.71,5.38-4.11a1.49,1.49,0,0,0,.45-1,.88.88,0,0,0-.59-.65,1.77,1.77,0,0,0-1.13.31c-1.18.82-2.31,1.7-3.58,2.64a4.82,4.82,0,0,1,1.94-3.1c1.73-1.14,3.35-2.46,5-3.71.5-.38.81-.89.41-1.46s-1-.51-1.57-.11c-.34.24-.65.52-1,.76-.83.62-1.66,1.23-2.63,1.93a4,4,0,0,1,1.85-2.92,20.19,20.19,0,0,0,2.08-1.53c1-.79,2.08-1.58,3.11-2.38a.88.88,0,0,0,.21-1.33.85.85,0,0,0-1.25-.22,6.17,6.17,0,0,0-.6.39l-3.18,2.38C256.74,874,257.25,872.48,257.74,871Z"/></g></g></g></svg>