<svg xmlns="http://www.w3.org/2000/svg" xmlns:xlink="http://www.w3.org/1999/xlink" viewBox="0 0 1440 1755"><defs><style>.cls-1{fill:url(#radial-gradient);}.cls-2,.cls-3,.cls-4{fill:#fff;}.cls-2,.cls-5{opacity:0.85;}.cls-3{opacity:0.3;}.cls-4{opacity:0.5;}.cls-5{fill:url(#linear-gradient);}.cls-6{fill:url(#linear-gradient-2);}.cls-7{opacity:0.29;fill:url(#linear-gradient-3);}</style><radialGradient id="radial-gradient" cx="720" cy="1569.95" r="1163.79" gradientTransform="translate(0 -692.45)" gradientUnits="userSpaceOnUse"><stop offset="0" stop-opacity="0.35"/><stop offset="1" stop-color="#020202" stop-opacity="0"/></radialGradient><linearGradient id="linear-gradient" x1="510.9" y1="566.87" x2="519.04" y2="566.87" gradientUnits="userSpaceOnUse"><stop offset="0" stop-color="#795e90"/><stop offset="0.1" stop-color="#7d5e8c"/><stop offset="0.57" stop-color="#8a5e80"/><stop offset="1" stop-color="#8e5e7c"/></linearGradient><linearGradient id="linear-gradient-2" x1="718.14" y1="1246.5" x2="718.14" y2="446.86" gradientUnits="userSpaceOnUse"><stop offset="0" stop-color="#fff" stop-opacity="0"/><stop offset="0.05" stop-color="#fff" stop-opacity="0.04"/><stop offset="0.13" stop-color="#fff" stop-opacity="0.15"/><stop offset="0.23" stop-color="#fff" stop-opacity="0.33"/><stop offset="0.35" stop-color="#fff" stop-opacity="0.57"/><stop offset="0.49" stop-color="#fff" stop-opacity="0.88"/><stop offset="0.54" stop-color="#fff"/><stop offset="1" stop-color="#fff"/></linearGradient><linearGradient id="linear-gradient-3" x1="719.26" y1="1326.45" x2="719.26" y2="388.06" gradientUnits="userSpaceOnUse"><stop offset="0" stop-color="#fff" stop-opacity="0.07"/><stop offset="0" stop-color="#fff" stop-opacity="0.15"/><stop offset="1" stop-color="#fff" stop-opacity="0.6"/></linearGradient></defs><g id="Layer_2" data-name="Layer 2"><g id="WeatherIcons"><rect class="cls-1" width="1440" height="1755"/><g id="Snow"><circle class="cls-2" cx="180.4" cy="574.6" r="4.07"/><circle class="cls-3" cx="214.69" cy="1175.36" r="4.07"/><circle class="cls-3" cx="403.07" cy="1179.65" r="4.07"/><circle class="cls-4" cx="833.18" cy="292.9" r="4.07"/><circle class="cls-2" cx="1051.01" cy="1277.76" r="4.07"/><circle class="cls-4" cx="1311.54" cy="1016.32" r="4.07"/><circle class="cls-3" cx="1171.63" cy="732.4" r="4.07"/><circle class="cls-2" cx="946.43" cy="393.67" r="4.07"/><circle class="cls-3" cx="1262.28" cy="505.63" r="4.07"/><circle class="cls-4" cx="330.17" cy="759" r="4.07"/><circle class="cls-5" cx="514.97" cy="566.87" r="4.07"/><circle class="cls-4" cx="624.14" cy="288.87" r="4.07"/><circle class="cls-3" cx="574.53" cy="1273.63" r="4.07"/><circle class="cls-4" cx="751.89" cy="808.27" r="4.07"/><circle class="cls-4" cx="339.04" cy="985.77" r="4.07"/><circle class="cls-3" cx="311.83" cy="1400.44" r="4.07"/><circle class="cls-2" cx="485.3" cy="1496.33" r="4.07"/><circle class="cls-2" cx="579.36" cy="408.25" r="4.07"/><circle class="cls-3" cx="398.48" cy="342.1" r="4.07"/><circle class="cls-2" cx="692.19" cy="1443.15" r="4.07"/><circle class="cls-3" cx="966.56" cy="1487.38" r="4.07"/><circle class="cls-3" cx="1266.6" cy="1312.96" r="4.07"/><path class="cls-6" d="M467.36,974.48c-.91.48-1.5.76-2.08,1.09q-22.87,13.2-45.75,26.41c-6.66,3.83-14.09,2.47-18.35-3.25a13.53,13.53,0,0,1,4.33-20l47.17-27.25c.58-.34,1.14-.71,2.05-1.27l-13.25-6.36c-8-3.83-15.94-7.62-23.9-11.48-5.9-2.86-9-8.73-7.87-14.78a13.17,13.17,0,0,1,12.47-11.05,15.69,15.69,0,0,1,7.36,1.52c17.42,8.21,34.75,16.59,52.09,25a2.86,2.86,0,0,0,3.06,0q42.12-24.39,84.29-48.71c.23-.14.44-.31.88-.61-.45-.26-.75-.47-1.07-.62L449.67,826c-5.38-2.58-8.33-6.82-8.22-12.77s3.21-10,8.6-12.53q28.54-13.49,57-27.13l59.24-28.24,3.16-1.53c-.68-.43-1.18-.77-1.71-1.07Q525.88,718.58,484,694.35a3.37,3.37,0,0,0-3.59-.11q-25.17,12.16-50.4,24.19A13.55,13.55,0,1,1,418.26,694c10.73-5.23,21.52-10.34,32.28-15.51,1-.46,1.92-1,3.18-1.57l-14.54-8.41q-16.87-9.74-33.73-19.48a13.5,13.5,0,0,1-6.85-13.59c.93-5.91,4.83-10.28,10.47-11.49a13.86,13.86,0,0,1,10.17,1.67q23.29,13.51,46.63,26.94c.76.44,1.54.86,2.54,1.41-.74-9.76-1.46-19.19-2.18-28.61-.34-4.41-.79-8.81-1-13.23-.37-7.75,5.21-13.79,13-14.28a13.37,13.37,0,0,1,14,12.44c1.29,15.9,2.46,31.81,3.68,47.72.29,3.72.47,7.46,1,11.15a3.9,3.9,0,0,0,1.9,2.32q22.9,13.35,45.9,26.56l36.77,21.23c.59.34,1.2.67,2.17,1.21-.26-3.74-.49-7.2-.75-10.65l-3.57-46.49q-1.77-23.15-3.54-46.29c-.79-10.33-1.75-20.65-2.33-31-.3-5.31,2.2-9.5,6.89-12.09a13.09,13.09,0,0,1,14.62.79q22.3,15.3,44.56,30.68,31.5,21.67,63,43.33c.55.38,1.13.73,1.92,1.24.05-.8.12-1.38.12-2q0-48.43.05-96.86a3.33,3.33,0,0,0-1.84-3.08q-22.85-15.6-45.67-31.24c-6.71-4.61-8.43-12.87-4.07-19.22s12.6-7.78,19.39-3.18c9.78,6.63,19.51,13.33,29.26,20,.84.58,1.69,1.14,2.89,1.94V514q0-26.45,0-52.89c0-6.55,3.73-11.77,9.55-13.56,9-2.76,17.58,3.78,17.61,13.45,0,17.91,0,35.81,0,53.72v2.8c.76-.43,1.28-.68,1.75-1q16.1-11,32.16-22c9.08-6.22,20.53-1.12,21.66,9.79.53,5.22-1.67,9.43-6,12.41Q757.69,532.85,734,548.94a4.76,4.76,0,0,0-2.37,4.52q.11,47.09.05,94.16v3.09l6.85-4.65q50.63-34.63,101.23-69.31c3.63-2.49,7.19-4.5,11.8-4a13.56,13.56,0,0,1,12.08,14.5c-.82,11.23-1.84,22.44-2.74,33.66q-1.61,19.93-3.16,39.87l-3.48,44.42c-.39,4.89-.78,9.77-1.18,14.91.66-.3,1.16-.47,1.61-.73Q896.9,695,939.06,670.7a2.84,2.84,0,0,0,1.55-2.61q2.05-27.9,4.22-55.8c.55-7.06,5.72-12.38,12.35-12.93a13.44,13.44,0,0,1,14.24,9.9,17.32,17.32,0,0,1,.41,5.52c-.88,12.47-1.86,24.94-2.81,37.4,0,.27,0,.55,0,1.17l2.07-1.18c15.38-8.87,30.72-17.78,46.13-26.59A13.56,13.56,0,1,1,1030.84,649c-7,4.11-14.11,8.15-21.16,12.23l-26.55,15.33c-.47.27-.92.57-1.59,1l14.34,6.87c7.65,3.68,15.31,7.34,23,11a13.56,13.56,0,1,1-11.7,24.46q-25.78-12.32-51.5-24.75a4.76,4.76,0,0,0-5.1.13q-41.19,23.94-82.49,47.7c-.47.27-.9.57-1.67,1.06,3.2,1.55,6.14,3,9.09,4.42q54.6,26.18,109.23,52.31c3.78,1.81,7.19,3.81,9,7.8a13.65,13.65,0,0,1-6.79,18.12q-59.64,28.37-119.25,56.77a5.19,5.19,0,0,0-.66.48c.48.31.87.61,1.3.86q42.06,24.3,84.11,48.62a3.22,3.22,0,0,0,3.42.1q24.88-12,49.81-24c8.38-4,17.23-.4,19.74,8,2,6.57-1.07,13.17-7.6,16.32q-15.75,7.59-31.56,15.11c-1.11.54-2.21,1.1-3.55,1.77.71.43,1.26.79,1.82,1.12q23.22,13.42,46.44,26.86a12.87,12.87,0,0,1,6.72,13.61,12.7,12.7,0,0,1-9.09,11,13.39,13.39,0,0,1-11.54-1.34q-23.29-13.49-46.64-26.93c-.7-.4-1.42-.77-2.44-1.32.37,5,.7,9.61,1.06,14.26.7,9.16,1.48,18.32,2.08,27.48a13.43,13.43,0,0,1-12.15,14.27c-7.89.57-14.31-4.77-14.91-12.55-1.46-18.81-2.91-37.61-4.23-56.42a5.92,5.92,0,0,0-3.4-5.42q-40.54-23.21-80.94-46.66c-.82-.47-1.65-.92-2.75-1.52.33,4.51.63,8.69.94,12.87q1.8,23.66,3.62,47.31,2,25.83,4,51.66c.56,7.23,1.25,14.45,1.72,21.68.37,5.66-1.93,10.17-6.87,13a13,13,0,0,1-14.65-.7q-53.62-36.87-107.21-73.79c-.67-.47-1.36-.92-2.38-1.62-.05,1.06-.11,1.77-.11,2.48q0,48,0,96a3.76,3.76,0,0,0,1.88,3.51q22.88,15.55,45.69,31.22c6.69,4.59,8.38,12.85,4,19.24s-12.59,7.74-19.23,3.23c-10.12-6.86-20.19-13.79-30.29-20.69-.55-.37-1.12-.72-2-1.3v2.76q0,26.24,0,52.47c0,6.86-4,12.25-10,13.81a13.59,13.59,0,0,1-17.11-12.66c0-.69,0-1.39,0-2.08v-55.43c-.78.47-1.36.78-1.9,1.15q-16,10.92-32,21.87c-6.69,4.57-15,3.19-19.39-3.21s-2.63-14.63,4.08-19.23q23.85-16.32,47.74-32.62a2.84,2.84,0,0,0,1.49-2.64q-.06-48.43,0-96.86c0-.41,0-.81-.07-1.57-2.11,1.43-4,2.71-6,4q-50.62,34.64-101.27,69.26a32.1,32.1,0,0,1-6.13,3.79c-9.88,3.87-19.49-4.09-18.45-15,.94-9.83,1.66-19.68,2.45-29.53q1.78-22.31,3.53-44.62,1.56-19.83,3.12-39.67c.34-4.4.71-8.81,1.05-13.22.11-1.41.18-2.83.29-4.6-1.22.68-2.12,1.15-3,1.66q-41,23.65-82,47.28a4.38,4.38,0,0,0-2.51,4c-.94,13.29-2,26.58-3,39.86-.42,5.38-.77,10.75-1.26,16.12a13.46,13.46,0,0,1-14.27,11.9c-7-.37-12.9-6.21-12.62-13.13.34-8.62,1.17-17.22,1.8-25.83C466.58,984.59,467,979.72,467.36,974.48Zm366.28,40.21-2.38-31.3q-1.75-22.73-3.5-45.45c-1.15-15.15-2.25-30.31-3.48-45.46a3.73,3.73,0,0,0-1.64-2.49c-7.78-4.61-15.65-9.08-23.44-13.67a3,3,0,0,0-3.56,0q-31,18.52-62.15,36.94a3.14,3.14,0,0,0-1.81,3.09q.12,13.07,0,26.13a3.55,3.55,0,0,0,1.82,3.35q41.88,28.73,83.7,57.51Zm.64-401a9,9,0,0,0-1,.5q-50.2,34.32-100.36,68.7a3.31,3.31,0,0,0-1.17,2.35q-.12,13.78,0,27.58a3.25,3.25,0,0,0,1.34,2.4q32,18.06,64.12,35.94a2.86,2.86,0,0,0,2.36,0q11.8-6.69,23.49-13.58A3.89,3.89,0,0,0,824.7,735c.4-3.15.52-6.33.77-9.5q1.75-22.31,3.52-44.61,1.38-17.35,2.75-34.7C832.58,635.49,833.42,624.76,834.28,613.68ZM486.51,813.52,512.45,826q42.27,20.28,84.55,40.57a2.61,2.61,0,0,0,2.83,0q12.06-7.08,24.22-14a2.22,2.22,0,0,0,1.29-2.29q-.26-9.1-.36-18.23-.32-27.25-.52-54.52a3.3,3.3,0,0,0-2-3.23q-11.25-6.39-22.42-12.94a3.67,3.67,0,0,0-4-.17Q552,782.33,507.76,803.37Zm463.15.82c-.91-.49-1.61-.9-2.33-1.25L930.52,805Q885,783.2,839.46,761.33a3.17,3.17,0,0,0-3.4.14q-11.62,6.81-23.32,13.46a2.87,2.87,0,0,0-1.68,2.92c.19,12.85.29,25.7.45,38.55.14,11.4.34,22.8.44,34.2a2.71,2.71,0,0,0,1.6,2.73c7.51,4.26,15,8.55,22.41,13a4.21,4.21,0,0,0,4.55.12q36.21-17.35,72.48-34.59ZM602.78,613.19c0,.74,0,1.08,0,1.4q1.56,20.86,3.13,41.73,3,39.55,6.16,79.1a3.48,3.48,0,0,0,1.47,2.35c7.91,4.67,15.89,9.2,23.82,13.84a2.49,2.49,0,0,0,3,0q31.3-18.68,62.67-37.24a2.75,2.75,0,0,0,1.59-2.76q-.09-13.26,0-26.54a3.18,3.18,0,0,0-1.59-3q-36.32-24.88-72.56-49.86ZM602,1014.25c1.27-.84,2.13-1.39,3-2L636.09,991q33.52-22.93,67-45.85a2.62,2.62,0,0,0,1.44-2.45c-.06-9.33,0-18.66-.09-28a2.8,2.8,0,0,0-1.18-2.06Q671.2,894.54,639,876.58a2.64,2.64,0,0,0-2.2,0q-12,6.81-23.84,13.79a3.34,3.34,0,0,0-1.31,2.23c-.43,4-.68,8-1,12l-3.57,44.82q-1.8,22.83-3.59,45.65C603,1001.32,602.51,1007.58,602,1014.25ZM731.82,790.33,771,767.67l-39.22-22Zm38.65,69.46L731.9,837.52v45.2ZM745.31,813.9l38.89,22.45V791.44Zm-54.32,0-38.87-22.43v44.87Zm13.49,23.57-39.23,22.65,39.23,22Zm0-92.45-38.67,23,38.67,22.32Zm195.9,380.61c-6.13-5.26-11.87-10.24-17.7-15.11a3.42,3.42,0,0,0-2.61-.38c-4.1,1-8.14,2.16-12.22,3.2-2.74.71-5-.44-5.65-2.73-.73-2.65.59-4.82,3.45-5.62,2.46-.68,4.93-1.33,7.39-2a2.93,2.93,0,0,0,.53-.32c-3.18-2.73-6.31-5.39-9.42-8.09-2.39-2.07-2.56-4.94-.44-6.83,1.72-1.54,4-1.51,6,.16,3.21,2.71,6.39,5.47,9.91,8.48.28-2.33.53-4.34.77-6.35.12-1,.19-2.06.37-3.08a4.27,4.27,0,0,1,8.48,1c-.31,3.65-.57,7.32-1.19,10.92-.52,3,0,5.06,2.58,7.06,5.23,4.06,10.12,8.55,15.47,13.13.43-3.8.85-7.24,1.22-10.7q1.18-11,2.31-22.05c.22-2.12,1.07-3.71,3.17-4.39s3.57.22,5,1.65q10.79,10.92,21.63,21.78c.37.38.8.7,1.4,1.22,1.46-7.81,2.92-15.37,4.25-22.95a3,3,0,0,0-.92-2.1c-2.92-3-5.94-6-8.91-9-2.1-2.11-2.27-4.57-.51-6.42s4.41-1.83,6.59.29c1.83,1.79,3.63,3.6,5.45,5.4a3.19,3.19,0,0,0,.49.18c.53-2.76,1.06-5.48,1.58-8.2.29-1.49.52-3,.86-4.47a4.21,4.21,0,0,1,5.1-3.38,4.1,4.1,0,0,1,3.35,4.75c-.57,3.75-1.34,7.47-2,11.21-.11.6-.19,1.2-.35,2.27l6.21-2.73c.76-.33,1.52-.67,2.29-1a4.31,4.31,0,1,1,3.34,8c-4.15,1.89-8.34,3.66-12.48,5.58a2.92,2.92,0,0,0-1.57,1.64c-1.46,7.44-2.81,14.9-4.24,22.62.7-.22,1.2-.32,1.65-.52q14.29-6.32,28.58-12.67a4.42,4.42,0,0,1,5,.47c1.6,1.36,1.86,3,1.3,5-2.8,10.11-5.52,20.24-8.26,30.36a13.19,13.19,0,0,0-.21,1.32l7.88-2.77c4.49-1.57,9-3.17,13.49-4.7a2.78,2.78,0,0,0,2.07-2.24c1-4,2.11-8,3.19-12,.81-3,2.81-4.37,5.43-3.72s3.71,2.86,3,5.87c-.64,2.53-1.32,5-2.08,8,4.14-1.45,7.92-2.85,11.75-4.07a6.7,6.7,0,0,1,3.6-.17,3.79,3.79,0,0,1,2.79,3.92,4,4,0,0,1-2.87,4.11c-3.43,1.26-6.89,2.45-10.33,3.68-.64.23-1.27.48-2.32.88,2.6,1.91,5,3.61,7.29,5.36a4.33,4.33,0,0,1,1.78,5.07c-1,2.91-4.26,3.81-7,1.87-3.66-2.61-7.24-5.31-10.9-7.92a2.75,2.75,0,0,0-2-.59c-7.23,2.47-14.43,5-21.92,7.68.56.51.91.89,1.32,1.19q12.63,9.24,25.28,18.45a4.41,4.41,0,0,1,2.08,4.61c-.39,2-1.8,3.11-3.79,3.63q-15.33,4-30.63,8a8.22,8.22,0,0,0-1,.44c4.76,4.08,9.65,7.83,14,12.14,3.16,3.15,6.17,3.9,10.24,2.23a58.91,58.91,0,0,1,8.38-2.31,4.22,4.22,0,0,1,5.4,2.86,4.28,4.28,0,0,1-3.11,5.47c-1.32.41-2.67.7-4,1.06s-2.64.74-4.37,1.23l3.07,2.68c2.15,1.85,4.32,3.67,6.45,5.54s2.57,4.58.81,6.55-4.23,1.89-6.48,0c-2.49-2.08-4.93-4.23-7.4-6.34-.72-.62-1.45-1.21-2.43-2-.32,3.08-.59,5.82-.91,8.56-.28,2.51-1.47,4.07-3.34,4.47a4.17,4.17,0,0,1-5.3-4.6c.36-4.61,1-9.2,1.39-13.81a2.85,2.85,0,0,0-.65-2.15c-5.66-5-11.4-9.83-17.13-14.73-.09-.07-.25-.06-.54-.12-.71,6.38-1.43,12.74-2.12,19.1-.47,4.46-.88,8.93-1.35,13.4-.21,2.07-1.1,3.7-3.24,4.34s-3.57-.3-5-1.72q-10.84-11-21.75-22c-.29-.29-.61-.54-1.18-1-.65,3.3-1.27,6.38-1.85,9.45-.82,4.34-1.68,8.68-2.37,13a3.41,3.41,0,0,0,.81,2.49c2.89,3.06,5.93,6,8.9,9,2.14,2.16,2.3,4.75.44,6.58s-4.4,1.69-6.59-.47c-1.85-1.84-3.68-3.71-5.78-5.83-.85,4.49-1.65,8.6-2.41,12.71a4.28,4.28,0,1,1-8.49-1.13c.5-3.56,1.25-7.07,1.88-10.61.14-.8.27-1.6.47-2.8-3,1.3-5.63,2.51-8.33,3.63s-5.21,0-6.07-2.48c-.76-2.25.15-4.31,2.54-5.4q6.12-2.78,12.31-5.42a2.8,2.8,0,0,0,1.89-2.39c1.29-7.27,2.7-14.51,4.13-22.06-.77.26-1.33.39-1.84.61q-14.21,6.27-28.39,12.58c-1.79.79-3.48.92-5-.4s-1.91-3.11-1.32-5.23c2.82-10.1,5.53-20.23,8.28-30.35a9,9,0,0,0,.13-1c-.65.17-1.21.28-1.74.47-6.45,2.26-12.87,4.59-19.34,6.78a3.23,3.23,0,0,0-2.42,2.66c-.94,4-2.07,7.87-3.14,11.8-.78,2.85-2.86,4.25-5.33,3.6s-3.7-2.73-3-5.64c.3-1.35.67-2.68,1-4s.68-2.53,1.13-4.19c-1.56.52-2.88,1-4.19,1.4-2.74,1-5.45,2-8.21,2.87a4.29,4.29,0,1,1-2.87-8.09c2.05-.8,4.15-1.5,6.23-2.24s4-1.42,6.41-2.27c-2.57-1.91-4.84-3.63-7.15-5.29-1.4-1-2.49-2.33-2.09-4a7,7,0,0,1,2.33-3.6c1.41-1.07,3.17-.68,4.63.38,3.69,2.69,7.33,5.43,11.07,8a3.13,3.13,0,0,0,2.4.45c6.93-2.34,13.82-4.8,20.71-7.23a4,4,0,0,0,.67-.43c-.38-.35-.67-.69-1-1q-12.63-9.24-25.28-18.45c-1.65-1.2-2.65-2.7-2.23-4.75s1.92-3.1,4-3.64C879.27,1131.27,889.66,1128.47,900.39,1125.63Zm55.72,81a3.23,3.23,0,0,0,.26-.57c1.08-9.54,2.17-19.06,3.16-28.6a2.86,2.86,0,0,0-1.07-2c-5.73-5-11.51-9.92-17.28-14.86-.39-.33-.83-.58-1.47-1-1.57,8.46-3.11,16.65-4.54,24.86a3.05,3.05,0,0,0,1,2c3.84,4,7.75,7.87,11.64,11.79Zm-57.6-10.84c1-.42,1.68-.67,2.31-.94,7.88-3.47,15.75-7,23.67-10.39a3.49,3.49,0,0,0,2.37-3c.88-5.1,1.89-10.17,2.83-15.26.5-2.69,1-5.38,1.46-8.12a3.55,3.55,0,0,0-.69,0c-7.68,2.69-15.37,5.35-23,8.11a2.68,2.68,0,0,0-1.32,1.59c-.7,2.17-1.24,4.38-1.84,6.57C902.4,1181.34,900.52,1188.32,898.51,1195.76Zm76.68-88.89a4,4,0,0,0-.83.13c-8.66,3.79-17.32,7.57-26,11.44a2.92,2.92,0,0,0-1.28,1.85c-.85,4-1.59,8.13-2.35,12.2-.73,3.91-1.44,7.83-2.19,11.89a5.14,5.14,0,0,0,1-.14c7.55-2.65,15.11-5.27,22.62-8a3.39,3.39,0,0,0,1.59-2.1c1.5-5.24,2.88-10.52,4.29-15.78C973.12,1114.56,974.14,1110.78,975.19,1106.87ZM934,1143c1.63-8.67,3.19-16.86,4.65-25.06a2.73,2.73,0,0,0-.94-1.87q-9.47-9.6-19-19.12c-.35-.36-.78-.65-1.31-1.09-1,9-1.84,17.69-3,26.38a6,6,0,0,0,2.54,6.27C922.68,1133.08,928.13,1138,934,1143Zm60.42,19.2c-.2-.31-.25-.46-.35-.53-7.62-5.6-15.22-11.22-22.9-16.74a3.33,3.33,0,0,0-2.62-.23c-5.17,1.72-10.29,3.56-15.42,5.37l-7.7,2.73c6.56,5.63,12.82,11,19.16,16.36a3.21,3.21,0,0,0,2.46.3c5.34-1.35,10.66-2.82,16-4.24Zm-66.15-12.58c-.71-.64-1.25-1.16-1.81-1.64-5.55-4.77-11.13-9.5-16.62-14.32a3.23,3.23,0,0,0-3.37-.74c-5.58,1.53-11.18,3-16.78,4.47-3.43.92-6.85,1.86-10.63,2.89,8.16,6,16,11.73,23.87,17.42a2.43,2.43,0,0,0,1.9.15C912.52,1155.2,920.18,1152.48,928.28,1149.63Z"/><path class="cls-7" d="M328.08,483.88a1.92,1.92,0,0,1,1.8-.68c2.14.19,3.4-1,3.66-3.12a3.31,3.31,0,0,0-3-3.52c-2-.12-3.77,1.19-3.66,3.12a3.09,3.09,0,0,1-1.26,2.7c-1.06,1-2.07,2-3.11,3-.18.17-.4.32-.77.61.46-2,.84-3.68,1.28-5.4.21-.83.13-1.54-.77-1.78s-1.38.36-1.58,1.25c-.57,2.52-1.27,5-1.75,7.56a5.49,5.49,0,0,1-2.48,3.53l1.29-5.39c.2-.8.15-1.58-.77-1.8s-1.39.41-1.59,1.27c-.59,2.56-1.3,5.09-1.78,7.67a5.41,5.41,0,0,1-2.51,3.46c.44-1.9.82-3.62,1.26-5.34.21-.82.15-1.55-.75-1.78s-1.39.31-1.6,1.22q-.94,4.23-2,8.41a3.17,3.17,0,0,1-.78,1.41c-2.36,2.36-4.76,4.67-7.15,7a1.3,1.3,0,0,1-2.25-.61c-.68-2.68-1.25-5.4-2.08-8a7.53,7.53,0,0,1,.19-5.25c.85-2.17,1.45-4.42,2.19-6.63.26-.77.08-1.37-.66-1.64s-1.35.1-1.63.88c-.13.38-.24.78-.37,1.16L294,491.48a5.79,5.79,0,0,1-.19-4.72c.9-2.34,1.61-4.76,2.38-7.15.26-.8.17-1.53-.74-1.81s-1.3.27-1.53,1l-.24.73-1.54,4.63c-.8-2.1-.81-2.42-.2-4.29.8-2.46,1.59-4.92,2.39-7.38.22-.68.28-1.33-.43-1.77s-1.47-.09-1.83,1c-.58,1.72-1.13,3.45-1.7,5.17a56.1,56.1,0,0,1-1.71-6.13,1.82,1.82,0,0,1,.26-1.24,3.53,3.53,0,0,0,.66-3A3.43,3.43,0,0,0,286,464a3.37,3.37,0,0,0-1.1,6.4c.31.16.78.33.85.58.6,2.12,1.13,4.26,1.67,6.4a35,35,0,0,1-4-3.42c-.63-.6-1.31-1-2-.25s-.27,1.4.36,2c1.89,1.77,3.69,3.65,5.68,5.31,1.22,1,1.54,2.3,1.84,3.91-1.45-1.36-2.75-2.56-4-3.79-.63-.61-1.32-.95-2-.25s-.26,1.4.36,2c1.91,1.81,3.76,3.69,5.75,5.4a5.74,5.74,0,0,1,1.76,3.91l-1-1c-1.11-1-2.2-2.09-3.33-3.11a1,1,0,0,0-1.64.07,2.72,2.72,0,0,0,0,1.58c0,.21.33.39.52.57,2,1.93,4.11,3.84,6.14,5.79a2.84,2.84,0,0,1,.72,1.2q1.33,5,2.6,10.08a1.22,1.22,0,0,1-1.64,1.51c-3.17-.88-6.34-1.73-9.49-2.69a4.55,4.55,0,0,1-1.88-1.21c-1.93-2-3.77-4.18-5.67-6.26-.73-.79-1.68-.81-2,0a2,2,0,0,0,.35,1.65c1.11,1.4,2.35,2.69,3.62,4.13a5.32,5.32,0,0,1-4.11-2.14c-.85-1.11-1.85-2.12-2.79-3.16s-1.62-1.83-2.47-2.71a1,1,0,0,0-1.65-.06,2.14,2.14,0,0,0-.12,1.57c.09.38.54.68.83,1l3.09,3.46a5.35,5.35,0,0,1-4.09-2.2c-1.13-1.42-2.4-2.72-3.62-4.07-.49-.55-1-1.11-1.48-1.65a1.15,1.15,0,0,0-1.77-.13,1.11,1.11,0,0,0,0,1.68c.38.45.79.88,1.18,1.32l2.84,3.2c-2.28-.64-4.23-1.2-6.19-1.72a1.6,1.6,0,0,1-1.22-1.09,3.33,3.33,0,0,0-5.2-1.28,3.37,3.37,0,0,0,4,5.43c.36-.22.82-.56,1.14-.48,2.16.53,4.28,1.16,6.7,1.84-2,.61-3.75,1.15-5.49,1.65-.81.24-1.43.66-1.16,1.56s1,1,1.88.73c2.54-.79,5.13-1.42,7.63-2.31,1.47-.52,2.67-.11,4.16.4L265,507.05c-.79.23-1.43.65-1.17,1.56s1,1,1.89.73c2.36-.75,4.78-1.32,7.1-2.17a6,6,0,0,1,4.74.3c-1.86.56-3.57,1.09-5.3,1.59-.86.25-1.46.7-1.14,1.66s1,.89,1.83.65c2.72-.83,5.45-1.66,8.18-2.43a3.43,3.43,0,0,1,1.71-.06c3.28.88,6.55,1.82,9.82,2.75a1.27,1.27,0,0,1,.55,2.3c-2.29,2.26-4.58,4.53-6.92,6.74a4.35,4.35,0,0,1-1.89,1c-2.74.64-5.49,1.2-8.24,1.76-.83.17-1.45.53-1.26,1.47s.87,1.06,1.71.88c1.78-.4,3.58-.75,5.42-1.13-1.05,1.76-2.66,2.31-4.47,2.62-2.3.4-4.57.9-6.83,1.44a2,2,0,0,0-1.16,1,1.22,1.22,0,0,0,.38,1.13,2.3,2.3,0,0,0,1.47.16c1.71-.31,3.39-.7,5.3-1.11-1,1.1-1.72,2-3.09,2.28-2.62.47-5.22,1.05-7.82,1.6-.85.18-1.76.36-1.59,1.57.11.82.79,1.07,2.06.81l.43-.11,4.31-.88c-1.28,1.38-2.67,2.86-4,4.36a1.44,1.44,0,0,1-1.52.53,3.26,3.26,0,0,0-3.73,3,3.32,3.32,0,0,0,3.11,3.73,3.23,3.23,0,0,0,3.54-3.28,2.6,2.6,0,0,1,1.08-2.41c1.07-1,2.07-2,3.1-3,.24-.24.5-.45.92-.82-.14.61-.22,1-.3,1.33-.34,1.47-.69,3-1,4.42a1.1,1.1,0,0,0,.8,1.48,1.12,1.12,0,0,0,1.5-.92c.06-.26.13-.51.19-.76.58-2.4,1.26-4.79,1.7-7.22a5,5,0,0,1,2.39-3.35c-.44,1.89-.82,3.64-1.24,5.37-.21.84-.1,1.53.83,1.73s1.31-.39,1.5-1.22c.63-2.7,1.37-5.38,1.91-8.09.27-1.4,1.21-2.09,2.33-3.08-.1.56-.14.88-.21,1.19-.34,1.51-.76,3-1,4.54a1.57,1.57,0,0,0,.66,1.29,1.61,1.61,0,0,0,1.34-.31c.27-.19.35-.71.44-1.1.62-2.62,1.19-5.26,1.87-7.87a4.29,4.29,0,0,1,1.06-1.85c2.23-2.27,4.53-4.48,6.81-6.71,1.16-1.14,2-.89,2.43.73.77,3,1.56,6,2.27,9a3.87,3.87,0,0,1-.08,1.91c-.85,2.76-1.76,5.49-2.67,8.22-.25.79-.13,1.46.7,1.72s1.33-.19,1.58-1c.12-.35.22-.71.33-1.06l1.45-4.3a5.58,5.58,0,0,1,.28,4.4c-.93,2.48-1.66,5-2.5,7.57a1.17,1.17,0,0,0,.79,1.67c.78.24,1.25-.23,1.49-1s.59-1.75.88-2.63l.94-2.87c.81,2.52.81,2.52.11,4.65-.76,2.32-1.54,4.63-2.29,6.94-.36,1.11-.13,1.86.65,2,1,.22,1.38-.43,1.64-1.24.54-1.68,1.1-3.35,1.74-5.33.63,2.47,1.2,4.63,1.71,6.8.06.25-.22.56-.31.85a8.11,8.11,0,0,0-.72,2.69,3.22,3.22,0,0,0,3.28,2.87,3.42,3.42,0,0,0,3.26-2.54,3.38,3.38,0,0,0-1.94-4c-.3-.14-.7-.37-.78-.64-.6-2.13-1.13-4.29-1.69-6.43a5.19,5.19,0,0,1,1.31,1,41.79,41.79,0,0,0,3.19,2.92,1.66,1.66,0,0,0,1.54-.1.94.94,0,0,0,0-1.54c-.21-.21-.39-.45-.6-.65-1.82-1.74-3.58-3.56-5.51-5.17-1.2-1-1.45-2.25-1.75-3.82,1.48,1.39,2.81,2.62,4.11,3.87.62.59,1.3.81,1.94.16s.31-1.34-.3-1.91c-2-1.88-3.91-3.85-6-5.63-1.15-1-1.23-2.22-1.47-3.5,1.37,1.16,2.67,2.36,3.95,3.58.6.58,1.27.91,1.93.21s.33-1.39-.33-2c-2.09-1.94-4.17-3.9-6.2-5.89a3.79,3.79,0,0,1-.93-1.58c-.83-3.1-1.59-6.22-2.38-9.33a1.33,1.33,0,0,1,1.77-1.71c2.88.8,5.75,1.67,8.65,2.39a5.53,5.53,0,0,1,3,1.91c1.7,2,3.5,3.93,5.27,5.88a1.13,1.13,0,0,0,1.75.18,1.17,1.17,0,0,0,0-1.78l-1.33-1.49-2.39-2.71c2.19-.08,3.34,1.26,4.52,2.63,1.49,1.74,3,3.45,4.6,5.11a1.81,1.81,0,0,0,1.34.5,1.25,1.25,0,0,0,.83-.88,2.16,2.16,0,0,0-.56-1.35c-1.14-1.35-2.34-2.65-3.55-4,2.15-.1,3.28,1.27,4.45,2.62,1.51,1.73,3,3.45,4.61,5.12a1.8,1.8,0,0,0,1.34.49,1.22,1.22,0,0,0,.82-.88,2.21,2.21,0,0,0-.55-1.35c-1.14-1.35-2.34-2.64-3.52-4a60.83,60.83,0,0,1,6.48,1.66c.27.08.49.48.63.78a3.36,3.36,0,0,0,6.2.2,3.3,3.3,0,0,0-.83-3.93,3.36,3.36,0,0,0-4.3-.15,1.47,1.47,0,0,1-1,.34c-2.11-.55-4.21-1.18-6.62-1.87l5.38-1.61c.79-.25,1.55-.6,1.24-1.61s-1.07-1-1.91-.69c-2.4.73-4.85,1.33-7.21,2.18a5.61,5.61,0,0,1-4.47-.3c1.74-.53,3.33-1,4.9-1.49.85-.26,1.85-.44,1.59-1.7-.18-.82-.92-1-2.24-.62L322,515.88c-1.78.54-2.41.49-4.26-.43l5.27-1.56c.75-.23,1.31-.64,1.08-1.52s-1-1-1.86-.77c-2.72.82-5.44,1.65-8.17,2.42a3.29,3.29,0,0,1-1.73.07c-3.28-.88-6.54-1.82-9.81-2.76-1.16-.34-1.36-1.15-.5-2,2.27-2.22,4.53-4.48,6.86-6.64a5.16,5.16,0,0,1,2.18-1.15c2.72-.66,5.49-1.17,8.22-1.81a1.86,1.86,0,0,0,1.05-.94,1.1,1.1,0,0,0-.32-1.05,2.27,2.27,0,0,0-1.43-.24c-1.76.31-3.51.71-5.43,1.11a6,6,0,0,1,3.81-2.49c2.56-.38,5.07-1,7.6-1.56.76-.16,1.38-.57,1.23-1.43s-.88-1.1-1.71-.95c-.51.1-1,.25-1.52.35l-4,.79a4.9,4.9,0,0,1,3.62-2.32,24.81,24.81,0,0,0,3.15-.65c1.59-.34,3.17-.68,4.76-1a1.11,1.11,0,0,0,.94-1.39,1.08,1.08,0,0,0-1.31-.91,6.53,6.53,0,0,0-.87.13l-4.84,1C325.39,486.71,326.75,485.31,328.08,483.88Zm863.78-59.42a1.67,1.67,0,0,1,1.59.5,2.73,2.73,0,0,0,4.15-.18,2.84,2.84,0,0,0-.16-4,2.72,2.72,0,0,0-4.14.16,2.7,2.7,0,0,1-2.31,1.17c-1.24.1-2.48.27-3.72.4-.22,0-.45,0-.85,0,1.35-1.09,2.54-2.06,3.75-3,.58-.45.91-1,.42-1.62s-1.13-.49-1.74,0c-1.73,1.41-3.54,2.74-5.22,4.2a4.73,4.73,0,0,1-3.57,1.09l3.76-3c.55-.44.93-1,.43-1.63s-1.16-.47-1.76,0c-1.77,1.42-3.59,2.77-5.29,4.27a4.74,4.74,0,0,1-3.56,1c1.31-1,2.49-2,3.7-3,.59-.44.93-1,.44-1.61s-1.11-.53-1.74,0q-2.89,2.37-5.85,4.65a2.91,2.91,0,0,1-1.28.54c-2.86.34-5.73.64-8.59.94a1.12,1.12,0,0,1-1.21-1.61c1-2.19,2-4.35,2.88-6.58a6.46,6.46,0,0,1,2.93-3.47c1.73-1,3.34-2.24,5-3.34a1,1,0,0,0,.43-1.47,1,1,0,0,0-1.58-.27c-.3.19-.58.4-.87.59l-3.25,2.18a5,5,0,0,1,2.38-3.31c1.86-1.12,3.63-2.38,5.43-3.6.6-.4.93-.95.47-1.62s-1-.51-1.6-.12l-.55.37-3.51,2.33c.57-1.86.74-2.08,2.15-3l5.56-3.74c.51-.34.9-.75.65-1.43s-1-.85-1.75-.32c-1.32.85-2.62,1.74-3.92,2.61a47.91,47.91,0,0,1,2.11-5.08,1.52,1.52,0,0,1,.84-.71,3.06,3.06,0,0,0,2.06-1.71,3,3,0,0,0-1.13-3.6,2.91,2.91,0,0,0-4.16,3.77c.13.27.35.64.27.85-.73,1.76-1.51,3.5-2.28,5.24a30.21,30.21,0,0,1-.89-4.45c-.11-.75-.35-1.38-1.23-1.25s-.94.81-.82,1.55c.34,2.22.56,4.46,1,6.65a5,5,0,0,1-.83,3.63c-.26-1.69-.51-3.21-.72-4.72-.11-.75-.39-1.35-1.24-1.25s-.92.81-.81,1.54c.34,2.25.58,4.51,1,6.74a5,5,0,0,1-.89,3.6c-.08-.52-.13-.86-.18-1.2-.2-1.29-.38-2.59-.61-3.89-.1-.62-.55-1.05-1.15-.83-.37.14-.63.67-.86,1.06-.09.16,0,.44,0,.66.36,2.4.74,4.81,1.08,7.22a2.31,2.31,0,0,1-.14,1.19c-1.18,2.76-2.39,5.51-3.61,8.25a1.06,1.06,0,0,1-1.93.15c-1.68-2.29-3.38-4.56-5-6.89a3.93,3.93,0,0,1-.63-1.83c-.22-2.42-.34-4.85-.53-7.28-.07-.93-.7-1.44-1.37-1a1.73,1.73,0,0,0-.64,1.31c0,1.54.16,3.08.26,4.73a4.58,4.58,0,0,1-1.65-3.64c0-1.21-.14-2.43-.22-3.64s-.13-2.11-.23-3.16c-.06-.64-.5-1.08-1.09-.92a1.82,1.82,0,0,0-.92,1,2.61,2.61,0,0,0,0,1.14c.08,1.3.16,2.6.25,4a4.63,4.63,0,0,1-1.61-3.67c0-1.57-.18-3.13-.29-4.7,0-.64-.07-1.28-.13-1.91s-.43-1.09-1.12-1a1,1,0,0,0-.94,1.12c0,.51.07,1,.1,1.53.07,1.14.14,2.28.23,3.69-1.22-1.66-2.25-3.07-3.3-4.48a1.39,1.39,0,0,1-.25-1.38,2.87,2.87,0,0,0-2.85-3.65,2.92,2.92,0,0,0-.19,5.82c.36,0,.86.05,1,.28,1.18,1.51,2.28,3.07,3.56,4.82-1.7-.66-3.16-1.22-4.61-1.8-.67-.27-1.32-.31-1.62.44s.14,1.22.89,1.5c2.15.81,4.25,1.77,6.43,2.5a5.05,5.05,0,0,1,2.61,2.49c-1.62-.63-3.08-1.19-4.53-1.77-.67-.27-1.33-.32-1.63.44s.14,1.22.89,1.5c2,.75,4,1.66,6,2.32a5.13,5.13,0,0,1,3.06,2.73c-1.56-.61-3-1.17-4.45-1.75-.72-.29-1.37-.31-1.66.52s.22,1.16.9,1.42c2.29.88,4.58,1.77,6.86,2.71a2.88,2.88,0,0,1,1.19.87c1.76,2.35,3.48,4.73,5.21,7.1a1.1,1.1,0,0,1-.85,1.86c-2.76.31-5.53.65-8.3.9a3.85,3.85,0,0,1-1.83-.33c-2.2-1-4.37-2.11-6.54-3.19-.66-.33-1.26-.41-1.64.33s0,1.18.7,1.5c1.42.69,2.83,1.4,4.28,2.13a5,5,0,0,1-4.44-.61c-1.77-.95-3.58-1.82-5.41-2.66a1.75,1.75,0,0,0-1.31.05,1.05,1.05,0,0,0-.34,1,2,2,0,0,0,.91.9c1.33.69,2.68,1.33,4.2,2.07-1.25.23-2.26.46-3.32-.1-2-1.08-4.11-2.07-6.17-3.08-.67-.33-1.39-.7-1.92.21-.36.63,0,1.15,1,1.66.11.05.24.09.35.15l3.4,1.7c-1.6.25-3.34.52-5.07.81a1.26,1.26,0,0,1-1.32-.45,2.82,2.82,0,0,0-4.11,0,2.86,2.86,0,0,0,.13,4.19,2.78,2.78,0,0,0,4.15-.34,2.23,2.23,0,0,1,2-1.06c1.25-.08,2.48-.27,3.73-.4.28,0,.57,0,1.06-.07l-.91.74c-1,.82-2.05,1.64-3.06,2.47a1,1,0,0,0-.24,1.43,1,1,0,0,0,1.51.17l.53-.41c1.68-1.33,3.41-2.59,5-4a4.27,4.27,0,0,1,3.41-1c-1.3,1.05-2.5,2-3.71,3-.59.46-.88,1-.35,1.62s1.09.43,1.67,0c1.86-1.5,3.8-2.92,5.61-4.48.93-.81,1.94-.78,3.23-.85-.37.33-.57.52-.78.69-1,.85-2.12,1.65-3.1,2.56a1.35,1.35,0,0,0-.23,1.23c.11.28.69.49,1.07.51s.62-.3.89-.52c1.82-1.45,3.61-2.94,5.46-4.35a3.72,3.72,0,0,1,1.72-.7c2.73-.35,5.47-.63,8.2-.93,1.41-.15,1.85.47,1.27,1.79-1.08,2.46-2.15,4.92-3.27,7.35a3.45,3.45,0,0,1-1.08,1.26c-2,1.42-4.12,2.79-6.19,4.17-.6.39-.87.92-.45,1.53a1.05,1.05,0,0,0,1.59.2l.79-.55,3.28-2.15a4.82,4.82,0,0,1-2.15,3.14c-2,1.19-3.83,2.54-5.74,3.82a1,1,0,0,0-.35,1.55c.4.58,1,.51,1.52.15l2-1.32,2.17-1.45c-.79,2.14-.79,2.14-2.41,3.22s-3.51,2.32-5.25,3.5c-.84.56-1.08,1.19-.65,1.72.56.69,1.17.45,1.78,0l4-2.7c-.89,2-1.66,3.79-2.47,5.54-.09.2-.45.26-.67.41a7.13,7.13,0,0,0-1.92,1.45,2.79,2.79,0,0,0,.7,3.7,2.92,2.92,0,0,0,4.36-3.71,1.26,1.26,0,0,1-.19-.85c.73-1.77,1.52-3.52,2.28-5.28a4.33,4.33,0,0,1,.37,1.36c.19,1.24.31,2.49.61,3.69a1.44,1.44,0,0,0,1.11.75c.55,0,.91-.4.83-1,0-.25,0-.51-.06-.76-.32-2.16-.54-4.33-1-6.46a5,5,0,0,1,.84-3.53c.27,1.73.51,3.28.74,4.83.1.73.45,1.24,1.23,1.14s.92-.75.81-1.46c-.35-2.34-.6-4.71-1.07-7-.26-1.29.35-2.17.86-3.17.32,1.52.56,3,.78,4.55.1.71.38,1.29,1.2,1.16s1-.76.85-1.53c-.39-2.43-.76-4.87-1.08-7.32a3.09,3.09,0,0,1,.21-1.56c1.09-2.55,2.24-5.08,3.36-7.62a1.15,1.15,0,0,1,2.12-.22c1.53,2.09,3,4.21,4.6,6.25a4.82,4.82,0,0,1,1,2.89c.09,2.27.28,4.54.44,6.8,0,.67.39,1.12,1.1,1.06a1,1,0,0,0,1-1.2c0-.57-.08-1.15-.11-1.72-.06-1-.12-2-.18-3.12,1.53,1.12,1.6,2.64,1.67,4.2q.13,3,.4,5.93a1.59,1.59,0,0,0,.65,1.05,1.06,1.06,0,0,0,1-.15,1.9,1.9,0,0,0,.34-1.22c0-1.52-.18-3.05-.28-4.61,1.52,1.07,1.56,2.61,1.63,4.15.1,2,.22,4,.41,5.94a1.58,1.58,0,0,0,.64,1.05,1.08,1.08,0,0,0,1-.16,1.91,1.91,0,0,0,.34-1.21c-.06-1.53-.18-3.05-.28-4.57a52.15,52.15,0,0,1,3.52,4.58,1.29,1.29,0,0,1,0,.87,2.94,2.94,0,0,0,.47,2.64,2.91,2.91,0,0,0,3.64.81,2.85,2.85,0,0,0,1.53-3.12,2.9,2.9,0,0,0-2.84-2.4,1.3,1.3,0,0,1-.84-.28c-1.14-1.5-2.23-3-3.5-4.8l4.52,1.77c.67.26,1.37.42,1.7-.43s-.22-1.21-.93-1.49c-2-.78-4-1.68-6.07-2.36a4.91,4.91,0,0,1-2.88-2.59l4.13,1.6c.72.28,1.49.69,2-.31.32-.65-.08-1.18-1.19-1.61-2-.79-4-1.56-6-2.33a3.88,3.88,0,0,1-2.68-2.56l4.42,1.74c.63.24,1.23.27,1.55-.45s-.16-1.24-.86-1.52c-2.29-.9-4.58-1.78-6.85-2.71a3,3,0,0,1-1.21-.87c-1.76-2.35-3.47-4.73-5.19-7.12-.62-.84-.32-1.5.71-1.61,2.73-.31,5.47-.64,8.21-.86a4.3,4.3,0,0,1,2.09.38c2.21,1,4.36,2.13,6.56,3.15a1.67,1.67,0,0,0,1.22-.07,1,1,0,0,0,.34-.89,2,2,0,0,0-.85-.93c-1.36-.73-2.76-1.39-4.28-2.14a5.15,5.15,0,0,1,3.92.34c1.94,1.11,4,2,6,3,.6.3,1.24.34,1.59-.31s0-1.23-.65-1.56c-.4-.21-.82-.37-1.22-.57l-3.13-1.59a4.26,4.26,0,0,1,3.7.35,19.91,19.91,0,0,0,2.49,1.24c1.26.61,2.52,1.23,3.79,1.83a1,1,0,0,0,1.38-.45.92.92,0,0,0-.4-1.31,7.26,7.26,0,0,0-.67-.38l-3.82-1.89C1188.52,425,1190.19,424.72,1191.86,424.46Zm-20.28,753.45a1.49,1.49,0,0,1,1.44.38,2.45,2.45,0,0,0,3.71-.34,2.55,2.55,0,0,0-.32-3.56,2.44,2.44,0,0,0-3.7.33,2.43,2.43,0,0,1-2,1.15c-1.11.15-2.21.35-3.32.52-.19,0-.4,0-.76,0,1.16-1,2.18-2,3.22-2.85.5-.42.78-.91.31-1.46s-1-.39-1.56.08c-1.48,1.34-3,2.61-4.48,4a4.22,4.22,0,0,1-3.15,1.13l3.23-2.83c.48-.42.8-.93.31-1.48s-1.06-.37-1.57.09c-1.52,1.35-3.09,2.64-4.55,4.05a4.15,4.15,0,0,1-3.13,1.06c1.12-1,2.13-1.92,3.18-2.8.5-.43.79-.91.32-1.46s-1-.43-1.56,0c-1.66,1.5-3.33,3-5,4.42a2.39,2.39,0,0,1-1.12.54c-2.55.44-5.1.83-7.65,1.23a1,1,0,0,1-1.15-1.39c.77-2,1.63-4,2.29-6a5.77,5.77,0,0,1,2.46-3.23c1.5-1,2.9-2.15,4.35-3.22a.89.89,0,0,0,.32-1.33.92.92,0,0,0-1.43-.17c-.26.18-.5.38-.75.57l-2.82,2.09a4.5,4.5,0,0,1,2-3.07c1.61-1.08,3.14-2.29,4.7-3.46.52-.38.79-.89.34-1.47s-.94-.41-1.43,0l-.48.35-3,2.25c.43-1.7.57-1.9,1.79-2.81l4.81-3.6c.44-.33.77-.71.52-1.31s-.89-.71-1.58-.21c-1.14.83-2.26,1.67-3.39,2.51a43.16,43.16,0,0,1,1.66-4.64,1.39,1.39,0,0,1,.72-.67,2.75,2.75,0,0,0,1.77-1.62,2.66,2.66,0,0,0-1.18-3.17,2.61,2.61,0,0,0-3.55,3.56c.13.23.35.55.28.74-.57,1.61-1.2,3.2-1.8,4.79a26.17,26.17,0,0,1-1-3.94c-.13-.66-.38-1.22-1.16-1.06s-.8.77-.66,1.43c.4,2,.7,4,1.21,5.89a4.64,4.64,0,0,1-.58,3.3c-.31-1.51-.6-2.85-.86-4.2-.12-.67-.41-1.19-1.16-1.06s-.79.77-.66,1.41c.4,2,.73,4,1.22,6a4.44,4.44,0,0,1-.63,3.26c-.1-.47-.16-.77-.22-1.07-.24-1.15-.46-2.3-.71-3.45-.13-.55-.55-.91-1.07-.69-.33.14-.54.62-.73,1-.07.14,0,.39.08.58.43,2.14.88,4.27,1.29,6.41a2.19,2.19,0,0,1-.08,1.08c-.93,2.52-1.89,5-2.86,7.54a1,1,0,0,1-1.72.22c-1.6-2-3.23-3.93-4.79-5.94a3.57,3.57,0,0,1-.65-1.61c-.3-2.16-.52-4.33-.79-6.49-.11-.83-.69-1.26-1.27-.87a1.54,1.54,0,0,0-.52,1.19c.08,1.38.28,2.75.45,4.23a4.09,4.09,0,0,1-1.65-3.19c0-1.08-.22-2.16-.35-3.24s-.21-1.89-.35-2.82c-.08-.57-.49-.94-1-.77a1.66,1.66,0,0,0-.78.93,2.42,2.42,0,0,0,.08,1c.13,1.16.26,2.32.41,3.56a4.13,4.13,0,0,1-1.61-3.22c-.08-1.4-.3-2.79-.47-4.18-.06-.57-.12-1.15-.2-1.71a.89.89,0,0,0-1-.88.86.86,0,0,0-.79,1c0,.46.11.91.16,1.37.11,1,.22,2,.36,3.29-1.16-1.43-2.14-2.65-3.15-3.86a1.26,1.26,0,0,1-.28-1.23,2.57,2.57,0,0,0-2.71-3.13,2.61,2.61,0,0,0,.08,5.21c.33,0,.78,0,1,.2,1.12,1.3,2.18,2.65,3.4,4.16-1.55-.52-2.88-.95-4.2-1.41-.62-.21-1.2-.22-1.44.47s.18,1.08.87,1.3c2,.64,3.88,1.4,5.86,2a4.59,4.59,0,0,1,2.45,2.12l-4.14-1.39c-.6-.21-1.2-.23-1.43.47s.18,1.08.86,1.3c1.83.59,3.61,1.31,5.46,1.81a4.65,4.65,0,0,1,2.87,2.31c-1.43-.48-2.75-.91-4.07-1.37-.65-.22-1.24-.21-1.46.54s.25,1,.87,1.23c2.09.69,4.18,1.38,6.26,2.12a2.57,2.57,0,0,1,1.1.73c1.69,2,3.33,4.07,5,6.12a1,1,0,0,1-.67,1.7c-2.47.41-4.93.83-7.4,1.17a3.33,3.33,0,0,1-1.65-.21c-2-.81-4-1.69-6-2.56-.6-.26-1.15-.32-1.45.36s.07,1.06.69,1.32c1.3.55,2.59,1.13,3.93,1.71a4.46,4.46,0,0,1-4-.34c-1.63-.78-3.29-1.48-5-2.14a1.55,1.55,0,0,0-1.17.1.94.94,0,0,0-.26.88,1.78,1.78,0,0,0,.86.76c1.21.57,2.46,1.08,3.85,1.67a4.26,4.26,0,0,1-3,.06c-1.86-.88-3.77-1.67-5.66-2.48-.61-.27-1.27-.56-1.7.27-.3.58,0,1,.94,1.44a3,3,0,0,0,.32.12l3.12,1.37c-1.43.3-3,.62-4.51,1a1.14,1.14,0,0,1-1.2-.35,2.52,2.52,0,0,0-3.68.2,2.57,2.57,0,0,0,.31,3.74,2.49,2.49,0,0,0,3.7-.49,2,2,0,0,1,1.76-1c1.11-.12,2.21-.35,3.31-.52l1-.11-.78.71c-.88.78-1.76,1.55-2.62,2.34a.84.84,0,0,0-.16,1.29.88.88,0,0,0,1.36.09l.46-.39c1.44-1.26,2.93-2.47,4.3-3.81a3.83,3.83,0,0,1,3-1c-1.12,1-2.14,1.93-3.19,2.84-.5.44-.74.92-.24,1.47s1,.33,1.49-.11c1.6-1.42,3.27-2.78,4.82-4.26a4.32,4.32,0,0,1,2.86-.9l-.67.66c-.89.8-1.83,1.56-2.66,2.42a1.21,1.21,0,0,0-.15,1.11c.11.25.64.41,1,.41s.54-.3.77-.5c1.57-1.38,3.1-2.8,4.7-4.14a3.35,3.35,0,0,1,1.5-.7c2.43-.44,4.87-.81,7.3-1.2,1.25-.2,1.68.34,1.21,1.55-.86,2.24-1.7,4.49-2.6,6.72a3,3,0,0,1-.9,1.17c-1.77,1.37-3.57,2.68-5.36,4-.51.38-.74.86-.33,1.39a.94.94,0,0,0,1.43.11l.68-.52,2.84-2.08a4.31,4.31,0,0,1-1.79,2.91c-1.7,1.15-3.3,2.44-5,3.67a.91.91,0,0,0-.25,1.41c.39.5.9.41,1.37.06l1.73-1.27c.58-.43,1.17-.86,1.88-1.4-.61,2-.61,2-2,3s-3,2.24-4.55,3.37c-.72.54-.91,1.12-.5,1.57s1.07.35,1.6,0c1.09-.83,2.18-1.64,3.48-2.6-.71,1.84-1.31,3.46-2,5.07-.08.18-.39.25-.58.4a6.27,6.27,0,0,0-1.66,1.37,2.51,2.51,0,0,0,.79,3.29,2.66,2.66,0,0,0,3.2-.16,2.62,2.62,0,0,0,.54-3.36,1.11,1.11,0,0,1-.21-.75c.58-1.62,1.2-3.22,1.81-4.82a4,4,0,0,1,.39,1.2,32.8,32.8,0,0,0,.71,3.27,1.29,1.29,0,0,0,1,.62c.49,0,.79-.4.69-1,0-.22,0-.45-.09-.68-.38-1.91-.67-3.85-1.17-5.73a4.46,4.46,0,0,1,.6-3.19c.31,1.53.6,2.9.87,4.28.13.65.46,1.09,1.15,1s.8-.71.67-1.35c-.42-2.08-.75-4.18-1.27-6.23a4,4,0,0,1,.63-2.87c.35,1.34.63,2.68.89,4,.13.64.4,1.14,1.13,1s.83-.73.69-1.41c-.45-2.16-.9-4.32-1.29-6.5a2.77,2.77,0,0,1,.12-1.4c.86-2.34,1.77-4.65,2.67-7a1,1,0,0,1,1.88-.29c1.46,1.79,2.89,3.62,4.4,5.38a4.29,4.29,0,0,1,1,2.54c.18,2,.45,4,.7,6.07.07.6.4,1,1,.9a.9.9,0,0,0,.8-1.12c0-.51-.12-1-.17-1.53-.1-.91-.2-1.82-.3-2.79,1.42.93,1.55,2.3,1.68,3.68.17,1.77.37,3.54.62,5.3a1.44,1.44,0,0,0,.63.91,1,1,0,0,0,.92-.19,1.7,1.7,0,0,0,.25-1.1c-.12-1.36-.3-2.72-.46-4.12,1.4.9,1.51,2.27,1.64,3.65.18,1.77.38,3.54.63,5.3a1.41,1.41,0,0,0,.63.91,1,1,0,0,0,.91-.19,1.7,1.7,0,0,0,.25-1.1c-.11-1.36-.29-2.72-.45-4.08a49.34,49.34,0,0,1,3.36,3.94,1.14,1.14,0,0,1,0,.78,2.61,2.61,0,0,0,.55,2.34,2.58,2.58,0,0,0,3.28.56,2.53,2.53,0,0,0,1.23-2.86,2.58,2.58,0,0,0-2.65-2,1.16,1.16,0,0,1-.76-.22c-1.08-1.29-2.13-2.62-3.34-4.14l4.12,1.39c.61.2,1.25.31,1.5-.47s-.25-1.07-.89-1.29c-1.85-.61-3.67-1.32-5.54-1.84a4.37,4.37,0,0,1-2.69-2.19c1.33.44,2.55.86,3.76,1.25.65.21,1.37.55,1.76-.36.26-.6-.12-1.06-1.13-1.4l-5.46-1.82a3.45,3.45,0,0,1-2.5-2.17l4,1.36c.57.2,1.12.19,1.36-.47s-.19-1.1-.83-1.32c-2.09-.7-4.18-1.39-6.25-2.12a2.66,2.66,0,0,1-1.12-.73c-1.68-2-3.32-4.08-5-6.13-.58-.73-.35-1.33.57-1.48,2.43-.39,4.86-.81,7.31-1.14a4,4,0,0,1,1.89.25c2,.8,4,1.72,6,2.53a1.42,1.42,0,0,0,1.08-.12.87.87,0,0,0,.27-.81,1.75,1.75,0,0,0-.8-.79c-1.25-.59-2.54-1.12-3.93-1.73a4.67,4.67,0,0,1,3.53.13c1.78.91,3.66,1.62,5.49,2.41.56.24,1.13.26,1.42-.35s-.06-1.09-.66-1.36c-.36-.17-.74-.3-1.11-.46l-2.87-1.28a3.82,3.82,0,0,1,3.33.15,20,20,0,0,0,2.27,1l3.48,1.46a.86.86,0,0,0,1.22-.46.83.83,0,0,0-.42-1.15,5.12,5.12,0,0,0-.62-.31l-3.51-1.52C1168.61,1178.5,1170.1,1178.22,1171.58,1177.91Zm90.6-461.32a1.51,1.51,0,0,1,1.25-.85,2.48,2.48,0,0,0,2.19-3.07,2.58,2.58,0,0,0-2.93-2.11,2.46,2.46,0,0,0-2.2,3.05,2.43,2.43,0,0,1-.46,2.3c-.62,1-1.19,1.93-1.79,2.89-.11.17-.25.32-.48.61,0-1.58,0-3,0-4.35,0-.67-.18-1.2-.91-1.21s-1,.53-1,1.24c0,2,0,4.06.08,6.09a4.26,4.26,0,0,1-1.22,3.15c0-1.52,0-2.93,0-4.35,0-.64-.18-1.22-.93-1.22s-1,.57-1,1.27c0,2.05,0,4.11.09,6.17a4.26,4.26,0,0,1-1.26,3.1c0-1.52-.06-2.91,0-4.29,0-.67-.17-1.21-.9-1.22s-1,.5-1,1.23q.08,3.39,0,6.78a2.48,2.48,0,0,1-.33,1.22c-1.36,2.23-2.75,4.45-4.13,6.66a1,1,0,0,1-1.83,0c-1-1.91-2-3.88-3.09-5.73a5.87,5.87,0,0,1-.84-4c.23-1.8.27-3.63.42-5.45,0-.63-.2-1.06-.81-1.13s-1,.33-1.07,1c0,.32,0,.64-.07,1-.08,1.14-.17,2.27-.26,3.55a4.54,4.54,0,0,1-1-3.56c.25-2,.33-3.93.47-5.89,0-.65-.16-1.2-.9-1.24s-.94.45-1,1.07c0,.2,0,.41,0,.61-.09,1.23-.19,2.47-.3,3.81-1-1.45-1.07-1.69-1-3.23.15-2,.29-4.05.43-6.07,0-.55,0-1.06-.65-1.27s-1.14.22-1.22,1.08c-.12,1.42-.21,2.84-.32,4.26a41.83,41.83,0,0,1-2.45-4.35,1.41,1.41,0,0,1,0-1,2.76,2.76,0,0,0-.07-2.43,2.66,2.66,0,0,0-3.2-1.2,2.64,2.64,0,0,0,.37,5.07c.26.06.65.1.75.29.86,1.5,1.66,3,2.48,4.55a27,27,0,0,1-3.69-1.85c-.59-.34-1.18-.52-1.57.18s0,1.12.65,1.46c1.77,1,3.49,2.08,5.32,3a4.62,4.62,0,0,1,2.13,2.63l-3.78-2.13c-.59-.35-1.18-.47-1.58.19s.06,1.11.64,1.44c1.8,1,3.56,2.1,5.4,3a4.52,4.52,0,0,1,2.07,2.64l-.95-.53c-1-.59-2.07-1.18-3.12-1.75-.51-.27-1.06-.18-1.24.37a2.15,2.15,0,0,0,.27,1.21c.06.15.32.23.5.33,1.92,1.08,3.85,2.15,5.76,3.26a2.06,2.06,0,0,1,.78.77q2,3.57,3.87,7.19a1,1,0,0,1-1,1.46c-2.58-.08-5.16-.13-7.73-.27a3.59,3.59,0,0,1-1.66-.57c-1.86-1.2-3.66-2.47-5.49-3.7-.71-.46-1.43-.3-1.52.4a1.62,1.62,0,0,0,.58,1.19c1.1.85,2.29,1.61,3.53,2.46a4.2,4.2,0,0,1-3.53-.85c-.86-.69-1.81-1.27-2.72-1.89s-1.58-1.08-2.39-1.6a.81.81,0,0,0-1.27.27,1.74,1.74,0,0,0,.2,1.22c.15.27.54.41.83.61l3,2.05a4.18,4.18,0,0,1-3.53-.9c-1.12-.87-2.34-1.62-3.51-2.42l-1.44-1a.9.9,0,0,0-1.37.23.86.86,0,0,0,.27,1.29c.37.27.77.52,1.15.79.86.58,1.71,1.17,2.76,1.9-1.86-.06-3.45-.12-5-.15a1.27,1.27,0,0,1-1.13-.6,2.6,2.6,0,0,0-4.19,0,2.64,2.64,0,0,0,4,3.39c.23-.23.52-.58.78-.58,1.74,0,3.48.08,5.44.15-1.42.84-2.64,1.57-3.86,2.28-.57.33-1,.77-.59,1.41s.94.58,1.57.2c1.78-1.08,3.64-2,5.37-3.19a4.57,4.57,0,0,1,3.25-.48l-3.8,2.25c-.57.33-1,.77-.6,1.41s1,.58,1.57.2c1.66-1,3.4-1.9,5-3a4.67,4.67,0,0,1,3.67-.67c-1.31.78-2.52,1.51-3.74,2.21-.61.35-1,.81-.55,1.48s.95.48,1.51.15c1.92-1.15,3.83-2.29,5.77-3.39a2.71,2.71,0,0,1,1.29-.37c2.66.06,5.33.16,8,.25a1,1,0,0,1,.86,1.65c-1.33,2.15-2.64,4.31-4,6.44a3.46,3.46,0,0,1-1.25,1.12c-2,1-4,1.94-5.94,2.89-.6.28-1,.67-.68,1.35s.86.65,1.46.34c1.29-.63,2.59-1.23,3.92-1.87a4.54,4.54,0,0,1-2.92,2.84c-1.67.73-3.31,1.54-4.92,2.38a1.53,1.53,0,0,0-.7,1,.91.91,0,0,0,.5.78,1.78,1.78,0,0,0,1.15-.15c1.24-.55,2.45-1.17,3.83-1.84a4.31,4.31,0,0,1-1.93,2.32c-1.91.85-3.77,1.78-5.65,2.69-.61.29-1.27.6-.92,1.49.24.6.8.67,1.72.23.11-.05.21-.12.31-.17l3.11-1.48c-.71,1.29-1.49,2.68-2.25,4.08a1.15,1.15,0,0,1-1.06.7,2.54,2.54,0,0,0-2.28,2.94,2.59,2.59,0,0,0,3.06,2.25,2.52,2.52,0,0,0,2.08-3.16,2,2,0,0,1,.37-2c.64-.94,1.2-1.93,1.8-2.89.13-.22.29-.43.54-.8,0,.5,0,.79,0,1.07,0,1.19,0,2.38.06,3.56,0,.57.27,1,.88,1a.87.87,0,0,0,1-1c0-.2,0-.4,0-.61,0-1.94.05-3.88-.06-5.82a3.89,3.89,0,0,1,1.18-3c0,1.53.06,2.93.07,4.33,0,.68.21,1.18,1,1.16s.91-.55.91-1.22c0-2.17,0-4.34-.07-6.51a4.35,4.35,0,0,1,1.2-2.78c0,.44.06.69.06.94,0,1.22,0,2.44.1,3.65a1.23,1.23,0,0,0,.75.85c.26.08.73-.22,1-.48s.13-.61.12-.92c0-2.12-.08-4.23,0-6.35a3.29,3.29,0,0,1,.46-1.61c1.27-2.15,2.61-4.26,3.92-6.38.68-1.09,1.37-1.06,2,.1,1.15,2.14,2.31,4.27,3.42,6.44a3,3,0,0,1,.3,1.47c-.12,2.26-.31,4.51-.48,6.76,0,.64.17,1.14.85,1.18s1-.4,1-1c0-.29,0-.58.06-.87.09-1.13.18-2.25.29-3.55a4.41,4.41,0,0,1,1,3.3c-.24,2.07-.32,4.15-.48,6.23,0,.68.27,1.09.91,1.12s.91-.41,1-1,.11-1.45.17-2.17.11-1.46.18-2.37c1.09,1.77,1.09,1.77,1,3.53s-.29,3.81-.43,5.71c-.07.91.25,1.44.87,1.43.8,0,1-.59,1-1.25.1-1.38.2-2.76.32-4.39,1,1.76,1.78,3.3,2.58,4.86.09.17-.06.47-.07.71a6.42,6.42,0,0,0,0,2.18,2.54,2.54,0,0,0,3,1.57,2.69,2.69,0,0,0,2-2.55,2.65,2.65,0,0,0-2.21-2.64c-.26,0-.61-.15-.72-.34-.86-1.51-1.67-3.05-2.49-4.58a3.9,3.9,0,0,1,1.17.5c1,.55,2,1.16,3,1.62a1.32,1.32,0,0,0,1.16-.37.75.75,0,0,0-.28-1.18c-.2-.11-.38-.26-.58-.38-1.72-1-3.39-2-5.17-2.9a4.53,4.53,0,0,1-2.05-2.58l3.86,2.17c.58.34,1.14.38,1.5-.24s0-1.08-.58-1.4c-1.87-1-3.7-2.19-5.62-3.16a4.1,4.1,0,0,1-1.78-2.38c1.26.62,2.48,1.29,3.68,2,.57.33,1.14.45,1.51-.2s0-1.12-.63-1.46c-2-1.09-3.9-2.19-5.82-3.32a2.82,2.82,0,0,1-1-1c-1.22-2.2-2.38-4.44-3.57-6.66a1,1,0,0,1,1-1.64c2.34.08,4.69.2,7,.21a4.25,4.25,0,0,1,2.64.89c1.67,1.21,3.4,2.33,5.11,3.48a.88.88,0,0,0,1.37-.19.91.91,0,0,0-.32-1.35c-.43-.31-.86-.59-1.29-.89l-2.34-1.61c1.66-.48,2.79.33,3.94,1.15,1.46,1,3,2.06,4.46,3a1.46,1.46,0,0,0,1.12.12.94.94,0,0,0,.46-.82,1.72,1.72,0,0,0-.67-.93c-1.12-.81-2.28-1.57-3.46-2.37,1.62-.48,2.74.34,3.88,1.15,1.47,1,3,2.06,4.47,3a1.43,1.43,0,0,0,1.11.12,1,1,0,0,0,.47-.83,1.75,1.75,0,0,0-.68-.92c-1.12-.81-2.28-1.57-3.42-2.35a45.71,45.71,0,0,1,5.24,0c.22,0,.46.28.63.48a2.64,2.64,0,0,0,4.76-1,2.65,2.65,0,0,0-4.67-2.14c-.18.19-.45.44-.68.43-1.71,0-3.42-.1-5.38-.17l3.79-2.25c.56-.33,1.07-.74.64-1.45s-1-.53-1.58-.17c-1.69,1-3.45,1.92-5.08,3a4.38,4.38,0,0,1-3.46.61c1.22-.72,2.34-1.38,3.45-2.05.6-.36,1.32-.68.89-1.59-.29-.59-.89-.6-1.82,0l-5,3a3.52,3.52,0,0,1-3.32.48l3.71-2.19c.53-.31.88-.73.54-1.36s-1-.58-1.56-.23c-1.92,1.13-3.83,2.28-5.77,3.38a2.72,2.72,0,0,1-1.29.38c-2.67-.06-5.33-.17-8-.27-.95,0-1.26-.61-.76-1.41,1.31-2.13,2.61-4.27,4-6.35a3.89,3.89,0,0,1,1.44-1.29c2-1,4-1.92,5.92-2.92a1.51,1.51,0,0,0,.63-.91.9.9,0,0,0-.45-.74,1.76,1.76,0,0,0-1.13.09c-1.29.56-2.54,1.19-3.93,1.86A4.71,4.71,0,0,1,1256,728c1.87-.77,3.66-1.73,5.49-2.62.55-.26.94-.69.66-1.31s-.88-.68-1.48-.4l-1.08.54-2.89,1.36a3.86,3.86,0,0,1,2.32-2.45,20.66,20.66,0,0,0,2.28-1.09c1.14-.56,2.29-1.11,3.42-1.69a.91.91,0,0,0-.71-1.68c-.21.08-.43.17-.64.27l-3.49,1.68C1260.66,719.25,1261.44,717.93,1262.18,716.59ZM221.74,908.2a1.61,1.61,0,0,1,1.53-.49,2.66,2.66,0,0,0,3.19-2.48,2.77,2.77,0,0,0-2.37-3.06,2.64,2.64,0,0,0-3.18,2.47,2.6,2.6,0,0,1-1.17,2.21c-.92.79-1.81,1.61-2.72,2.41a7.5,7.5,0,0,1-.67.49c.46-1.62.85-3,1.29-4.47.2-.69.17-1.29-.58-1.52s-1.17.24-1.37,1c-.58,2.09-1.26,4.15-1.77,6.26a4.59,4.59,0,0,1-2.21,2.86c.45-1.56.88-3,1.3-4.46.19-.66.18-1.32-.59-1.54s-1.17.29-1.37,1c-.6,2.12-1.29,4.21-1.79,6.35A4.54,4.54,0,0,1,207,918c.44-1.56.83-3,1.26-4.41.21-.69.19-1.3-.56-1.52s-1.17.2-1.38.95q-1,3.51-2,7a2.51,2.51,0,0,1-.71,1.15c-2.07,1.88-4.17,3.72-6.26,5.57a1.09,1.09,0,0,1-1.86-.59c-.47-2.28-.84-4.58-1.42-6.82a6.3,6.3,0,0,1,.36-4.4c.79-1.78,1.39-3.64,2.09-5.46a1,1,0,0,0-.48-1.4c-.66-.29-1.14,0-1.4.68-.13.31-.24.63-.36.95l-1.35,3.55a4.87,4.87,0,0,1,0-4c.85-1.92,1.53-3.92,2.28-5.89.24-.66.2-1.28-.55-1.55s-1.1.18-1.33.81c-.07.2-.15.4-.23.6-.47,1.24-1,2.48-1.46,3.82-.6-1.8-.59-2.06,0-3.61q1.14-3,2.29-6.08c.21-.56.29-1.1-.29-1.5s-1.23-.13-1.57.73c-.56,1.42-1.09,2.84-1.63,4.27a47.4,47.4,0,0,1-1.19-5.2,1.49,1.49,0,0,1,.27-1,3,3,0,0,0,.66-2.51,2.85,2.85,0,0,0-2.91-2.2,2.82,2.82,0,0,0-1.17,5.31c.25.14.63.31.69.52.41,1.8.77,3.61,1.14,5.42a30.74,30.74,0,0,1-3.21-3c-.5-.53-1.05-.9-1.67-.3s-.29,1.17.22,1.69c1.52,1.56,3,3.21,4.55,4.68a5,5,0,0,1,1.39,3.34c-1.16-1.19-2.21-2.25-3.23-3.33-.5-.53-1.07-.84-1.68-.29s-.27,1.16.22,1.68c1.54,1.58,3,3.23,4.61,4.74a4.86,4.86,0,0,1,1.32,3.35c-.35-.37-.58-.61-.82-.84-.88-.92-1.76-1.84-2.66-2.74-.44-.43-1-.52-1.38,0a2.25,2.25,0,0,0-.09,1.33c0,.17.26.33.41.49,1.64,1.69,3.3,3.38,4.92,5.09a2.32,2.32,0,0,1,.56,1q.92,4.27,1.78,8.55a1,1,0,0,1-1.43,1.2c-2.62-.86-5.25-1.7-7.84-2.62a3.78,3.78,0,0,1-1.53-1.1c-1.54-1.78-3-3.64-4.51-5.45-.58-.7-1.37-.75-1.67-.06a1.69,1.69,0,0,0,.23,1.4c.87,1.21,1.86,2.34,2.87,3.59a4.41,4.41,0,0,1-3.36-2c-.67-1-1.47-1.84-2.22-2.75s-1.29-1.6-2-2.37a.86.86,0,0,0-1.38-.11,1.75,1.75,0,0,0-.16,1.31c.06.32.42.59.66.88l2.45,3a4.47,4.47,0,0,1-3.34-2c-.89-1.23-1.91-2.37-2.87-3.55-.4-.48-.78-1-1.18-1.44a1,1,0,0,0-1.48-.18.93.93,0,0,0-.11,1.41c.3.39.63.76.94,1.15l2.26,2.79c-1.89-.62-3.51-1.17-5.13-1.68a1.36,1.36,0,0,1-1-1,2.8,2.8,0,0,0-4.31-1.28,2.83,2.83,0,0,0,3.12,4.71c.31-.17.71-.44,1-.36,1.78.53,3.54,1.14,5.53,1.8-1.72.44-3.18.82-4.66,1.17-.68.16-1.22.5-1,1.26s.79.88,1.55.69c2.15-.57,4.35-1,6.48-1.64a4.9,4.9,0,0,1,3.47.5L168,925.14c-.67.16-1.23.49-1,1.26s.8.88,1.55.68c2-.53,4.06-.91,6-1.53a5.06,5.06,0,0,1,4,.43c-1.58.4-3,.78-4.51,1.13-.73.18-1.25.53-1,1.35s.83.78,1.51.61c2.31-.59,4.63-1.18,6.95-1.72a2.88,2.88,0,0,1,1.43,0c2.72.87,5.41,1.78,8.12,2.69a1.06,1.06,0,0,1,.37,2c-2,1.8-4,3.62-6.06,5.38a3.61,3.61,0,0,1-1.63.76c-2.31.44-4.64.79-7,1.16-.7.11-1.23.38-1.11,1.18s.69.92,1.4.8c1.51-.26,3-.48,4.59-.73a4.87,4.87,0,0,1-3.86,2c-1.93.24-3.86.57-5.77.94a1.66,1.66,0,0,0-1,.77,1,1,0,0,0,.28,1,1.94,1.94,0,0,0,1.22.2c1.44-.2,2.87-.46,4.48-.72a4.57,4.57,0,0,1-2.68,1.78c-2.21.29-4.41.68-6.61,1-.72.12-1.49.23-1.39,1.24.06.7.62.94,1.69.77l.37-.08,3.64-.57c-1.13,1.11-2.35,2.29-3.55,3.5a1.23,1.23,0,0,1-1.3.39,2.73,2.73,0,0,0-3.24,2.32,2.78,2.78,0,0,0,2.46,3.24,2.7,2.7,0,0,0,3.09-2.61,2.19,2.19,0,0,1,1-2c.94-.76,1.82-1.61,2.72-2.41.21-.19.44-.36.8-.65l-.3,1.1c-.34,1.22-.69,2.44-1,3.67a.92.92,0,0,0,.61,1.26.94.94,0,0,0,1.29-.71c.07-.21.14-.41.2-.62.58-2,1.24-4,1.7-6a4.19,4.19,0,0,1,2.13-2.71c-.44,1.57-.82,3-1.25,4.45-.2.7-.14,1.27.64,1.48s1.1-.28,1.3-1c.63-2.23,1.36-4.44,1.91-6.69.29-1.16,1.1-1.71,2.08-2.49-.11.47-.16.73-.23,1-.34,1.25-.75,2.49-1,3.76a1.32,1.32,0,0,0,.51,1.11,1.38,1.38,0,0,0,1.13-.21c.24-.15.32-.58.41-.9.63-2.18,1.21-4.36,1.88-6.52a3.59,3.59,0,0,1,1-1.51c2-1.82,4-3.58,6-5.36,1-.91,1.72-.66,2,.71.53,2.55,1.07,5.09,1.55,7.65a3.36,3.36,0,0,1-.14,1.6c-.82,2.27-1.69,4.52-2.55,6.78-.25.64-.17,1.22.51,1.46s1.12-.11,1.36-.74c.12-.29.21-.58.32-.87.44-1.13.88-2.25,1.38-3.55a4.72,4.72,0,0,1,.07,3.7c-.88,2-1.6,4.16-2.39,6.24a1,1,0,0,0,.59,1.43c.65.23,1.06-.15,1.29-.74s.56-1.45.83-2.17.56-1.47.91-2.37c.57,2.14.57,2.14-.1,3.9s-1.46,3.81-2.18,5.72c-.35.92-.18,1.56.46,1.73.83.23,1.18-.3,1.43-1,.51-1.38,1-2.77,1.66-4.4.43,2.09.82,3.93,1.17,5.77,0,.2-.21.46-.3.7a6.91,6.91,0,0,0-.71,2.22,2.72,2.72,0,0,0,2.64,2.54,2.88,2.88,0,0,0,2.83-2,2.84,2.84,0,0,0-1.47-3.38c-.25-.13-.58-.34-.63-.57-.42-1.81-.78-3.63-1.16-5.45a4.39,4.39,0,0,1,1.05.87c.85.87,1.64,1.79,2.56,2.57a1.42,1.42,0,0,0,1.3,0,.79.79,0,0,0,.07-1.29c-.17-.18-.31-.39-.48-.57-1.46-1.52-2.86-3.12-4.41-4.54a4.85,4.85,0,0,1-1.32-3.27c1.19,1.22,2.25,2.3,3.29,3.4.5.52,1.06.73,1.62.21s.31-1.11-.17-1.61c-1.6-1.66-3.13-3.38-4.8-4.95a4.36,4.36,0,0,1-1.1-3c1.11,1,2.15,2.08,3.17,3.16.48.5,1,.81,1.61.24s.33-1.14-.2-1.68c-1.67-1.71-3.34-3.43-5-5.18a3,3,0,0,1-.72-1.36c-.57-2.63-1.09-5.27-1.63-7.91a1.12,1.12,0,0,1,1.56-1.36c2.38.78,4.74,1.62,7.14,2.34a4.68,4.68,0,0,1,2.44,1.72c1.34,1.75,2.77,3.43,4.18,5.13a.94.94,0,0,0,1.46.22,1,1,0,0,0,.08-1.49c-.34-.44-.7-.87-1.05-1.3l-1.9-2.36c1.84,0,2.75,1.18,3.68,2.37,1.19,1.52,2.4,3,3.66,4.47a1.54,1.54,0,0,0,1.1.47,1.06,1.06,0,0,0,.73-.71,1.88,1.88,0,0,0-.41-1.15c-.9-1.18-1.86-2.31-2.82-3.49,1.8,0,2.7,1.19,3.63,2.37,1.19,1.51,2.4,3,3.65,4.47a1.53,1.53,0,0,0,1.11.46,1,1,0,0,0,.72-.7,1.89,1.89,0,0,0-.41-1.16c-.9-1.17-1.86-2.3-2.79-3.45a51.3,51.3,0,0,1,5.36,1.64c.22.08.39.42.5.68a2.82,2.82,0,0,0,5.18.42,2.83,2.83,0,0,0-4.13-3.62,1.3,1.3,0,0,1-.83.24c-1.74-.55-3.47-1.15-5.46-1.82,1.7-.43,3.14-.78,4.57-1.15.67-.17,1.32-.43,1.1-1.29s-.86-.84-1.57-.66c-2,.52-4.12.92-6.13,1.54a4.65,4.65,0,0,1-3.73-.42l4.16-1.06c.72-.18,1.57-.29,1.39-1.36-.11-.69-.72-.88-1.84-.6l-6,1.52a3.77,3.77,0,0,1-3.55-.52l4.47-1.11c.63-.16,1.12-.49,1-1.23s-.82-.89-1.53-.71c-2.31.57-4.62,1.16-6.94,1.7a2.85,2.85,0,0,1-1.45,0c-2.71-.86-5.41-1.78-8.11-2.7-1-.32-1.1-1-.35-1.68,2-1.78,4-3.58,6-5.3a4.23,4.23,0,0,1,1.87-.87c2.31-.45,4.65-.77,7-1.2a1.6,1.6,0,0,0,.92-.74.92.92,0,0,0-.23-.89,1.89,1.89,0,0,0-1.19-.26c-1.49.18-3,.45-4.59.71a5,5,0,0,1,3.29-1.94c2.15-.21,4.29-.65,6.42-1,.65-.11,1.18-.43,1.09-1.15s-.69-1-1.4-.86c-.42.06-.85.16-1.28.23l-3.36.51a4.12,4.12,0,0,1,3.12-1.81,20.42,20.42,0,0,0,2.66-.42c1.34-.22,2.69-.44,4-.68a.93.93,0,0,0,.84-1.13.9.9,0,0,0-1.06-.81c-.24,0-.49,0-.74.07l-4.09.66C219.37,910.47,220.57,909.35,221.74,908.2Zm192,350.84a1.57,1.57,0,0,1,1.08-1.1,2.55,2.55,0,0,0,1.61-3.52,2.65,2.65,0,0,0-3.37-1.54,2.53,2.53,0,0,0-1.61,3.5,2.49,2.49,0,0,1,0,2.4c-.44,1.08-.83,2.17-1.24,3.26-.08.19-.19.37-.36.71-.33-1.59-.63-3-.89-4.37-.13-.68-.43-1.17-1.17-1s-.88.73-.73,1.45c.44,2,.78,4.08,1.29,6.1a4.43,4.43,0,0,1-.61,3.41l-.89-4.37c-.13-.64-.42-1.19-1.17-1s-.87.77-.73,1.46c.44,2.06.78,4.15,1.31,6.19a4.39,4.39,0,0,1-.66,3.37c-.32-1.53-.63-2.91-.89-4.31-.13-.68-.41-1.18-1.15-1s-.91.69-.75,1.43q.74,3.39,1.38,6.81a2.57,2.57,0,0,1-.09,1.29c-.92,2.51-1.89,5-2.84,7.51a1,1,0,0,1-1.85.32c-1.41-1.72-2.74-3.51-4.24-5.16a6.08,6.08,0,0,1-1.64-3.89c-.12-1.86-.44-3.71-.65-5.57-.07-.64-.41-1-1-1s-.95.53-.88,1.2c0,.32.08.64.12,1,.14,1.15.27,2.31.43,3.61a4.64,4.64,0,0,1-1.74-3.37c-.14-2-.44-4-.69-6-.08-.67-.39-1.17-1.15-1.07s-.85.64-.77,1.27c0,.21.05.41.08.62.14,1.26.29,2.52.45,3.89-1.3-1.26-1.42-1.49-1.61-3.06q-.37-3.09-.76-6.19c-.07-.56-.24-1.06-.91-1.14s-1.1.44-1,1.32c.15,1.45.34,2.9.51,4.35a47.84,47.84,0,0,1-3.32-3.89,1.45,1.45,0,0,1-.23-1,2.86,2.86,0,0,0-.56-2.43,2.73,2.73,0,0,0-3.45-.57,2.7,2.7,0,0,0,1.37,5c.28,0,.67,0,.81.14,1.16,1.34,2.27,2.72,3.39,4.09a30,30,0,0,1-4.07-1.13c-.66-.23-1.29-.3-1.55.49s.28,1.12.94,1.33c2,.65,3.93,1.41,5.94,2a4.75,4.75,0,0,1,2.66,2.23c-1.51-.5-2.87-.94-4.22-1.4-.66-.23-1.28-.24-1.56.5s.29,1.11.94,1.33c2,.66,4,1.41,6,2a4.65,4.65,0,0,1,2.61,2.25l-1.07-.35c-1.16-.38-2.31-.78-3.48-1.14-.56-.17-1.1,0-1.17.61,0,.37.28.8.51,1.16.09.14.37.17.57.24,2.14.71,4.3,1.41,6.43,2.14a2.14,2.14,0,0,1,.93.63c1.79,2.14,3.56,4.3,5.32,6.46A1,1,0,0,1,397,1289c-2.6.43-5.2.89-7.82,1.26a3.75,3.75,0,0,1-1.78-.25c-2.1-.84-4.17-1.77-6.26-2.64-.8-.33-1.49,0-1.44.7a1.6,1.6,0,0,0,.81,1.08c1.28.64,2.62,1.17,4,1.78a4.24,4.24,0,0,1-3.72-.16c-1-.52-2.07-.92-3.11-1.36s-1.8-.78-2.71-1.14c-.56-.22-1.11,0-1.22.52a1.69,1.69,0,0,0,.44,1.19c.19.24.62.31.95.45l3.42,1.47a4.26,4.26,0,0,1-3.73-.22c-1.3-.65-2.67-1.16-4-1.73-.55-.24-1.09-.48-1.64-.7a.92.92,0,0,0-1.34.5.89.89,0,0,0,.53,1.24c.44.2.88.38,1.32.56l3.15,1.37c-1.88.31-3.49.57-5.1.85a1.3,1.3,0,0,1-1.25-.38,2.69,2.69,0,1,0-3.09,4.37,2.69,2.69,0,0,0,3.6-.93c.19-.28.41-.69.67-.75,1.75-.34,3.52-.6,5.51-.92-1.27,1.13-2.35,2.11-3.44,3.06-.51.45-.82,1-.32,1.53s1.07.4,1.62-.1c1.58-1.44,3.26-2.78,4.78-4.27a4.67,4.67,0,0,1,3.17-1.12c-1.22,1.08-2.29,2-3.38,3-.5.44-.83,1-.33,1.53s1.07.4,1.62-.1c1.47-1.35,3-2.58,4.45-4a4.81,4.81,0,0,1,3.55-1.39c-1.16,1-2.23,2-3.32,3-.54.47-.83,1-.27,1.6s1.05.3,1.55-.15c1.7-1.53,3.41-3.06,5.14-4.55a2.76,2.76,0,0,1,1.23-.62c2.69-.47,5.38-.89,8.08-1.32a1,1,0,0,1,1.19,1.48c-.91,2.43-1.8,4.86-2.76,7.27a3.43,3.43,0,0,1-1,1.37c-1.78,1.4-3.59,2.74-5.41,4.08-.54.4-.87.87-.42,1.5s1,.47,1.55,0c1.16-.89,2.35-1.75,3.56-2.65a4.6,4.6,0,0,1-2.37,3.42c-1.54,1.07-3,2.2-4.49,3.37a1.6,1.6,0,0,0-.51,1.1,1,1,0,0,0,.66.69,1.85,1.85,0,0,0,1.13-.38c1.14-.8,2.23-1.66,3.49-2.6a4.42,4.42,0,0,1-1.49,2.71c-1.75,1.23-3.44,2.53-5.15,3.82-.56.41-1.16.85-.63,1.67.36.57.94.52,1.78-.1l.27-.23,2.84-2.1c-.46,1.44-1,3-1.46,4.55a1.15,1.15,0,0,1-.93.9,2.63,2.63,0,0,0-1.72,3.42,2.66,2.66,0,0,0,3.53,1.65,2.58,2.58,0,0,0,1.47-3.58,2.07,2.07,0,0,1,0-2.12c.46-1.07.82-2.17,1.24-3.26.09-.25.21-.49.39-.91.11.5.17.79.23,1.07.25,1.19.5,2.39.76,3.57.12.57.46.92,1.08.81a.91.91,0,0,0,.78-1.18c0-.21-.07-.41-.12-.62-.39-2-.71-3.91-1.2-5.84a4,4,0,0,1,.6-3.25c.32,1.53.64,2.93.91,4.34.14.68.45,1.15,1.2,1s.82-.73.67-1.4c-.45-2.18-.81-4.38-1.34-6.54-.28-1.11.17-1.94.66-3,.11.45.19.69.24.94.27,1.22.47,2.45.82,3.65a1.25,1.25,0,0,0,.92.71c.28,0,.69-.37.87-.67s0-.64-.05-1c-.44-2.12-.92-4.23-1.31-6.37a3.44,3.44,0,0,1,.15-1.71c.86-2.41,1.78-4.8,2.69-7.19.46-1.23,1.17-1.33,2-.29,1.58,1.92,3.17,3.84,4.71,5.8a3.08,3.08,0,0,1,.59,1.42c.32,2.3.58,4.6.85,6.9.08.65.4,1.1,1.09,1s.9-.59.83-1.23c0-.3-.09-.59-.12-.89-.13-1.15-.26-2.3-.4-3.62a4.5,4.5,0,0,1,1.69,3.11c.16,2.12.5,4.24.74,6.36a.94.94,0,0,0,1.15,1c.65-.09.83-.59.76-1.2s-.17-1.48-.26-2.21-.17-1.5-.28-2.42c1.44,1.56,1.44,1.56,1.65,3.36s.45,3.89.69,5.83c.11.93.54,1.4,1.16,1.26.8-.17.86-.78.78-1.46-.18-1.4-.34-2.81-.54-4.47,1.29,1.58,2.44,3,3.55,4.38.12.16,0,.48.06.72a6.42,6.42,0,0,0,.39,2.2,2.58,2.58,0,0,0,3.36,1,2.74,2.74,0,0,0,1.51-3,2.72,2.72,0,0,0-2.75-2.22c-.26,0-.64,0-.78-.2-1.16-1.35-2.28-2.74-3.41-4.12a4.15,4.15,0,0,1,1.28.27c1.1.36,2.19.79,3.32,1a1.38,1.38,0,0,0,1.09-.6c.26-.44,0-.92-.52-1.13-.23-.08-.44-.19-.66-.27-1.92-.65-3.81-1.38-5.76-1.9a4.62,4.62,0,0,1-2.57-2.19c1.54.51,2.93,1,4.3,1.43.65.22,1.22.15,1.47-.55s-.23-1.07-.87-1.29c-2.09-.69-4.15-1.48-6.27-2.07-1.17-.32-1.65-1.2-2.26-2,1.39.38,2.75.82,4.09,1.27.64.22,1.24.23,1.48-.5s-.23-1.12-.92-1.35c-2.18-.7-4.35-1.42-6.51-2.19a3,3,0,0,1-1.21-.83c-1.66-2-3.27-4-4.9-6a1.07,1.07,0,0,1,.71-1.85c2.37-.38,4.76-.72,7.12-1.18a4.43,4.43,0,0,1,2.82.38c1.92.88,3.88,1.68,5.83,2.5a.91.91,0,0,0,1.34-.46.93.93,0,0,0-.59-1.3c-.49-.23-1-.43-1.47-.64l-2.67-1.17c1.58-.79,2.87-.21,4.19.39,1.68.76,3.37,1.49,5.09,2.17a1.46,1.46,0,0,0,1.14-.1,1,1,0,0,0,.31-.92,1.79,1.79,0,0,0-.86-.79c-1.29-.6-2.61-1.14-3.95-1.72,1.53-.8,2.82-.18,4.13.41,1.69.75,3.38,1.48,5.09,2.16a1.44,1.44,0,0,0,1.15-.09,1,1,0,0,0,.3-.92,1.77,1.77,0,0,0-.86-.8c-1.29-.6-2.6-1.13-3.91-1.69a47.66,47.66,0,0,1,5.29-1c.22,0,.52.19.72.36a2.73,2.73,0,0,0,2.39.72,2.69,2.69,0,0,0,2.2-2.67,2.65,2.65,0,0,0-1.94-2.59,2.68,2.68,0,0,0-3.18,1.35c-.14.23-.37.53-.59.57-1.73.31-3.46.57-5.45.88,1.25-1.11,2.32-2,3.37-3,.49-.44.93-1,.36-1.59s-1.1-.33-1.63.14c-1.5,1.35-3.08,2.62-4.52,4a4.48,4.48,0,0,1-3.36,1.3c1.09-1,2.09-1.85,3.08-2.75.52-.47,1.19-.94.57-1.77-.4-.54-1-.43-1.84.31l-4.45,4a3.62,3.62,0,0,1-3.25,1.14l3.31-2.93c.47-.42.74-.91.28-1.47s-1.1-.4-1.62.07c-1.71,1.51-3.41,3-5.14,4.53a2.7,2.7,0,0,1-1.23.64c-2.69.47-5.39.88-8.09,1.3-1,.15-1.38-.37-1-1.27.91-2.4,1.79-4.8,2.75-7.17a4.2,4.2,0,0,1,1.2-1.57c1.76-1.41,3.6-2.72,5.38-4.11a1.49,1.49,0,0,0,.45-1,.87.87,0,0,0-.59-.65,1.82,1.82,0,0,0-1.13.3c-1.18.82-2.32,1.71-3.58,2.65a4.84,4.84,0,0,1,1.94-3.11c1.73-1.13,3.34-2.46,5-3.71.5-.37.81-.88.42-1.45s-1-.51-1.57-.11c-.34.24-.65.51-1,.76-.83.62-1.67,1.22-2.63,1.93a3.94,3.94,0,0,1,1.85-2.92,19.14,19.14,0,0,0,2.07-1.54c1-.79,2.09-1.57,3.12-2.37a.89.89,0,0,0,.21-1.34.86.86,0,0,0-1.26-.21,5.46,5.46,0,0,0-.59.39l-3.18,2.38C412.76,1262,413.27,1260.53,413.76,1259Z"/></g></g></g></svg>