<svg xmlns="http://www.w3.org/2000/svg" xmlns:xlink="http://www.w3.org/1999/xlink" viewBox="0 0 1440 1755"><defs><style>.cls-1{fill:url(#radial-gradient);}.cls-2,.cls-3{stroke-linecap:round;stroke-miterlimit:10;}.cls-2{stroke-width:11px;fill:url(#linear-gradient);stroke:url(#linear-gradient-2);}.cls-3{fill:none;stroke-width:33px;stroke:url(#linear-gradient-3);}</style><radialGradient id="radial-gradient" cx="720" cy="1569.95" r="1163.79" gradientTransform="translate(0 -692.45)" gradientUnits="userSpaceOnUse"><stop offset="0" stop-opacity="0.35"/><stop offset="1" stop-color="#020202" stop-opacity="0"/></radialGradient><linearGradient id="linear-gradient" x1="744.45" y1="1563.69" x2="744.45" y2="306.57" gradientUnits="userSpaceOnUse"><stop offset="0.01" stop-color="#fff" stop-opacity="0"/><stop offset="1" stop-color="#fff"/></linearGradient><linearGradient id="linear-gradient-2" x1="744.45" y1="1569.19" x2="744.45" y2="301.07" gradientUnits="userSpaceOnUse"><stop offset="0.01" stop-color="#fff" stop-opacity="0"/><stop offset="0.14" stop-color="#fff" stop-opacity="0.03"/><stop offset="0.34" stop-color="#fff" stop-opacity="0.12"/><stop offset="0.54" stop-color="#fff" stop-opacity="0.23"/><stop offset="0.68" stop-color="#fff" stop-opacity="0.3"/><stop offset="0.83" stop-color="#fff" stop-opacity="0.34"/><stop offset="1" stop-color="#fff" stop-opacity="0.35"/></linearGradient><linearGradient id="linear-gradient-3" x1="717.45" y1="1047.6" x2="717.45" y2="497.66" gradientUnits="userSpaceOnUse"><stop offset="0" stop-color="#fff" stop-opacity="0.47"/><stop offset="0.05" stop-color="#fff" stop-opacity="0.54"/><stop offset="0.18" stop-color="#fff" stop-opacity="0.68"/><stop offset="0.32" stop-color="#fff" stop-opacity="0.79"/><stop offset="0.46" stop-color="#fff" stop-opacity="0.89"/><stop offset="0.61" stop-color="#fff" stop-opacity="0.95"/><stop offset="0.78" stop-color="#fff" stop-opacity="0.99"/><stop offset="1" stop-color="#fff"/></linearGradient></defs><g id="Layer_2" data-name="Layer 2"><g id="WeatherIcons"><rect class="cls-1" width="1440" height="1755"/><path id="BackThunderStorm" class="cls-2" d="M1270.51,344.72,1037.29,590M411.65,352.25,178.43,597.53M420,558.34,186.78,803.63m1008.15,314.79L961.71,1363.7M478.8,1318.4,245.58,1563.69m-52.27-388.11,164.35-172.93m709.27-606L943.72,526.19m24-219.62L881,397.79M753.52,340.45,630.31,470m-71.87-132L435.23,467.63m873.32,441.46-123.2,129.58M262.26,356.47,200.6,421.31M170.26,981.85,293.47,852.27m939.65-247.48L1126.58,716.85M847.76,1230.57,724.55,1360.15M444.4,1181.34l-90.64,95.33M289.9,1264.1,158,1402.78m431.18-33.17L466,1499.19M565.46,1306l123.21-129.58M1229.24,852,1106,981.59m224.82-341.77L1207.64,769.4m39.47,527.43L1123.9,1426.41m-14.12-374L979.86,1189.09M633.72,1069.6,527.17,1181.66M425.72,1071.6l-64,67.28m539-106.28L794.17,1144.66"/><path id="ThunderStorm" class="cls-3" d="M721,932.76l-47.35,47.36m67.18,3.62-47.36,47.36m46.93-44.54H673.75m127.69-33.31H941.07c73.47,0,133-62.47,133-135.94s-59.55-135.06-133-135.06a133.61,133.61,0,0,0-25.72,2.06c-21.41-97.2-108-170.15-211.66-170.15-111.64,0-203.55,84.29-215.43,192.76-2.34-.13-4.68-.27-7.05-.27-66.5,0-120.41,56.23-120.41,122.73s53.91,123.87,120.41,123.87H601.57"/></g></g></svg>