<svg xmlns="http://www.w3.org/2000/svg" xmlns:xlink="http://www.w3.org/1999/xlink" viewBox="0 0 746.3 549.95"><defs><style>.cls-1{fill:none;stroke-linecap:round;stroke-miterlimit:10;stroke-width:33px;stroke:url(#linear-gradient);}</style><linearGradient id="linear-gradient" x1="373.15" y1="549.95" x2="373.15" gradientUnits="userSpaceOnUse"><stop offset="0" stop-color="#fff" stop-opacity="0.47"/><stop offset="0.05" stop-color="#fff" stop-opacity="0.54"/><stop offset="0.18" stop-color="#fff" stop-opacity="0.68"/><stop offset="0.32" stop-color="#fff" stop-opacity="0.79"/><stop offset="0.46" stop-color="#fff" stop-opacity="0.89"/><stop offset="0.61" stop-color="#fff" stop-opacity="0.95"/><stop offset="0.78" stop-color="#fff" stop-opacity="0.99"/><stop offset="1" stop-color="#fff"/></linearGradient></defs><g id="Layer_2" data-name="Layer 2"><g id="WeatherIcons"><path id="ThunderStorm" class="cls-1" d="M376.67,435.1l-47.35,47.37m67.19,3.62-47.37,47.36m46.93-44.54H329.45M457.14,455.6H596.77c73.48,0,133-62.47,133-136s-59.55-135.06-133-135.06a134.54,134.54,0,0,0-25.72,2.06C549.65,89.45,463,16.5,359.39,16.5A216.68,216.68,0,0,0,144,209.27c-2.34-.14-4.68-.28-7-.28C70.41,209,16.5,265.23,16.5,331.72S70.41,455.6,136.92,455.6H257.28"/></g></g></svg>